<?xml version="1.0" encoding="UTF-8"?>
<svg id="mermaid-figure-5"  xmlns="http://www.w3.org/2000/svg" xlink="http://www.w3.org/1999/xlink" class="classDiagram" viewBox="0 0 567.5234375 536" role="graphics-document document" aria-roledescription="class"  preserveAspectRatio="xMidYMid meet" width="567.5234375" height="536">
<style>#mermaid-figure-5{font-family:Helvetica;font-size:16px;fill:#1f2d3d;}@keyframes edge-animation-frame{from{stroke-dashoffset:0;}}@keyframes dash{to{stroke-dashoffset:0;}}#mermaid-figure-5 .edge-animation-slow{stroke-dasharray:9,5!important;stroke-dashoffset:900;animation:dash 50s linear infinite;stroke-linecap:round;}#mermaid-figure-5 .edge-animation-fast{stroke-dasharray:9,5!important;stroke-dashoffset:900;animation:dash 20s linear infinite;stroke-linecap:round;}#mermaid-figure-5 .error-icon{fill:#fff3cd;}#mermaid-figure-5 .error-text{fill:#000c32;stroke:#000c32;}#mermaid-figure-5 .edge-thickness-normal{stroke-width:1px;}#mermaid-figure-5 .edge-thickness-thick{stroke-width:3.5px;}#mermaid-figure-5 .edge-pattern-solid{stroke-dasharray:0;}#mermaid-figure-5 .edge-thickness-invisible{stroke-width:0;fill:none;}#mermaid-figure-5 .edge-pattern-dashed{stroke-dasharray:3;}#mermaid-figure-5 .edge-pattern-dotted{stroke-dasharray:2;}#mermaid-figure-5 .marker{fill:#355c7d;stroke:#355c7d;}#mermaid-figure-5 .marker.cross{stroke:#355c7d;}#mermaid-figure-5 svg{font-family:Helvetica;font-size:16px;}#mermaid-figure-5 p{margin:0;}#mermaid-figure-5 g.classGroup text{fill:#355c7d;stroke:none;font-family:Helvetica;font-size:10px;}#mermaid-figure-5 g.classGroup text .title{font-weight:bolder;}#mermaid-figure-5 .nodeLabel,#mermaid-figure-5 .edgeLabel{color:#1f2d3d;}#mermaid-figure-5 .edgeLabel .label rect{fill:#e8f4f8;}#mermaid-figure-5 .label text{fill:#1f2d3d;}#mermaid-figure-5 .labelBkg{background:#e8f4f8;}#mermaid-figure-5 .edgeLabel .label span{background:#e8f4f8;}#mermaid-figure-5 .classTitle{font-weight:bolder;}#mermaid-figure-5 .node rect,#mermaid-figure-5 .node circle,#mermaid-figure-5 .node ellipse,#mermaid-figure-5 .node polygon,#mermaid-figure-5 .node path{fill:#e8f4f8;stroke:#355c7d;stroke-width:1px;}#mermaid-figure-5 .divider{stroke:#355c7d;stroke-width:1;}#mermaid-figure-5 g.clickable{cursor:pointer;}#mermaid-figure-5 g.classGroup rect{fill:#e8f4f8;stroke:#355c7d;}#mermaid-figure-5 g.classGroup line{stroke:#355c7d;stroke-width:1;}#mermaid-figure-5 .classLabel .box{stroke:none;stroke-width:0;fill:#e8f4f8;opacity:0.5;}#mermaid-figure-5 .classLabel .label{fill:#355c7d;font-size:10px;}#mermaid-figure-5 .relation{stroke:#355c7d;stroke-width:1;fill:none;}#mermaid-figure-5 .dashed-line{stroke-dasharray:3;}#mermaid-figure-5 .dotted-line{stroke-dasharray:1 2;}#mermaid-figure-5 #compositionStart,#mermaid-figure-5 .composition{fill:#355c7d!important;stroke:#355c7d!important;stroke-width:1;}#mermaid-figure-5 #compositionEnd,#mermaid-figure-5 .composition{fill:#355c7d!important;stroke:#355c7d!important;stroke-width:1;}#mermaid-figure-5 #dependencyStart,#mermaid-figure-5 .dependency{fill:#355c7d!important;stroke:#355c7d!important;stroke-width:1;}#mermaid-figure-5 #dependencyStart,#mermaid-figure-5 .dependency{fill:#355c7d!important;stroke:#355c7d!important;stroke-width:1;}#mermaid-figure-5 #extensionStart,#mermaid-figure-5 .extension{fill:transparent!important;stroke:#355c7d!important;stroke-width:1;}#mermaid-figure-5 #extensionEnd,#mermaid-figure-5 .extension{fill:transparent!important;stroke:#355c7d!important;stroke-width:1;}#mermaid-figure-5 #aggregationStart,#mermaid-figure-5 .aggregation{fill:transparent!important;stroke:#355c7d!important;stroke-width:1;}#mermaid-figure-5 #aggregationEnd,#mermaid-figure-5 .aggregation{fill:transparent!important;stroke:#355c7d!important;stroke-width:1;}#mermaid-figure-5 #lollipopStart,#mermaid-figure-5 .lollipop{fill:#e8f4f8!important;stroke:#355c7d!important;stroke-width:1;}#mermaid-figure-5 #lollipopEnd,#mermaid-figure-5 .lollipop{fill:#e8f4f8!important;stroke:#355c7d!important;stroke-width:1;}#mermaid-figure-5 .edgeTerminals{font-size:11px;line-height:initial;}#mermaid-figure-5 .classTitleText{text-anchor:middle;font-size:18px;fill:#1f2d3d;}#mermaid-figure-5 .label-icon{display:inline-block;height:1em;overflow:visible;vertical-align:-0.125em;}#mermaid-figure-5 .node .label-icon path{fill:currentColor;stroke:revert;stroke-width:revert;}#mermaid-figure-5 :root{--mermaid-font-family:"trebuchet ms",verdana,arial,sans-serif;}</style>
<g><defs><marker id="mermaid-figure-5-mermaid-1789394423418_class-aggregationStart" class="marker aggregation class" refx="18" refy="7" markerwidth="190" markerheight="240" orient="auto"><path d="M 18,7 L9,13 L1,7 L9,1 Z"></path></marker></defs><defs><marker id="mermaid-figure-5-mermaid-1789394423418_class-aggregationEnd" class="marker aggregation class" refx="1" refy="7" markerwidth="20" markerheight="28" orient="auto"><path d="M 18,7 L9,13 L1,7 L9,1 Z"></path></marker></defs><defs><marker id="mermaid-figure-5-mermaid-1789394423418_class-extensionStart" class="marker extension class" refx="18" refy="7" markerwidth="190" markerheight="240" orient="auto"><path d="M 1,7 L18,13 V 1 Z"></path></marker></defs><defs><marker id="mermaid-figure-5-mermaid-1789394423418_class-extensionEnd" class="marker extension class" refx="1" refy="7" markerwidth="20" markerheight="28" orient="auto"><path d="M 1,1 V 13 L18,7 Z"></path></marker></defs><defs><marker id="mermaid-figure-5-mermaid-1789394423418_class-compositionStart" class="marker composition class" refx="18" refy="7" markerwidth="190" markerheight="240" orient="auto"><path d="M 18,7 L9,13 L1,7 L9,1 Z"></path></marker></defs><defs><marker id="mermaid-figure-5-mermaid-1789394423418_class-compositionEnd" class="marker composition class" refx="1" refy="7" markerwidth="20" markerheight="28" orient="auto"><path d="M 18,7 L9,13 L1,7 L9,1 Z"></path></marker></defs><defs><marker id="mermaid-figure-5-mermaid-1789394423418_class-dependencyStart" class="marker dependency class" refx="6" refy="7" markerwidth="190" markerheight="240" orient="auto"><path d="M 5,7 L9,13 L1,7 L9,1 Z"></path></marker></defs><defs><marker id="mermaid-figure-5-mermaid-1789394423418_class-dependencyEnd" class="marker dependency class" refx="13" refy="7" markerwidth="20" markerheight="28" orient="auto"><path d="M 18,7 L9,13 L14,7 L9,1 Z"></path></marker></defs><defs><marker id="mermaid-figure-5-mermaid-1789394423418_class-lollipopStart" class="marker lollipop class" refx="13" refy="7" markerwidth="190" markerheight="240" orient="auto"><circle stroke="black" fill="transparent" cx="7" cy="7" r="6"></circle></marker></defs><defs><marker id="mermaid-figure-5-mermaid-1789394423418_class-lollipopEnd" class="marker lollipop class" refx="1" refy="7" markerwidth="190" markerheight="240" orient="auto"><circle stroke="black" fill="transparent" cx="7" cy="7" r="6"></circle></marker></defs><g class="root"><g class="clusters"></g><g class="edgePaths"><path d="M344.455,65.249L363.814,73.874C383.173,82.499,421.891,99.75,441.25,111.542C460.609,123.333,460.609,129.667,460.609,132.833L460.609,136" id="id_Client_Context_1" class="edge-thickness-normal edge-pattern-solid relation" style=";;;" data-edge="true" data-et="edge" data-id="id_Client_Context_1" data-points="W3sieCI6MzQ0LjQ1NTA3ODEyNSwieSI6NjUuMjQ5MTQ2MDQ4NDQ0N30seyJ4Ijo0NjAuNjA5Mzc1LCJ5IjoxMTd9LHsieCI6NDYwLjYwOTM3NSwieSI6MTQyfV0=" marker-end="url(#mermaid-figure-5-mermaid-1789394423418_class-dependencyEnd)"></path><path d="M276.002,65.249L256.643,73.874C237.284,82.499,198.566,99.75,179.207,113.542C159.848,127.333,159.848,137.667,159.848,142.833L159.848,148" id="id_Client_FlyweightFactory_2" class="edge-thickness-normal edge-pattern-solid relation" style=";;;" data-edge="true" data-et="edge" data-id="id_Client_FlyweightFactory_2" data-points="W3sieCI6Mjc2LjAwMTk1MzEyNSwieSI6NjUuMjQ5MTQ2MDQ4NDQ0N30seyJ4IjoxNTkuODQ3NjU2MjUsInkiOjExN30seyJ4IjoxNTkuODQ3NjU2MjUsInkiOjE1NH1d" marker-end="url(#mermaid-figure-5-mermaid-1789394423418_class-dependencyEnd)"></path><path d="M159.848,315.25L159.848,320.542C159.848,325.833,159.848,336.417,168.355,347.875C176.863,359.333,193.879,371.667,202.387,377.833L210.894,384" id="id_FlyweightFactory_Flyweight_3" class="edge-thickness-normal edge-pattern-solid relation" style=";;;" data-edge="true" data-et="edge" data-id="id_FlyweightFactory_Flyweight_3" data-points="W3sieCI6MTU5Ljg0NzY1NjI1LCJ5IjoyOTh9LHsieCI6MTU5Ljg0NzY1NjI1LCJ5IjozNDd9LHsieCI6MjEwLjg5NDM2OTk4Mjc5ODE3LCJ5IjozODR9XQ==" marker-start="url(#mermaid-figure-5-mermaid-1789394423418_class-aggregationStart)"></path><path d="M460.609,310L460.609,316.167C460.609,322.333,460.609,334.667,452.911,346.413C445.213,358.16,429.817,369.319,422.119,374.899L414.421,380.479" id="id_Context_Flyweight_4" class="edge-thickness-normal edge-pattern-solid relation" style=";;;" data-edge="true" data-et="edge" data-id="id_Context_Flyweight_4" data-points="W3sieCI6NDYwLjYwOTM3NSwieSI6MzEwfSx7IngiOjQ2MC42MDkzNzUsInkiOjM0N30seyJ4Ijo0MDkuNTYyNjYxMjY3MjAxODYsInkiOjM4NH1d" marker-end="url(#mermaid-figure-5-mermaid-1789394423418_class-dependencyEnd)"></path></g><g class="edgeLabels"><g class="edgeLabel"><g class="label" data-id="id_Client_Context_1" transform="translate(0, 0)"><foreignObject width="0" height="0">
<div xmlns="http://www.w3.org/1999/xhtml" class="labelBkg" data-xmlns="http://www.w3.org/1999/xhtml" style="display: table-cell; white-space: nowrap; line-height: 1.5; max-width: 200px; text-align: center;"><span class="edgeLabel"></span></div>
</foreignObject></g></g><g class="edgeLabel"><g class="label" data-id="id_Client_FlyweightFactory_2" transform="translate(0, 0)"><foreignObject width="0" height="0">
<div xmlns="http://www.w3.org/1999/xhtml" class="labelBkg" data-xmlns="http://www.w3.org/1999/xhtml" style="display: table-cell; white-space: nowrap; line-height: 1.5; max-width: 200px; text-align: center;"><span class="edgeLabel"></span></div>
</foreignObject></g></g><g class="edgeLabel" transform="translate(159.84765625, 347)"><g class="label" data-id="id_FlyweightFactory_Flyweight_3" transform="translate(-21.3515625, -12)"><foreignObject width="42.703125" height="24">
<div xmlns="http://www.w3.org/1999/xhtml" class="labelBkg" data-xmlns="http://www.w3.org/1999/xhtml" style="display: table-cell; white-space: nowrap; line-height: 1.5; max-width: 200px; text-align: center;"><span class="edgeLabel">cache</span></div>
</foreignObject></g></g><g class="edgeLabel" transform="translate(460.609375, 347)"><g class="label" data-id="id_Context_Flyweight_4" transform="translate(-31.125, -12)"><foreignObject width="62.25" height="24">
<div xmlns="http://www.w3.org/1999/xhtml" class="labelBkg" data-xmlns="http://www.w3.org/1999/xhtml" style="display: table-cell; white-space: nowrap; line-height: 1.5; max-width: 200px; text-align: center;"><span class="edgeLabel">flyweight</span></div>
</foreignObject></g></g></g><g class="nodes"><g class="node default" id="classId-Client-0" transform="translate(310.228515625, 50)"><g class="basic label-container"><path d="M-34.2265625 -42 L34.2265625 -42 L34.2265625 42 L-34.2265625 42" stroke="none" stroke-width="0" fill="#e8f4f8" style=""></path><path d="M-34.2265625 -42 C-12.641283925372068 -42, 8.943994649255863 -42, 34.2265625 -42 M-34.2265625 -42 C-17.26163906041777 -42, -0.2967156208355419 -42, 34.2265625 -42 M34.2265625 -42 C34.2265625 -12.742318476628412, 34.2265625 16.515363046743175, 34.2265625 42 M34.2265625 -42 C34.2265625 -22.408410132435684, 34.2265625 -2.8168202648713674, 34.2265625 42 M34.2265625 42 C9.620936773217942 42, -14.984688953564117 42, -34.2265625 42 M34.2265625 42 C14.804603229365068 42, -4.617356041269865 42, -34.2265625 42 M-34.2265625 42 C-34.2265625 24.528872462972448, -34.2265625 7.057744925944895, -34.2265625 -42 M-34.2265625 42 C-34.2265625 12.182428857436431, -34.2265625 -17.635142285127138, -34.2265625 -42" stroke="#355c7d" stroke-width="1.3" fill="none" stroke-dasharray="0 0" style=""></path></g><g class="annotation-group text" transform="translate(0, -18)"></g><g class="label-group text" transform="translate(-22.2265625, -18)"><g class="label" style="font-weight: bolder" transform="translate(0,-12)"><foreignObject width="44.453125" height="24">
<div xmlns="http://www.w3.org/1999/xhtml" data-xmlns="http://www.w3.org/1999/xhtml" style="display: table-cell; white-space: nowrap; line-height: 1.5; max-width: 90px; text-align: center;"><span class="nodeLabel markdown-node-label" style="">Client</span></div>
</foreignObject></g></g><g class="members-group text" transform="translate(-22.2265625, 30)"></g><g class="methods-group text" transform="translate(-22.2265625, 60)"></g><g class="divider" style=""><path d="M-34.2265625 6 C-19.181462122293453 6, -4.13636174458691 6, 34.2265625 6 M-34.2265625 6 C-17.95219126886154 6, -1.6778200377230803 6, 34.2265625 6" stroke="#355c7d" stroke-width="1.3" fill="none" stroke-dasharray="0 0" style=""></path></g><g class="divider" style=""><path d="M-34.2265625 24 C-18.62078061319142 24, -3.0149987263828457 24, 34.2265625 24 M-34.2265625 24 C-13.784018607883247 24, 6.658525284233505 24, 34.2265625 24" stroke="#355c7d" stroke-width="1.3" fill="none" stroke-dasharray="0 0" style=""></path></g></g><g class="node default" id="classId-FlyweightFactory-1" transform="translate(159.84765625, 226)"><g class="basic label-container"><path d="M-151.84765625 -72 L151.84765625 -72 L151.84765625 72 L-151.84765625 72" stroke="none" stroke-width="0" fill="#e8f4f8" style=""></path><path d="M-151.84765625 -72 C-66.8803452899626 -72, 18.08696567007479 -72, 151.84765625 -72 M-151.84765625 -72 C-71.51285599327473 -72, 8.821944263450547 -72, 151.84765625 -72 M151.84765625 -72 C151.84765625 -32.55811583291079, 151.84765625 6.883768334178427, 151.84765625 72 M151.84765625 -72 C151.84765625 -35.4196243455582, 151.84765625 1.1607513088836043, 151.84765625 72 M151.84765625 72 C67.09584294957043 72, -17.65597035085915 72, -151.84765625 72 M151.84765625 72 C52.1447915621504 72, -47.558073125699195 72, -151.84765625 72 M-151.84765625 72 C-151.84765625 17.73346256207173, -151.84765625 -36.53307487585654, -151.84765625 -72 M-151.84765625 72 C-151.84765625 16.280115576628035, -151.84765625 -39.43976884674393, -151.84765625 -72" stroke="#355c7d" stroke-width="1.3" fill="none" stroke-dasharray="0 0" style=""></path></g><g class="annotation-group text" transform="translate(0, -48)"></g><g class="label-group text" transform="translate(-65.7890625, -48)"><g class="label" style="font-weight: bolder" transform="translate(0,-12)"><foreignObject width="131.578125" height="24">
<div xmlns="http://www.w3.org/1999/xhtml" data-xmlns="http://www.w3.org/1999/xhtml" style="display: table-cell; white-space: nowrap; line-height: 1.5; max-width: 166px; text-align: center;"><span class="nodeLabel markdown-node-label" style="">FlyweightFactory</span></div>
</foreignObject></g></g><g class="members-group text" transform="translate(-139.84765625, 0)"><g class="label" style="" transform="translate(0,-12)"><foreignObject width="133.390625" height="24">
<div xmlns="http://www.w3.org/1999/xhtml" data-xmlns="http://www.w3.org/1999/xhtml" style="display: table-cell; white-space: nowrap; line-height: 1.5; max-width: 181px; text-align: center;"><span class="nodeLabel markdown-node-label" style="">-cache: Flyweight[]</span></div>
</foreignObject></g></g><g class="methods-group text" transform="translate(-139.84765625, 48)"><g class="label" style="" transform="translate(0,-12)"><foreignObject width="213.90625" height="24">
<div xmlns="http://www.w3.org/1999/xhtml" data-xmlns="http://www.w3.org/1999/xhtml" style="display: table-cell; white-space: nowrap; line-height: 1.5; max-width: 251px; text-align: center;"><span class="nodeLabel markdown-node-label" style="">+getFlyweight(repeatingState)</span></div>
</foreignObject></g></g><g class="divider" style=""><path d="M-151.84765625 -24 C-63.62010187346124 -24, 24.607452503077525 -24, 151.84765625 -24 M-151.84765625 -24 C-36.781338924561354 -24, 78.28497840087729 -24, 151.84765625 -24" stroke="#355c7d" stroke-width="1.3" fill="none" stroke-dasharray="0 0" style=""></path></g><g class="divider" style=""><path d="M-151.84765625 24 C-47.78544500864609 24, 56.276766232707814 24, 151.84765625 24 M-151.84765625 24 C-72.43170037907761 24, 6.9842554918447775 24, 151.84765625 24" stroke="#355c7d" stroke-width="1.3" fill="none" stroke-dasharray="0 0" style=""></path></g></g><g class="node default" id="classId-Flyweight-2" transform="translate(310.228515625, 456)"><g class="basic label-container"><path d="M-116.5078125 -72 L116.5078125 -72 L116.5078125 72 L-116.5078125 72" stroke="none" stroke-width="0" fill="#e8f4f8" style=""></path><path d="M-116.5078125 -72 C-30.152042142823845 -72, 56.20372821435231 -72, 116.5078125 -72 M-116.5078125 -72 C-48.78363725679239 -72, 18.940537986415222 -72, 116.5078125 -72 M116.5078125 -72 C116.5078125 -21.077539004943816, 116.5078125 29.84492199011237, 116.5078125 72 M116.5078125 -72 C116.5078125 -35.59980663655815, 116.5078125 0.8003867268837013, 116.5078125 72 M116.5078125 72 C55.11042297394465 72, -6.286966552110698 72, -116.5078125 72 M116.5078125 72 C27.810067341499376 72, -60.88767781700125 72, -116.5078125 72 M-116.5078125 72 C-116.5078125 23.848702871512884, -116.5078125 -24.30259425697423, -116.5078125 -72 M-116.5078125 72 C-116.5078125 35.93122109773655, -116.5078125 -0.13755780452690658, -116.5078125 -72" stroke="#355c7d" stroke-width="1.3" fill="none" stroke-dasharray="0 0" style=""></path></g><g class="annotation-group text" transform="translate(0, -48)"></g><g class="label-group text" transform="translate(-36.890625, -48)"><g class="label" style="font-weight: bolder" transform="translate(0,-12)"><foreignObject width="73.78125" height="24">
<div xmlns="http://www.w3.org/1999/xhtml" data-xmlns="http://www.w3.org/1999/xhtml" style="display: table-cell; white-space: nowrap; line-height: 1.5; max-width: 116px; text-align: center;"><span class="nodeLabel markdown-node-label" style="">Flyweight</span></div>
</foreignObject></g></g><g class="members-group text" transform="translate(-104.5078125, 0)"><g class="label" style="" transform="translate(0,-12)"><foreignObject width="96.921875" height="24">
<div xmlns="http://www.w3.org/1999/xhtml" data-xmlns="http://www.w3.org/1999/xhtml" style="display: table-cell; white-space: nowrap; line-height: 1.5; max-width: 145px; text-align: center;"><span class="nodeLabel markdown-node-label" style="">-intrinsicState</span></div>
</foreignObject></g></g><g class="methods-group text" transform="translate(-104.5078125, 48)"><g class="label" style="" transform="translate(0,-12)"><foreignObject width="172.125" height="24">
<div xmlns="http://www.w3.org/1999/xhtml" data-xmlns="http://www.w3.org/1999/xhtml" style="display: table-cell; white-space: nowrap; line-height: 1.5; max-width: 211px; text-align: center;"><span class="nodeLabel markdown-node-label" style="">+operation(uniqueState)</span></div>
</foreignObject></g></g><g class="divider" style=""><path d="M-116.5078125 -24 C-57.3661078676584 -24, 1.7755967646832005 -24, 116.5078125 -24 M-116.5078125 -24 C-57.586133702486606 -24, 1.335545095026788 -24, 116.5078125 -24" stroke="#355c7d" stroke-width="1.3" fill="none" stroke-dasharray="0 0" style=""></path></g><g class="divider" style=""><path d="M-116.5078125 24 C-52.41947692071001 24, 11.668858658579978 24, 116.5078125 24 M-116.5078125 24 C-50.059576805804426 24, 16.38865888839115 24, 116.5078125 24" stroke="#355c7d" stroke-width="1.3" fill="none" stroke-dasharray="0 0" style=""></path></g></g><g class="node default" id="classId-Context-3" transform="translate(460.609375, 226)"><g class="basic label-container"><path d="M-98.9140625 -84 L98.9140625 -84 L98.9140625 84 L-98.9140625 84" stroke="none" stroke-width="0" fill="#e8f4f8" style=""></path><path d="M-98.9140625 -84 C-53.01470207229435 -84, -7.115341644588696 -84, 98.9140625 -84 M-98.9140625 -84 C-56.35405957757579 -84, -13.794056655151579 -84, 98.9140625 -84 M98.9140625 -84 C98.9140625 -48.611150917204824, 98.9140625 -13.222301834409649, 98.9140625 84 M98.9140625 -84 C98.9140625 -50.0388039822603, 98.9140625 -16.077607964520595, 98.9140625 84 M98.9140625 84 C24.13776100644317 84, -50.63854048711366 84, -98.9140625 84 M98.9140625 84 C37.75960319919888 84, -23.394856101602244 84, -98.9140625 84 M-98.9140625 84 C-98.9140625 39.65719121000505, -98.9140625 -4.685617579989895, -98.9140625 -84 M-98.9140625 84 C-98.9140625 22.521658258284212, -98.9140625 -38.956683483431576, -98.9140625 -84" stroke="#355c7d" stroke-width="1.3" fill="none" stroke-dasharray="0 0" style=""></path></g><g class="annotation-group text" transform="translate(0, -60)"></g><g class="label-group text" transform="translate(-29.78125, -60)"><g class="label" style="font-weight: bolder" transform="translate(0,-12)"><foreignObject width="59.5625" height="24">
<div xmlns="http://www.w3.org/1999/xhtml" data-xmlns="http://www.w3.org/1999/xhtml" style="display: table-cell; white-space: nowrap; line-height: 1.5; max-width: 101px; text-align: center;"><span class="nodeLabel markdown-node-label" style="">Context</span></div>
</foreignObject></g></g><g class="members-group text" transform="translate(-86.9140625, -12)"><g class="label" style="" transform="translate(0,-12)"><foreignObject width="90.734375" height="24">
<div xmlns="http://www.w3.org/1999/xhtml" data-xmlns="http://www.w3.org/1999/xhtml" style="display: table-cell; white-space: nowrap; line-height: 1.5; max-width: 136px; text-align: center;"><span class="nodeLabel markdown-node-label" style="">-uniqueState</span></div>
</foreignObject></g><g class="label" style="" transform="translate(0,12)"><foreignObject width="144.046875" height="24">
<div xmlns="http://www.w3.org/1999/xhtml" data-xmlns="http://www.w3.org/1999/xhtml" style="display: table-cell; white-space: nowrap; line-height: 1.5; max-width: 196px; text-align: center;"><span class="nodeLabel markdown-node-label" style="">-flyweight: Flyweight</span></div>
</foreignObject></g></g><g class="methods-group text" transform="translate(-86.9140625, 60)"><g class="label" style="" transform="translate(0,-12)"><foreignObject width="86.71875" height="24">
<div xmlns="http://www.w3.org/1999/xhtml" data-xmlns="http://www.w3.org/1999/xhtml" style="display: table-cell; white-space: nowrap; line-height: 1.5; max-width: 136px; text-align: center;"><span class="nodeLabel markdown-node-label" style="">+operation()</span></div>
</foreignObject></g></g><g class="divider" style=""><path d="M-98.9140625 -36 C-43.9992832393038 -36, 10.9154960213924 -36, 98.9140625 -36 M-98.9140625 -36 C-23.621278549094853 -36, 51.67150540181029 -36, 98.9140625 -36" stroke="#355c7d" stroke-width="1.3" fill="none" stroke-dasharray="0 0" style=""></path></g><g class="divider" style=""><path d="M-98.9140625 36 C-56.24800348730143 36, -13.581944474602864 36, 98.9140625 36 M-98.9140625 36 C-51.28973448147898 36, -3.665406462957961 36, 98.9140625 36" stroke="#355c7d" stroke-width="1.3" fill="none" stroke-dasharray="0 0" style=""></path></g></g></g></g></g>
</svg>