<?xml version="1.0" encoding="UTF-8"?>
<svg id="mermaid-figure-6"  xmlns="http://www.w3.org/2000/svg" xlink="http://www.w3.org/1999/xlink" class="classDiagram" viewBox="0 0 642.15234375 614" role="graphics-document document" aria-roledescription="class"  preserveAspectRatio="xMidYMid meet" width="642.15234375" height="614">
<style>#mermaid-figure-6{font-family:Helvetica;font-size:16px;fill:#1f2d3d;}@keyframes edge-animation-frame{from{stroke-dashoffset:0;}}@keyframes dash{to{stroke-dashoffset:0;}}#mermaid-figure-6 .edge-animation-slow{stroke-dasharray:9,5!important;stroke-dashoffset:900;animation:dash 50s linear infinite;stroke-linecap:round;}#mermaid-figure-6 .edge-animation-fast{stroke-dasharray:9,5!important;stroke-dashoffset:900;animation:dash 20s linear infinite;stroke-linecap:round;}#mermaid-figure-6 .error-icon{fill:#fff3cd;}#mermaid-figure-6 .error-text{fill:#000c32;stroke:#000c32;}#mermaid-figure-6 .edge-thickness-normal{stroke-width:1px;}#mermaid-figure-6 .edge-thickness-thick{stroke-width:3.5px;}#mermaid-figure-6 .edge-pattern-solid{stroke-dasharray:0;}#mermaid-figure-6 .edge-thickness-invisible{stroke-width:0;fill:none;}#mermaid-figure-6 .edge-pattern-dashed{stroke-dasharray:3;}#mermaid-figure-6 .edge-pattern-dotted{stroke-dasharray:2;}#mermaid-figure-6 .marker{fill:#355c7d;stroke:#355c7d;}#mermaid-figure-6 .marker.cross{stroke:#355c7d;}#mermaid-figure-6 svg{font-family:Helvetica;font-size:16px;}#mermaid-figure-6 p{margin:0;}#mermaid-figure-6 g.classGroup text{fill:#355c7d;stroke:none;font-family:Helvetica;font-size:10px;}#mermaid-figure-6 g.classGroup text .title{font-weight:bolder;}#mermaid-figure-6 .nodeLabel,#mermaid-figure-6 .edgeLabel{color:#1f2d3d;}#mermaid-figure-6 .edgeLabel .label rect{fill:#e8f4f8;}#mermaid-figure-6 .label text{fill:#1f2d3d;}#mermaid-figure-6 .labelBkg{background:#e8f4f8;}#mermaid-figure-6 .edgeLabel .label span{background:#e8f4f8;}#mermaid-figure-6 .classTitle{font-weight:bolder;}#mermaid-figure-6 .node rect,#mermaid-figure-6 .node circle,#mermaid-figure-6 .node ellipse,#mermaid-figure-6 .node polygon,#mermaid-figure-6 .node path{fill:#e8f4f8;stroke:#355c7d;stroke-width:1px;}#mermaid-figure-6 .divider{stroke:#355c7d;stroke-width:1;}#mermaid-figure-6 g.clickable{cursor:pointer;}#mermaid-figure-6 g.classGroup rect{fill:#e8f4f8;stroke:#355c7d;}#mermaid-figure-6 g.classGroup line{stroke:#355c7d;stroke-width:1;}#mermaid-figure-6 .classLabel .box{stroke:none;stroke-width:0;fill:#e8f4f8;opacity:0.5;}#mermaid-figure-6 .classLabel .label{fill:#355c7d;font-size:10px;}#mermaid-figure-6 .relation{stroke:#355c7d;stroke-width:1;fill:none;}#mermaid-figure-6 .dashed-line{stroke-dasharray:3;}#mermaid-figure-6 .dotted-line{stroke-dasharray:1 2;}#mermaid-figure-6 #compositionStart,#mermaid-figure-6 .composition{fill:#355c7d!important;stroke:#355c7d!important;stroke-width:1;}#mermaid-figure-6 #compositionEnd,#mermaid-figure-6 .composition{fill:#355c7d!important;stroke:#355c7d!important;stroke-width:1;}#mermaid-figure-6 #dependencyStart,#mermaid-figure-6 .dependency{fill:#355c7d!important;stroke:#355c7d!important;stroke-width:1;}#mermaid-figure-6 #dependencyStart,#mermaid-figure-6 .dependency{fill:#355c7d!important;stroke:#355c7d!important;stroke-width:1;}#mermaid-figure-6 #extensionStart,#mermaid-figure-6 .extension{fill:transparent!important;stroke:#355c7d!important;stroke-width:1;}#mermaid-figure-6 #extensionEnd,#mermaid-figure-6 .extension{fill:transparent!important;stroke:#355c7d!important;stroke-width:1;}#mermaid-figure-6 #aggregationStart,#mermaid-figure-6 .aggregation{fill:transparent!important;stroke:#355c7d!important;stroke-width:1;}#mermaid-figure-6 #aggregationEnd,#mermaid-figure-6 .aggregation{fill:transparent!important;stroke:#355c7d!important;stroke-width:1;}#mermaid-figure-6 #lollipopStart,#mermaid-figure-6 .lollipop{fill:#e8f4f8!important;stroke:#355c7d!important;stroke-width:1;}#mermaid-figure-6 #lollipopEnd,#mermaid-figure-6 .lollipop{fill:#e8f4f8!important;stroke:#355c7d!important;stroke-width:1;}#mermaid-figure-6 .edgeTerminals{font-size:11px;line-height:initial;}#mermaid-figure-6 .classTitleText{text-anchor:middle;font-size:18px;fill:#1f2d3d;}#mermaid-figure-6 .label-icon{display:inline-block;height:1em;overflow:visible;vertical-align:-0.125em;}#mermaid-figure-6 .node .label-icon path{fill:currentColor;stroke:revert;stroke-width:revert;}#mermaid-figure-6 :root{--mermaid-font-family:"trebuchet ms",verdana,arial,sans-serif;}</style>
<g><defs><marker id="mermaid-figure-6-mermaid-1789385961240_class-aggregationStart" class="marker aggregation class" refx="18" refy="7" markerwidth="190" markerheight="240" orient="auto"><path d="M 18,7 L9,13 L1,7 L9,1 Z"></path></marker></defs><defs><marker id="mermaid-figure-6-mermaid-1789385961240_class-aggregationEnd" class="marker aggregation class" refx="1" refy="7" markerwidth="20" markerheight="28" orient="auto"><path d="M 18,7 L9,13 L1,7 L9,1 Z"></path></marker></defs><defs><marker id="mermaid-figure-6-mermaid-1789385961240_class-extensionStart" class="marker extension class" refx="18" refy="7" markerwidth="190" markerheight="240" orient="auto"><path d="M 1,7 L18,13 V 1 Z"></path></marker></defs><defs><marker id="mermaid-figure-6-mermaid-1789385961240_class-extensionEnd" class="marker extension class" refx="1" refy="7" markerwidth="20" markerheight="28" orient="auto"><path d="M 1,1 V 13 L18,7 Z"></path></marker></defs><defs><marker id="mermaid-figure-6-mermaid-1789385961240_class-compositionStart" class="marker composition class" refx="18" refy="7" markerwidth="190" markerheight="240" orient="auto"><path d="M 18,7 L9,13 L1,7 L9,1 Z"></path></marker></defs><defs><marker id="mermaid-figure-6-mermaid-1789385961240_class-compositionEnd" class="marker composition class" refx="1" refy="7" markerwidth="20" markerheight="28" orient="auto"><path d="M 18,7 L9,13 L1,7 L9,1 Z"></path></marker></defs><defs><marker id="mermaid-figure-6-mermaid-1789385961240_class-dependencyStart" class="marker dependency class" refx="6" refy="7" markerwidth="190" markerheight="240" orient="auto"><path d="M 5,7 L9,13 L1,7 L9,1 Z"></path></marker></defs><defs><marker id="mermaid-figure-6-mermaid-1789385961240_class-dependencyEnd" class="marker dependency class" refx="13" refy="7" markerwidth="20" markerheight="28" orient="auto"><path d="M 18,7 L9,13 L14,7 L9,1 Z"></path></marker></defs><defs><marker id="mermaid-figure-6-mermaid-1789385961240_class-lollipopStart" class="marker lollipop class" refx="13" refy="7" markerwidth="190" markerheight="240" orient="auto"><circle stroke="black" fill="transparent" cx="7" cy="7" r="6"></circle></marker></defs><defs><marker id="mermaid-figure-6-mermaid-1789385961240_class-lollipopEnd" class="marker lollipop class" refx="1" refy="7" markerwidth="190" markerheight="240" orient="auto"><circle stroke="black" fill="transparent" cx="7" cy="7" r="6"></circle></marker></defs><g class="root"><g class="clusters"></g><g class="edgePaths"><path d="M83.019,213.996L80.257,217.83C77.495,221.664,71.97,229.332,69.208,248.833C66.445,268.333,66.445,299.667,66.445,315.333L66.445,331" id="id_Window_TextWindow_1" class="edge-thickness-normal edge-pattern-solid relation" style=";;;" data-edge="true" data-et="edge" data-id="id_Window_TextWindow_1" data-points="W3sieCI6OTMuMTAzMTc3ODY2NTQxMzYsInkiOjIwMH0seyJ4Ijo2Ni40NDUzMTI1LCJ5IjoyMzd9LHsieCI6NjYuNDQ1MzEyNSwieSI6MzMxfV0=" marker-start="url(#mermaid-figure-6-mermaid-1789385961240_class-extensionStart)"></path><path d="M222.17,215.186L224.129,218.822C226.087,222.458,230.005,229.729,231.963,249.031C233.922,268.333,233.922,299.667,233.922,315.333L233.922,331" id="id_Window_IconWindow_2" class="edge-thickness-normal edge-pattern-solid relation" style=";;;" data-edge="true" data-et="edge" data-id="id_Window_IconWindow_2" data-points="W3sieCI6MjEzLjk4ODUxNjIxMjQwNiwieSI6MjAwfSx7IngiOjIzMy45MjE4NzUsInkiOjIzN30seyJ4IjoyMzMuOTIxODc1LCJ5IjozMzF9XQ==" marker-start="url(#mermaid-figure-6-mermaid-1789385961240_class-extensionStart)"></path><path d="M270.263,159.246L295.596,172.205C320.928,185.164,371.593,211.082,396.925,230.208C422.258,249.333,422.258,261.667,422.258,267.833L422.258,274" id="id_Window_WindowImpl_3" class="edge-thickness-normal edge-pattern-solid relation" style=";;;" data-edge="true" data-et="edge" data-id="id_Window_WindowImpl_3" data-points="W3sieCI6MjU0LjkwNjI1LCJ5IjoxNTEuMzg5MzgwNTMwOTczNDV9LHsieCI6NDIyLjI1NzgxMjUsInkiOjIzN30seyJ4Ijo0MjIuMjU3ODEyNSwieSI6Mjc0fV0=" marker-start="url(#mermaid-figure-6-mermaid-1789385961240_class-aggregationStart)"></path><path d="M327.143,414.506L295.635,428.255C264.128,442.004,201.113,469.502,169.605,487.418C138.098,505.333,138.098,513.667,138.098,517.833L138.098,522" id="id_WindowImpl_AndroidWindowImpl_4" class="edge-thickness-normal edge-pattern-dashed relation" style=";;;" data-edge="true" data-et="edge" data-id="id_WindowImpl_AndroidWindowImpl_4" data-points="W3sieCI6MzQyLjk1MzEyNSwieSI6NDA3LjYwNjQ3NDY3MTc5ODc2fSx7IngiOjEzOC4wOTc2NTYyNSwieSI6NDk3fSx7IngiOjEzOC4wOTc2NTYyNSwieSI6NTIyfV0=" marker-start="url(#mermaid-figure-6-mermaid-1789385961240_class-extensionStart)"></path><path d="M356.421,486.936L355.452,488.613C354.482,490.291,352.544,493.645,351.575,499.489C350.605,505.333,350.605,513.667,350.605,517.833L350.605,522" id="id_WindowImpl_IOSWindowImpl_5" class="edge-thickness-normal edge-pattern-dashed relation" style=";;;" data-edge="true" data-et="edge" data-id="id_WindowImpl_IOSWindowImpl_5" data-points="W3sieCI6MzY1LjA1MTUwNTc5NjM3MSwieSI6NDcyfSx7IngiOjM1MC42MDU0Njg3NSwieSI6NDk3fSx7IngiOjM1MC42MDU0Njg3NSwieSI6NTIyfV0=" marker-start="url(#mermaid-figure-6-mermaid-1789385961240_class-extensionStart)"></path><path d="M514.114,459.599L520.726,465.833C527.338,472.066,540.561,484.533,547.173,494.933C553.785,505.333,553.785,513.667,553.785,517.833L553.785,522" id="id_WindowImpl_LinuxWindowImpl_6" class="edge-thickness-normal edge-pattern-dashed relation" style=";;;" data-edge="true" data-et="edge" data-id="id_WindowImpl_LinuxWindowImpl_6" data-points="W3sieCI6NTAxLjU2MjUsInkiOjQ0Ny43NjYwNTk4MTQwODMzNX0seyJ4Ijo1NTMuNzg1MTU2MjUsInkiOjQ5N30seyJ4Ijo1NTMuNzg1MTU2MjUsInkiOjUyMn1d" marker-start="url(#mermaid-figure-6-mermaid-1789385961240_class-extensionStart)"></path></g><g class="edgeLabels"><g class="edgeLabel"><g class="label" data-id="id_Window_TextWindow_1" transform="translate(0, 0)"><foreignObject width="0" height="0">
<div xmlns="http://www.w3.org/1999/xhtml" class="labelBkg" data-xmlns="http://www.w3.org/1999/xhtml" style="display: table-cell; white-space: nowrap; line-height: 1.5; max-width: 200px; text-align: center;"><span class="edgeLabel"></span></div>
</foreignObject></g></g><g class="edgeLabel"><g class="label" data-id="id_Window_IconWindow_2" transform="translate(0, 0)"><foreignObject width="0" height="0">
<div xmlns="http://www.w3.org/1999/xhtml" class="labelBkg" data-xmlns="http://www.w3.org/1999/xhtml" style="display: table-cell; white-space: nowrap; line-height: 1.5; max-width: 200px; text-align: center;"><span class="edgeLabel"></span></div>
</foreignObject></g></g><g class="edgeLabel" transform="translate(422.2578125, 237)"><g class="label" data-id="id_Window_WindowImpl_3" transform="translate(-14.671875, -12)"><foreignObject width="29.34375" height="24">
<div xmlns="http://www.w3.org/1999/xhtml" class="labelBkg" data-xmlns="http://www.w3.org/1999/xhtml" style="display: table-cell; white-space: nowrap; line-height: 1.5; max-width: 200px; text-align: center;"><span class="edgeLabel">impl</span></div>
</foreignObject></g></g><g class="edgeLabel"><g class="label" data-id="id_WindowImpl_AndroidWindowImpl_4" transform="translate(0, 0)"><foreignObject width="0" height="0">
<div xmlns="http://www.w3.org/1999/xhtml" class="labelBkg" data-xmlns="http://www.w3.org/1999/xhtml" style="display: table-cell; white-space: nowrap; line-height: 1.5; max-width: 200px; text-align: center;"><span class="edgeLabel"></span></div>
</foreignObject></g></g><g class="edgeLabel"><g class="label" data-id="id_WindowImpl_IOSWindowImpl_5" transform="translate(0, 0)"><foreignObject width="0" height="0">
<div xmlns="http://www.w3.org/1999/xhtml" class="labelBkg" data-xmlns="http://www.w3.org/1999/xhtml" style="display: table-cell; white-space: nowrap; line-height: 1.5; max-width: 200px; text-align: center;"><span class="edgeLabel"></span></div>
</foreignObject></g></g><g class="edgeLabel"><g class="label" data-id="id_WindowImpl_LinuxWindowImpl_6" transform="translate(0, 0)"><foreignObject width="0" height="0">
<div xmlns="http://www.w3.org/1999/xhtml" class="labelBkg" data-xmlns="http://www.w3.org/1999/xhtml" style="display: table-cell; white-space: nowrap; line-height: 1.5; max-width: 200px; text-align: center;"><span class="edgeLabel"></span></div>
</foreignObject></g></g></g><g class="nodes"><g class="node default" id="classId-Window-0" transform="translate(162.26953125, 104)"><g class="basic label-container"><path d="M-92.63671875 -96 L92.63671875 -96 L92.63671875 96 L-92.63671875 96" stroke="none" stroke-width="0" fill="#e8f4f8" style=""></path><path d="M-92.63671875 -96 C-55.194034220136544 -96, -17.751349690273088 -96, 92.63671875 -96 M-92.63671875 -96 C-32.962985265359805 -96, 26.71074821928039 -96, 92.63671875 -96 M92.63671875 -96 C92.63671875 -35.502361052421996, 92.63671875 24.995277895156008, 92.63671875 96 M92.63671875 -96 C92.63671875 -43.41313008120713, 92.63671875 9.173739837585742, 92.63671875 96 M92.63671875 96 C55.533987177779174 96, 18.43125560555835 96, -92.63671875 96 M92.63671875 96 C22.001365592907803 96, -48.633987564184395 96, -92.63671875 96 M-92.63671875 96 C-92.63671875 21.38267336961846, -92.63671875 -53.23465326076308, -92.63671875 -96 M-92.63671875 96 C-92.63671875 22.645523737051775, -92.63671875 -50.70895252589645, -92.63671875 -96" stroke="#355c7d" stroke-width="1.3" fill="none" stroke-dasharray="0 0" style=""></path></g><g class="annotation-group text" transform="translate(0, -72)"></g><g class="label-group text" transform="translate(-30.5859375, -72)"><g class="label" style="font-weight: bolder" transform="translate(0,-12)"><foreignObject width="61.171875" height="24">
<div xmlns="http://www.w3.org/1999/xhtml" data-xmlns="http://www.w3.org/1999/xhtml" style="display: table-cell; white-space: nowrap; line-height: 1.5; max-width: 105px; text-align: center;"><span class="nodeLabel markdown-node-label" style="">Window</span></div>
</foreignObject></g></g><g class="members-group text" transform="translate(-80.63671875, -24)"><g class="label" style="" transform="translate(0,-12)"><foreignObject width="130.6875" height="24">
<div xmlns="http://www.w3.org/1999/xhtml" data-xmlns="http://www.w3.org/1999/xhtml" style="display: table-cell; white-space: nowrap; line-height: 1.5; max-width: 184px; text-align: center;"><span class="nodeLabel markdown-node-label" style="">-impl: WindowImpl</span></div>
</foreignObject></g></g><g class="methods-group text" transform="translate(-80.63671875, 24)"><g class="label" style="" transform="translate(0,-12)"><foreignObject width="55.59375" height="24">
<div xmlns="http://www.w3.org/1999/xhtml" data-xmlns="http://www.w3.org/1999/xhtml" style="display: table-cell; white-space: nowrap; line-height: 1.5; max-width: 106px; text-align: center;"><span class="nodeLabel markdown-node-label" style="">+open()</span></div>
</foreignObject></g><g class="label" style="" transform="translate(0,12)"><foreignObject width="57.359375" height="24">
<div xmlns="http://www.w3.org/1999/xhtml" data-xmlns="http://www.w3.org/1999/xhtml" style="display: table-cell; white-space: nowrap; line-height: 1.5; max-width: 108px; text-align: center;"><span class="nodeLabel markdown-node-label" style="">+close()</span></div>
</foreignObject></g><g class="label" style="" transform="translate(0,36)"><foreignObject width="84.9375" height="24">
<div xmlns="http://www.w3.org/1999/xhtml" data-xmlns="http://www.w3.org/1999/xhtml" style="display: table-cell; white-space: nowrap; line-height: 1.5; max-width: 136px; text-align: center;"><span class="nodeLabel markdown-node-label" style="">+drawLine()</span></div>
</foreignObject></g></g><g class="divider" style=""><path d="M-92.63671875 -48 C-22.219127481458884 -48, 48.19846378708223 -48, 92.63671875 -48 M-92.63671875 -48 C-29.704571573781458 -48, 33.227575602437085 -48, 92.63671875 -48" stroke="#355c7d" stroke-width="1.3" fill="none" stroke-dasharray="0 0" style=""></path></g><g class="divider" style=""><path d="M-92.63671875 0 C-29.76909594920118 0, 33.09852685159764 0, 92.63671875 0 M-92.63671875 0 C-29.41492541287178 0, 33.80686792425644 0, 92.63671875 0" stroke="#355c7d" stroke-width="1.3" fill="none" stroke-dasharray="0 0" style=""></path></g></g><g class="node default" id="classId-TextWindow-1" transform="translate(66.4453125, 373)"><g class="basic label-container"><path d="M-58.4453125 -42 L58.4453125 -42 L58.4453125 42 L-58.4453125 42" stroke="none" stroke-width="0" fill="#e8f4f8" style=""></path><path d="M-58.4453125 -42 C-16.194354887525712 -42, 26.056602724948576 -42, 58.4453125 -42 M-58.4453125 -42 C-24.365088491881927 -42, 9.715135516236145 -42, 58.4453125 -42 M58.4453125 -42 C58.4453125 -19.060653281601397, 58.4453125 3.8786934367972066, 58.4453125 42 M58.4453125 -42 C58.4453125 -19.57973262384516, 58.4453125 2.8405347523096793, 58.4453125 42 M58.4453125 42 C17.38938172598752 42, -23.66654904802496 42, -58.4453125 42 M58.4453125 42 C18.231567126415356 42, -21.982178247169287 42, -58.4453125 42 M-58.4453125 42 C-58.4453125 10.775742281662623, -58.4453125 -20.448515436674754, -58.4453125 -42 M-58.4453125 42 C-58.4453125 23.3774776693866, -58.4453125 4.7549553387732, -58.4453125 -42" stroke="#355c7d" stroke-width="1.3" fill="none" stroke-dasharray="0 0" style=""></path></g><g class="annotation-group text" transform="translate(0, -18)"></g><g class="label-group text" transform="translate(-46.4453125, -18)"><g class="label" style="font-weight: bolder" transform="translate(0,-12)"><foreignObject width="92.890625" height="24">
<div xmlns="http://www.w3.org/1999/xhtml" data-xmlns="http://www.w3.org/1999/xhtml" style="display: table-cell; white-space: nowrap; line-height: 1.5; max-width: 133px; text-align: center;"><span class="nodeLabel markdown-node-label" style="">TextWindow</span></div>
</foreignObject></g></g><g class="members-group text" transform="translate(-46.4453125, 30)"></g><g class="methods-group text" transform="translate(-46.4453125, 60)"></g><g class="divider" style=""><path d="M-58.4453125 6 C-31.780383607157948 6, -5.115454714315895 6, 58.4453125 6 M-58.4453125 6 C-21.634657459645304 6, 15.175997580709392 6, 58.4453125 6" stroke="#355c7d" stroke-width="1.3" fill="none" stroke-dasharray="0 0" style=""></path></g><g class="divider" style=""><path d="M-58.4453125 24 C-32.86548442236154 24, -7.28565634472308 24, 58.4453125 24 M-58.4453125 24 C-22.187683025284436 24, 14.069946449431129 24, 58.4453125 24" stroke="#355c7d" stroke-width="1.3" fill="none" stroke-dasharray="0 0" style=""></path></g></g><g class="node default" id="classId-IconWindow-2" transform="translate(233.921875, 373)"><g class="basic label-container"><path d="M-59.03125 -42 L59.03125 -42 L59.03125 42 L-59.03125 42" stroke="none" stroke-width="0" fill="#e8f4f8" style=""></path><path d="M-59.03125 -42 C-24.230550441817726 -42, 10.570149116364547 -42, 59.03125 -42 M-59.03125 -42 C-12.798349109997247 -42, 33.434551780005506 -42, 59.03125 -42 M59.03125 -42 C59.03125 -21.298291217608764, 59.03125 -0.5965824352175275, 59.03125 42 M59.03125 -42 C59.03125 -19.970628964603797, 59.03125 2.0587420707924053, 59.03125 42 M59.03125 42 C23.69984078685789 42, -11.631568426284218 42, -59.03125 42 M59.03125 42 C32.78792880249327 42, 6.544607604986545 42, -59.03125 42 M-59.03125 42 C-59.03125 19.359891689192033, -59.03125 -3.280216621615935, -59.03125 -42 M-59.03125 42 C-59.03125 15.460726713826503, -59.03125 -11.078546572346994, -59.03125 -42" stroke="#355c7d" stroke-width="1.3" fill="none" stroke-dasharray="0 0" style=""></path></g><g class="annotation-group text" transform="translate(0, -18)"></g><g class="label-group text" transform="translate(-47.03125, -18)"><g class="label" style="font-weight: bolder" transform="translate(0,-12)"><foreignObject width="94.0625" height="24">
<div xmlns="http://www.w3.org/1999/xhtml" data-xmlns="http://www.w3.org/1999/xhtml" style="display: table-cell; white-space: nowrap; line-height: 1.5; max-width: 133px; text-align: center;"><span class="nodeLabel markdown-node-label" style="">IconWindow</span></div>
</foreignObject></g></g><g class="members-group text" transform="translate(-47.03125, 30)"></g><g class="methods-group text" transform="translate(-47.03125, 60)"></g><g class="divider" style=""><path d="M-59.03125 6 C-23.174503791754212 6, 12.682242416491576 6, 59.03125 6 M-59.03125 6 C-22.22295304532266 6, 14.585343909354677 6, 59.03125 6" stroke="#355c7d" stroke-width="1.3" fill="none" stroke-dasharray="0 0" style=""></path></g><g class="divider" style=""><path d="M-59.03125 24 C-12.657631932642659 24, 33.71598613471468 24, 59.03125 24 M-59.03125 24 C-24.309054771488583 24, 10.413140457022834 24, 59.03125 24" stroke="#355c7d" stroke-width="1.3" fill="none" stroke-dasharray="0 0" style=""></path></g></g><g class="node default" id="classId-WindowImpl-3" transform="translate(422.2578125, 373)"><g class="basic label-container"><path d="M-79.3046875 -99 L79.3046875 -99 L79.3046875 99 L-79.3046875 99" stroke="none" stroke-width="0" fill="#e8f4f8" style=""></path><path d="M-79.3046875 -99 C-40.43915181037562 -99, -1.5736161207512396 -99, 79.3046875 -99 M-79.3046875 -99 C-19.477763112435902 -99, 40.349161275128196 -99, 79.3046875 -99 M79.3046875 -99 C79.3046875 -28.30805960368042, 79.3046875 42.38388079263916, 79.3046875 99 M79.3046875 -99 C79.3046875 -46.679038527729006, 79.3046875 5.641922944541989, 79.3046875 99 M79.3046875 99 C30.39130060063807 99, -18.522086298723863 99, -79.3046875 99 M79.3046875 99 C16.903037255043856 99, -45.49861298991229 99, -79.3046875 99 M-79.3046875 99 C-79.3046875 40.907370214918345, -79.3046875 -17.18525957016331, -79.3046875 -99 M-79.3046875 99 C-79.3046875 42.06523885000124, -79.3046875 -14.869522299997513, -79.3046875 -99" stroke="#355c7d" stroke-width="1.3" fill="none" stroke-dasharray="0 0" style=""></path></g><g class="annotation-group text" transform="translate(-39.5859375, -75)"><g class="label" style="" transform="translate(0,-12)"><foreignObject width="79.171875" height="24">
<div xmlns="http://www.w3.org/1999/xhtml" data-xmlns="http://www.w3.org/1999/xhtml" style="display: table-cell; white-space: nowrap; line-height: 1.5; max-width: 122px; text-align: center;"><span class="nodeLabel markdown-node-label" style="">«interface»</span></div>
</foreignObject></g></g><g class="label-group text" transform="translate(-47.03125, -51)"><g class="label" style="font-weight: bolder" transform="translate(0,-12)"><foreignObject width="94.0625" height="24">
<div xmlns="http://www.w3.org/1999/xhtml" data-xmlns="http://www.w3.org/1999/xhtml" style="display: table-cell; white-space: nowrap; line-height: 1.5; max-width: 135px; text-align: center;"><span class="nodeLabel markdown-node-label" style="">WindowImpl</span></div>
</foreignObject></g></g><g class="members-group text" transform="translate(-67.3046875, -3)"></g><g class="methods-group text" transform="translate(-67.3046875, 27)"><g class="label" style="" transform="translate(0,-12)"><foreignObject width="84.9375" height="24">
<div xmlns="http://www.w3.org/1999/xhtml" data-xmlns="http://www.w3.org/1999/xhtml" style="display: table-cell; white-space: nowrap; line-height: 1.5; max-width: 136px; text-align: center;"><span class="nodeLabel markdown-node-label" style="">+drawLine()</span></div>
</foreignObject></g><g class="label" style="" transform="translate(0,12)"><foreignObject width="87.578125" height="24">
<div xmlns="http://www.w3.org/1999/xhtml" data-xmlns="http://www.w3.org/1999/xhtml" style="display: table-cell; white-space: nowrap; line-height: 1.5; max-width: 136px; text-align: center;"><span class="nodeLabel markdown-node-label" style="">+drawRect()</span></div>
</foreignObject></g><g class="label" style="" transform="translate(0,36)"><foreignObject width="84.03125" height="24">
<div xmlns="http://www.w3.org/1999/xhtml" data-xmlns="http://www.w3.org/1999/xhtml" style="display: table-cell; white-space: nowrap; line-height: 1.5; max-width: 135px; text-align: center;"><span class="nodeLabel markdown-node-label" style="">+drawText()</span></div>
</foreignObject></g></g><g class="divider" style=""><path d="M-79.3046875 -27 C-35.729173097679194 -27, 7.846341304641612 -27, 79.3046875 -27 M-79.3046875 -27 C-25.715149655341378 -27, 27.874388189317244 -27, 79.3046875 -27" stroke="#355c7d" stroke-width="1.3" fill="none" stroke-dasharray="0 0" style=""></path></g><g class="divider" style=""><path d="M-79.3046875 -3 C-29.59308768606028 -3, 20.11851212787944 -3, 79.3046875 -3 M-79.3046875 -3 C-36.7895077165742 -3, 5.725672066851601 -3, 79.3046875 -3" stroke="#355c7d" stroke-width="1.3" fill="none" stroke-dasharray="0 0" style=""></path></g></g><g class="node default" id="classId-AndroidWindowImpl-4" transform="translate(138.09765625, 564)"><g class="basic label-container"><path d="M-89.6953125 -42 L89.6953125 -42 L89.6953125 42 L-89.6953125 42" stroke="none" stroke-width="0" fill="#e8f4f8" style=""></path><path d="M-89.6953125 -42 C-29.468635051606128 -42, 30.758042396787744 -42, 89.6953125 -42 M-89.6953125 -42 C-24.1263207137831 -42, 41.4426710724338 -42, 89.6953125 -42 M89.6953125 -42 C89.6953125 -10.868219171560241, 89.6953125 20.263561656879517, 89.6953125 42 M89.6953125 -42 C89.6953125 -19.076225092234267, 89.6953125 3.8475498155314654, 89.6953125 42 M89.6953125 42 C27.52713280784016 42, -34.64104688431968 42, -89.6953125 42 M89.6953125 42 C29.56411809185004 42, -30.567076316299918 42, -89.6953125 42 M-89.6953125 42 C-89.6953125 19.35389865665438, -89.6953125 -3.2922026866912404, -89.6953125 -42 M-89.6953125 42 C-89.6953125 8.847079734455122, -89.6953125 -24.305840531089757, -89.6953125 -42" stroke="#355c7d" stroke-width="1.3" fill="none" stroke-dasharray="0 0" style=""></path></g><g class="annotation-group text" transform="translate(0, -18)"></g><g class="label-group text" transform="translate(-77.6953125, -18)"><g class="label" style="font-weight: bolder" transform="translate(0,-12)"><foreignObject width="155.390625" height="24">
<div xmlns="http://www.w3.org/1999/xhtml" data-xmlns="http://www.w3.org/1999/xhtml" style="display: table-cell; white-space: nowrap; line-height: 1.5; max-width: 190px; text-align: center;"><span class="nodeLabel markdown-node-label" style="">AndroidWindowImpl</span></div>
</foreignObject></g></g><g class="members-group text" transform="translate(-77.6953125, 30)"></g><g class="methods-group text" transform="translate(-77.6953125, 60)"></g><g class="divider" style=""><path d="M-89.6953125 6 C-39.898752236794145 6, 9.89780802641171 6, 89.6953125 6 M-89.6953125 6 C-38.64657428442916 6, 12.402163931141686 6, 89.6953125 6" stroke="#355c7d" stroke-width="1.3" fill="none" stroke-dasharray="0 0" style=""></path></g><g class="divider" style=""><path d="M-89.6953125 24 C-50.49839592942869 24, -11.301479358857378 24, 89.6953125 24 M-89.6953125 24 C-22.723514515355077 24, 44.248283469289845 24, 89.6953125 24" stroke="#355c7d" stroke-width="1.3" fill="none" stroke-dasharray="0 0" style=""></path></g></g><g class="node default" id="classId-IOSWindowImpl-5" transform="translate(350.60546875, 564)"><g class="basic label-container"><path d="M-72.8125 -42 L72.8125 -42 L72.8125 42 L-72.8125 42" stroke="none" stroke-width="0" fill="#e8f4f8" style=""></path><path d="M-72.8125 -42 C-23.955334778713464 -42, 24.901830442573072 -42, 72.8125 -42 M-72.8125 -42 C-17.06810656701105 -42, 38.6762868659779 -42, 72.8125 -42 M72.8125 -42 C72.8125 -19.68131930210873, 72.8125 2.6373613957825413, 72.8125 42 M72.8125 -42 C72.8125 -11.938767650863202, 72.8125 18.122464698273596, 72.8125 42 M72.8125 42 C40.47895976212296 42, 8.145419524245924 42, -72.8125 42 M72.8125 42 C18.964825218942913 42, -34.882849562114174 42, -72.8125 42 M-72.8125 42 C-72.8125 15.554914618678954, -72.8125 -10.890170762642093, -72.8125 -42 M-72.8125 42 C-72.8125 21.156228852413438, -72.8125 0.3124577048268762, -72.8125 -42" stroke="#355c7d" stroke-width="1.3" fill="none" stroke-dasharray="0 0" style=""></path></g><g class="annotation-group text" transform="translate(0, -18)"></g><g class="label-group text" transform="translate(-60.8125, -18)"><g class="label" style="font-weight: bolder" transform="translate(0,-12)"><foreignObject width="121.625" height="24">
<div xmlns="http://www.w3.org/1999/xhtml" data-xmlns="http://www.w3.org/1999/xhtml" style="display: table-cell; white-space: nowrap; line-height: 1.5; max-width: 161px; text-align: center;"><span class="nodeLabel markdown-node-label" style="">IOSWindowImpl</span></div>
</foreignObject></g></g><g class="members-group text" transform="translate(-60.8125, 30)"></g><g class="methods-group text" transform="translate(-60.8125, 60)"></g><g class="divider" style=""><path d="M-72.8125 6 C-29.89739721023585 6, 13.017705579528297 6, 72.8125 6 M-72.8125 6 C-42.5429906159068 6, -12.273481231813598 6, 72.8125 6" stroke="#355c7d" stroke-width="1.3" fill="none" stroke-dasharray="0 0" style=""></path></g><g class="divider" style=""><path d="M-72.8125 24 C-23.271732325620995 24, 26.26903534875801 24, 72.8125 24 M-72.8125 24 C-35.93819240445922 24, 0.936115191081555 24, 72.8125 24" stroke="#355c7d" stroke-width="1.3" fill="none" stroke-dasharray="0 0" style=""></path></g></g><g class="node default" id="classId-LinuxWindowImpl-6" transform="translate(553.78515625, 564)"><g class="basic label-container"><path d="M-80.3671875 -42 L80.3671875 -42 L80.3671875 42 L-80.3671875 42" stroke="none" stroke-width="0" fill="#e8f4f8" style=""></path><path d="M-80.3671875 -42 C-34.14989810602955 -42, 12.067391287940893 -42, 80.3671875 -42 M-80.3671875 -42 C-28.803846789146277 -42, 22.759493921707445 -42, 80.3671875 -42 M80.3671875 -42 C80.3671875 -14.108475214968077, 80.3671875 13.783049570063845, 80.3671875 42 M80.3671875 -42 C80.3671875 -18.453865614995177, 80.3671875 5.092268770009646, 80.3671875 42 M80.3671875 42 C20.796948109913174 42, -38.77329128017365 42, -80.3671875 42 M80.3671875 42 C21.43533082143926 42, -37.49652585712148 42, -80.3671875 42 M-80.3671875 42 C-80.3671875 24.12138011920835, -80.3671875 6.2427602384167, -80.3671875 -42 M-80.3671875 42 C-80.3671875 19.546068014126515, -80.3671875 -2.90786397174697, -80.3671875 -42" stroke="#355c7d" stroke-width="1.3" fill="none" stroke-dasharray="0 0" style=""></path></g><g class="annotation-group text" transform="translate(0, -18)"></g><g class="label-group text" transform="translate(-68.3671875, -18)"><g class="label" style="font-weight: bolder" transform="translate(0,-12)"><foreignObject width="136.734375" height="24">
<div xmlns="http://www.w3.org/1999/xhtml" data-xmlns="http://www.w3.org/1999/xhtml" style="display: table-cell; white-space: nowrap; line-height: 1.5; max-width: 174px; text-align: center;"><span class="nodeLabel markdown-node-label" style="">LinuxWindowImpl</span></div>
</foreignObject></g></g><g class="members-group text" transform="translate(-68.3671875, 30)"></g><g class="methods-group text" transform="translate(-68.3671875, 60)"></g><g class="divider" style=""><path d="M-80.3671875 6 C-47.51344253024947 6, -14.659697560498941 6, 80.3671875 6 M-80.3671875 6 C-21.439098891250516 6, 37.48898971749897 6, 80.3671875 6" stroke="#355c7d" stroke-width="1.3" fill="none" stroke-dasharray="0 0" style=""></path></g><g class="divider" style=""><path d="M-80.3671875 24 C-22.11530218145554 24, 36.13658313708892 24, 80.3671875 24 M-80.3671875 24 C-16.12370395681097 24, 48.11977958637806 24, 80.3671875 24" stroke="#355c7d" stroke-width="1.3" fill="none" stroke-dasharray="0 0" style=""></path></g></g></g></g></g>
</svg>