<?xml version="1.0" encoding="UTF-8"?>
<svg id="mermaid-figure-2"  xmlns="http://www.w3.org/2000/svg" xlink="http://www.w3.org/1999/xlink" class="classDiagram" viewBox="0 0 443.25 458" role="graphics-document document" aria-roledescription="class"  preserveAspectRatio="xMidYMid meet" width="443.25" height="458">
<style>#mermaid-figure-2{font-family:Helvetica;font-size:16px;fill:#1f2d3d;}@keyframes edge-animation-frame{from{stroke-dashoffset:0;}}@keyframes dash{to{stroke-dashoffset:0;}}#mermaid-figure-2 .edge-animation-slow{stroke-dasharray:9,5!important;stroke-dashoffset:900;animation:dash 50s linear infinite;stroke-linecap:round;}#mermaid-figure-2 .edge-animation-fast{stroke-dasharray:9,5!important;stroke-dashoffset:900;animation:dash 20s linear infinite;stroke-linecap:round;}#mermaid-figure-2 .error-icon{fill:#fff3cd;}#mermaid-figure-2 .error-text{fill:#000c32;stroke:#000c32;}#mermaid-figure-2 .edge-thickness-normal{stroke-width:1px;}#mermaid-figure-2 .edge-thickness-thick{stroke-width:3.5px;}#mermaid-figure-2 .edge-pattern-solid{stroke-dasharray:0;}#mermaid-figure-2 .edge-thickness-invisible{stroke-width:0;fill:none;}#mermaid-figure-2 .edge-pattern-dashed{stroke-dasharray:3;}#mermaid-figure-2 .edge-pattern-dotted{stroke-dasharray:2;}#mermaid-figure-2 .marker{fill:#355c7d;stroke:#355c7d;}#mermaid-figure-2 .marker.cross{stroke:#355c7d;}#mermaid-figure-2 svg{font-family:Helvetica;font-size:16px;}#mermaid-figure-2 p{margin:0;}#mermaid-figure-2 g.classGroup text{fill:#355c7d;stroke:none;font-family:Helvetica;font-size:10px;}#mermaid-figure-2 g.classGroup text .title{font-weight:bolder;}#mermaid-figure-2 .nodeLabel,#mermaid-figure-2 .edgeLabel{color:#1f2d3d;}#mermaid-figure-2 .edgeLabel .label rect{fill:#e8f4f8;}#mermaid-figure-2 .label text{fill:#1f2d3d;}#mermaid-figure-2 .labelBkg{background:#e8f4f8;}#mermaid-figure-2 .edgeLabel .label span{background:#e8f4f8;}#mermaid-figure-2 .classTitle{font-weight:bolder;}#mermaid-figure-2 .node rect,#mermaid-figure-2 .node circle,#mermaid-figure-2 .node ellipse,#mermaid-figure-2 .node polygon,#mermaid-figure-2 .node path{fill:#e8f4f8;stroke:#355c7d;stroke-width:1px;}#mermaid-figure-2 .divider{stroke:#355c7d;stroke-width:1;}#mermaid-figure-2 g.clickable{cursor:pointer;}#mermaid-figure-2 g.classGroup rect{fill:#e8f4f8;stroke:#355c7d;}#mermaid-figure-2 g.classGroup line{stroke:#355c7d;stroke-width:1;}#mermaid-figure-2 .classLabel .box{stroke:none;stroke-width:0;fill:#e8f4f8;opacity:0.5;}#mermaid-figure-2 .classLabel .label{fill:#355c7d;font-size:10px;}#mermaid-figure-2 .relation{stroke:#355c7d;stroke-width:1;fill:none;}#mermaid-figure-2 .dashed-line{stroke-dasharray:3;}#mermaid-figure-2 .dotted-line{stroke-dasharray:1 2;}#mermaid-figure-2 #compositionStart,#mermaid-figure-2 .composition{fill:#355c7d!important;stroke:#355c7d!important;stroke-width:1;}#mermaid-figure-2 #compositionEnd,#mermaid-figure-2 .composition{fill:#355c7d!important;stroke:#355c7d!important;stroke-width:1;}#mermaid-figure-2 #dependencyStart,#mermaid-figure-2 .dependency{fill:#355c7d!important;stroke:#355c7d!important;stroke-width:1;}#mermaid-figure-2 #dependencyStart,#mermaid-figure-2 .dependency{fill:#355c7d!important;stroke:#355c7d!important;stroke-width:1;}#mermaid-figure-2 #extensionStart,#mermaid-figure-2 .extension{fill:transparent!important;stroke:#355c7d!important;stroke-width:1;}#mermaid-figure-2 #extensionEnd,#mermaid-figure-2 .extension{fill:transparent!important;stroke:#355c7d!important;stroke-width:1;}#mermaid-figure-2 #aggregationStart,#mermaid-figure-2 .aggregation{fill:transparent!important;stroke:#355c7d!important;stroke-width:1;}#mermaid-figure-2 #aggregationEnd,#mermaid-figure-2 .aggregation{fill:transparent!important;stroke:#355c7d!important;stroke-width:1;}#mermaid-figure-2 #lollipopStart,#mermaid-figure-2 .lollipop{fill:#e8f4f8!important;stroke:#355c7d!important;stroke-width:1;}#mermaid-figure-2 #lollipopEnd,#mermaid-figure-2 .lollipop{fill:#e8f4f8!important;stroke:#355c7d!important;stroke-width:1;}#mermaid-figure-2 .edgeTerminals{font-size:11px;line-height:initial;}#mermaid-figure-2 .classTitleText{text-anchor:middle;font-size:18px;fill:#1f2d3d;}#mermaid-figure-2 .label-icon{display:inline-block;height:1em;overflow:visible;vertical-align:-0.125em;}#mermaid-figure-2 .node .label-icon path{fill:currentColor;stroke:revert;stroke-width:revert;}#mermaid-figure-2 :root{--mermaid-font-family:"trebuchet ms",verdana,arial,sans-serif;}</style>
<g><defs><marker id="mermaid-figure-2-mermaid-1789392537786_class-aggregationStart" class="marker aggregation class" refx="18" refy="7" markerwidth="190" markerheight="240" orient="auto"><path d="M 18,7 L9,13 L1,7 L9,1 Z"></path></marker></defs><defs><marker id="mermaid-figure-2-mermaid-1789392537786_class-aggregationEnd" class="marker aggregation class" refx="1" refy="7" markerwidth="20" markerheight="28" orient="auto"><path d="M 18,7 L9,13 L1,7 L9,1 Z"></path></marker></defs><defs><marker id="mermaid-figure-2-mermaid-1789392537786_class-extensionStart" class="marker extension class" refx="18" refy="7" markerwidth="190" markerheight="240" orient="auto"><path d="M 1,7 L18,13 V 1 Z"></path></marker></defs><defs><marker id="mermaid-figure-2-mermaid-1789392537786_class-extensionEnd" class="marker extension class" refx="1" refy="7" markerwidth="20" markerheight="28" orient="auto"><path d="M 1,1 V 13 L18,7 Z"></path></marker></defs><defs><marker id="mermaid-figure-2-mermaid-1789392537786_class-compositionStart" class="marker composition class" refx="18" refy="7" markerwidth="190" markerheight="240" orient="auto"><path d="M 18,7 L9,13 L1,7 L9,1 Z"></path></marker></defs><defs><marker id="mermaid-figure-2-mermaid-1789392537786_class-compositionEnd" class="marker composition class" refx="1" refy="7" markerwidth="20" markerheight="28" orient="auto"><path d="M 18,7 L9,13 L1,7 L9,1 Z"></path></marker></defs><defs><marker id="mermaid-figure-2-mermaid-1789392537786_class-dependencyStart" class="marker dependency class" refx="6" refy="7" markerwidth="190" markerheight="240" orient="auto"><path d="M 5,7 L9,13 L1,7 L9,1 Z"></path></marker></defs><defs><marker id="mermaid-figure-2-mermaid-1789392537786_class-dependencyEnd" class="marker dependency class" refx="13" refy="7" markerwidth="20" markerheight="28" orient="auto"><path d="M 18,7 L9,13 L14,7 L9,1 Z"></path></marker></defs><defs><marker id="mermaid-figure-2-mermaid-1789392537786_class-lollipopStart" class="marker lollipop class" refx="13" refy="7" markerwidth="190" markerheight="240" orient="auto"><circle stroke="black" fill="transparent" cx="7" cy="7" r="6"></circle></marker></defs><defs><marker id="mermaid-figure-2-mermaid-1789392537786_class-lollipopEnd" class="marker lollipop class" refx="1" refy="7" markerwidth="190" markerheight="240" orient="auto"><circle stroke="black" fill="transparent" cx="7" cy="7" r="6"></circle></marker></defs><g class="root"><g class="clusters"></g><g class="edgePaths"><path d="M219.18,92L219.18,98.167C219.18,104.333,219.18,116.667,219.18,128C219.18,139.333,219.18,149.667,219.18,154.833L219.18,160" id="id_DocumentProcessor_IDocumentSaver_1" class="edge-thickness-normal edge-pattern-solid relation" style=";;;" data-edge="true" data-et="edge" data-id="id_DocumentProcessor_IDocumentSaver_1" data-points="W3sieCI6MjE5LjE3OTY4NzUsInkiOjkyfSx7IngiOjIxOS4xNzk2ODc1LCJ5IjoxMjl9LHsieCI6MjE5LjE3OTY4NzUsInkiOjE2Nn1d" marker-end="url(#mermaid-figure-2-mermaid-1789392537786_class-dependencyEnd)"></path><path d="M116.475,327.081L113.707,329.401C110.939,331.72,105.403,336.36,102.635,342.847C99.867,349.333,99.867,357.667,99.867,361.833L99.867,366" id="id_IDocumentSaver_SaveDocumentToPdf_2" class="edge-thickness-normal edge-pattern-dashed relation" style=";;;" data-edge="true" data-et="edge" data-id="id_IDocumentSaver_SaveDocumentToPdf_2" data-points="W3sieCI6MTI5LjY5NTMxMjUsInkiOjMxNn0seyJ4Ijo5OS44NjcxODc1LCJ5IjozNDF9LHsieCI6OTkuODY3MTg3NSwieSI6MzY2fV0=" marker-start="url(#mermaid-figure-2-mermaid-1789392537786_class-extensionStart)"></path><path d="M321.885,327.081L324.653,329.401C327.42,331.72,332.956,336.36,335.724,342.847C338.492,349.333,338.492,357.667,338.492,361.833L338.492,366" id="id_IDocumentSaver_SaveDocumentToHtml_3" class="edge-thickness-normal edge-pattern-dashed relation" style=";;;" data-edge="true" data-et="edge" data-id="id_IDocumentSaver_SaveDocumentToHtml_3" data-points="W3sieCI6MzA4LjY2NDA2MjUsInkiOjMxNn0seyJ4IjozMzguNDkyMTg3NSwieSI6MzQxfSx7IngiOjMzOC40OTIxODc1LCJ5IjozNjZ9XQ==" marker-start="url(#mermaid-figure-2-mermaid-1789392537786_class-extensionStart)"></path></g><g class="edgeLabels"><g class="edgeLabel" transform="translate(219.1796875, 129)"><g class="label" data-id="id_DocumentProcessor_IDocumentSaver_1" transform="translate(-41.8203125, -12)"><foreignObject width="83.640625" height="24">
<div xmlns="http://www.w3.org/1999/xhtml" class="labelBkg" data-xmlns="http://www.w3.org/1999/xhtml" style="display: table-cell; white-space: nowrap; line-height: 1.5; max-width: 200px; text-align: center;"><span class="edgeLabel">depends on</span></div>
</foreignObject></g></g><g class="edgeLabel"><g class="label" data-id="id_IDocumentSaver_SaveDocumentToPdf_2" transform="translate(0, 0)"><foreignObject width="0" height="0">
<div xmlns="http://www.w3.org/1999/xhtml" class="labelBkg" data-xmlns="http://www.w3.org/1999/xhtml" style="display: table-cell; white-space: nowrap; line-height: 1.5; max-width: 200px; text-align: center;"><span class="edgeLabel"></span></div>
</foreignObject></g></g><g class="edgeLabel"><g class="label" data-id="id_IDocumentSaver_SaveDocumentToHtml_3" transform="translate(0, 0)"><foreignObject width="0" height="0">
<div xmlns="http://www.w3.org/1999/xhtml" class="labelBkg" data-xmlns="http://www.w3.org/1999/xhtml" style="display: table-cell; white-space: nowrap; line-height: 1.5; max-width: 200px; text-align: center;"><span class="edgeLabel"></span></div>
</foreignObject></g></g></g><g class="nodes"><g class="node default" id="classId-DocumentProcessor-0" transform="translate(219.1796875, 50)"><g class="basic label-container"><path d="M-90.25 -42 L90.25 -42 L90.25 42 L-90.25 42" stroke="none" stroke-width="0" fill="#e8f4f8" style=""></path><path d="M-90.25 -42 C-27.76453135494291 -42, 34.72093729011418 -42, 90.25 -42 M-90.25 -42 C-29.543011773047397 -42, 31.163976453905207 -42, 90.25 -42 M90.25 -42 C90.25 -10.364990697527695, 90.25 21.27001860494461, 90.25 42 M90.25 -42 C90.25 -17.712555489617262, 90.25 6.574889020765475, 90.25 42 M90.25 42 C52.04316069636801 42, 13.836321392736025 42, -90.25 42 M90.25 42 C42.520324699745366 42, -5.209350600509268 42, -90.25 42 M-90.25 42 C-90.25 18.912870075728065, -90.25 -4.174259848543869, -90.25 -42 M-90.25 42 C-90.25 20.965199681075532, -90.25 -0.06960063784893578, -90.25 -42" stroke="#355c7d" stroke-width="1.3" fill="none" stroke-dasharray="0 0" style=""></path></g><g class="annotation-group text" transform="translate(0, -18)"></g><g class="label-group text" transform="translate(-78.25, -18)"><g class="label" style="font-weight: bolder" transform="translate(0,-12)"><foreignObject width="156.5" height="24">
<div xmlns="http://www.w3.org/1999/xhtml" data-xmlns="http://www.w3.org/1999/xhtml" style="display: table-cell; white-space: nowrap; line-height: 1.5; max-width: 181px; text-align: center;"><span class="nodeLabel markdown-node-label" style="">DocumentProcessor</span></div>
</foreignObject></g></g><g class="members-group text" transform="translate(-78.25, 30)"></g><g class="methods-group text" transform="translate(-78.25, 60)"></g><g class="divider" style=""><path d="M-90.25 6 C-28.4984051693761 6, 33.2531896612478 6, 90.25 6 M-90.25 6 C-30.20070687025291 6, 29.848586259494184 6, 90.25 6" stroke="#355c7d" stroke-width="1.3" fill="none" stroke-dasharray="0 0" style=""></path></g><g class="divider" style=""><path d="M-90.25 24 C-32.974841886576634 24, 24.300316226846732 24, 90.25 24 M-90.25 24 C-46.665057374700694 24, -3.080114749401389 24, 90.25 24" stroke="#355c7d" stroke-width="1.3" fill="none" stroke-dasharray="0 0" style=""></path></g></g><g class="node default" id="classId-IDocumentSaver-1" transform="translate(219.1796875, 241)"><g class="basic label-container"><path d="M-107.82421875 -75 L107.82421875 -75 L107.82421875 75 L-107.82421875 75" stroke="none" stroke-width="0" fill="#e8f4f8" style=""></path><path d="M-107.82421875 -75 C-43.99363706193771 -75, 19.836944626124577 -75, 107.82421875 -75 M-107.82421875 -75 C-40.03380743928315 -75, 27.756603871433697 -75, 107.82421875 -75 M107.82421875 -75 C107.82421875 -39.01987245740562, 107.82421875 -3.039744914811237, 107.82421875 75 M107.82421875 -75 C107.82421875 -43.43615956884214, 107.82421875 -11.87231913768428, 107.82421875 75 M107.82421875 75 C60.68711793436545 75, 13.550017118730906 75, -107.82421875 75 M107.82421875 75 C49.89545400403437 75, -8.03331074193126 75, -107.82421875 75 M-107.82421875 75 C-107.82421875 25.457092679762006, -107.82421875 -24.085814640475988, -107.82421875 -75 M-107.82421875 75 C-107.82421875 28.900903467627117, -107.82421875 -17.198193064745766, -107.82421875 -75" stroke="#355c7d" stroke-width="1.3" fill="none" stroke-dasharray="0 0" style=""></path></g><g class="annotation-group text" transform="translate(-39.5859375, -51)"><g class="label" style="" transform="translate(0,-12)"><foreignObject width="79.171875" height="24">
<div xmlns="http://www.w3.org/1999/xhtml" data-xmlns="http://www.w3.org/1999/xhtml" style="display: table-cell; white-space: nowrap; line-height: 1.5; max-width: 122px; text-align: center;"><span class="nodeLabel markdown-node-label" style="">«interface»</span></div>
</foreignObject></g></g><g class="label-group text" transform="translate(-63.1328125, -27)"><g class="label" style="font-weight: bolder" transform="translate(0,-12)"><foreignObject width="126.265625" height="24">
<div xmlns="http://www.w3.org/1999/xhtml" data-xmlns="http://www.w3.org/1999/xhtml" style="display: table-cell; white-space: nowrap; line-height: 1.5; max-width: 159px; text-align: center;"><span class="nodeLabel markdown-node-label" style="">IDocumentSaver</span></div>
</foreignObject></g></g><g class="members-group text" transform="translate(-95.82421875, 21)"></g><g class="methods-group text" transform="translate(-95.82421875, 51)"><g class="label" style="" transform="translate(0,-12)"><foreignObject width="128.515625" height="24">
<div xmlns="http://www.w3.org/1999/xhtml" data-xmlns="http://www.w3.org/1999/xhtml" style="display: table-cell; white-space: nowrap; line-height: 1.5; max-width: 169px; text-align: center;"><span class="nodeLabel markdown-node-label" style="">+save(name, doc)</span></div>
</foreignObject></g></g><g class="divider" style=""><path d="M-107.82421875 -3 C-57.57369753102112 -3, -7.323176312042236 -3, 107.82421875 -3 M-107.82421875 -3 C-56.74022848277379 -3, -5.6562382155475746 -3, 107.82421875 -3" stroke="#355c7d" stroke-width="1.3" fill="none" stroke-dasharray="0 0" style=""></path></g><g class="divider" style=""><path d="M-107.82421875 21 C-58.41242018253922 21, -9.000621615078444 21, 107.82421875 21 M-107.82421875 21 C-48.91498777554547 21, 9.99424319890906 21, 107.82421875 21" stroke="#355c7d" stroke-width="1.3" fill="none" stroke-dasharray="0 0" style=""></path></g></g><g class="node default" id="classId-SaveDocumentToPdf-2" transform="translate(99.8671875, 408)"><g class="basic label-container"><path d="M-91.8671875 -42 L91.8671875 -42 L91.8671875 42 L-91.8671875 42" stroke="none" stroke-width="0" fill="#e8f4f8" style=""></path><path d="M-91.8671875 -42 C-29.735980761134982 -42, 32.395225977730036 -42, 91.8671875 -42 M-91.8671875 -42 C-20.244728341925764 -42, 51.37773081614847 -42, 91.8671875 -42 M91.8671875 -42 C91.8671875 -23.600301664216573, 91.8671875 -5.2006033284331465, 91.8671875 42 M91.8671875 -42 C91.8671875 -21.149432889353424, 91.8671875 -0.2988657787068476, 91.8671875 42 M91.8671875 42 C52.48164952200984 42, 13.096111544019678 42, -91.8671875 42 M91.8671875 42 C40.398493117809856 42, -11.070201264380287 42, -91.8671875 42 M-91.8671875 42 C-91.8671875 21.911513446161482, -91.8671875 1.8230268923229644, -91.8671875 -42 M-91.8671875 42 C-91.8671875 13.418172767815555, -91.8671875 -15.16365446436889, -91.8671875 -42" stroke="#355c7d" stroke-width="1.3" fill="none" stroke-dasharray="0 0" style=""></path></g><g class="annotation-group text" transform="translate(0, -18)"></g><g class="label-group text" transform="translate(-79.8671875, -18)"><g class="label" style="font-weight: bolder" transform="translate(0,-12)"><foreignObject width="159.734375" height="24">
<div xmlns="http://www.w3.org/1999/xhtml" data-xmlns="http://www.w3.org/1999/xhtml" style="display: table-cell; white-space: nowrap; line-height: 1.5; max-width: 189px; text-align: center;"><span class="nodeLabel markdown-node-label" style="">SaveDocumentToPdf</span></div>
</foreignObject></g></g><g class="members-group text" transform="translate(-79.8671875, 30)"></g><g class="methods-group text" transform="translate(-79.8671875, 60)"></g><g class="divider" style=""><path d="M-91.8671875 6 C-31.832481122313823 6, 28.202225255372355 6, 91.8671875 6 M-91.8671875 6 C-24.879899389704264 6, 42.10738872059147 6, 91.8671875 6" stroke="#355c7d" stroke-width="1.3" fill="none" stroke-dasharray="0 0" style=""></path></g><g class="divider" style=""><path d="M-91.8671875 24 C-24.422488565622373 24, 43.02221036875525 24, 91.8671875 24 M-91.8671875 24 C-51.136913350702976 24, -10.406639201405952 24, 91.8671875 24" stroke="#355c7d" stroke-width="1.3" fill="none" stroke-dasharray="0 0" style=""></path></g></g><g class="node default" id="classId-SaveDocumentToHtml-3" transform="translate(338.4921875, 408)"><g class="basic label-container"><path d="M-96.7578125 -42 L96.7578125 -42 L96.7578125 42 L-96.7578125 42" stroke="none" stroke-width="0" fill="#e8f4f8" style=""></path><path d="M-96.7578125 -42 C-32.89034879134864 -42, 30.977114917302714 -42, 96.7578125 -42 M-96.7578125 -42 C-44.6172638030349 -42, 7.523284893930196 -42, 96.7578125 -42 M96.7578125 -42 C96.7578125 -12.567422862775857, 96.7578125 16.865154274448287, 96.7578125 42 M96.7578125 -42 C96.7578125 -12.53963095587838, 96.7578125 16.92073808824324, 96.7578125 42 M96.7578125 42 C34.165599929298644 42, -28.426612641402713 42, -96.7578125 42 M96.7578125 42 C31.06434222844055 42, -34.6291280431189 42, -96.7578125 42 M-96.7578125 42 C-96.7578125 13.46961963805672, -96.7578125 -15.06076072388656, -96.7578125 -42 M-96.7578125 42 C-96.7578125 11.104959984769305, -96.7578125 -19.79008003046139, -96.7578125 -42" stroke="#355c7d" stroke-width="1.3" fill="none" stroke-dasharray="0 0" style=""></path></g><g class="annotation-group text" transform="translate(0, -18)"></g><g class="label-group text" transform="translate(-84.7578125, -18)"><g class="label" style="font-weight: bolder" transform="translate(0,-12)"><foreignObject width="169.515625" height="24">
<div xmlns="http://www.w3.org/1999/xhtml" data-xmlns="http://www.w3.org/1999/xhtml" style="display: table-cell; white-space: nowrap; line-height: 1.5; max-width: 198px; text-align: center;"><span class="nodeLabel markdown-node-label" style="">SaveDocumentToHtml</span></div>
</foreignObject></g></g><g class="members-group text" transform="translate(-84.7578125, 30)"></g><g class="methods-group text" transform="translate(-84.7578125, 60)"></g><g class="divider" style=""><path d="M-96.7578125 6 C-24.073687055524275 6, 48.61043838895145 6, 96.7578125 6 M-96.7578125 6 C-43.865538218084666 6, 9.026736063830668 6, 96.7578125 6" stroke="#355c7d" stroke-width="1.3" fill="none" stroke-dasharray="0 0" style=""></path></g><g class="divider" style=""><path d="M-96.7578125 24 C-23.10211134740301 24, 50.55358980519398 24, 96.7578125 24 M-96.7578125 24 C-29.056154492352675 24, 38.64550351529465 24, 96.7578125 24" stroke="#355c7d" stroke-width="1.3" fill="none" stroke-dasharray="0 0" style=""></path></g></g></g></g></g>
</svg>