<?xml version="1.0" encoding="UTF-8"?>
<svg id="mermaid-figure-2"  xmlns="http://www.w3.org/2000/svg" xlink="http://www.w3.org/1999/xlink" class="classDiagram" viewBox="0 0 345.2265625 390" role="graphics-document document" aria-roledescription="class"  preserveAspectRatio="xMidYMid meet" width="345.2265625" height="390">
<style>#mermaid-figure-2{font-family:Helvetica;font-size:16px;fill:#1f2d3d;}@keyframes edge-animation-frame{from{stroke-dashoffset:0;}}@keyframes dash{to{stroke-dashoffset:0;}}#mermaid-figure-2 .edge-animation-slow{stroke-dasharray:9,5!important;stroke-dashoffset:900;animation:dash 50s linear infinite;stroke-linecap:round;}#mermaid-figure-2 .edge-animation-fast{stroke-dasharray:9,5!important;stroke-dashoffset:900;animation:dash 20s linear infinite;stroke-linecap:round;}#mermaid-figure-2 .error-icon{fill:#fff3cd;}#mermaid-figure-2 .error-text{fill:#000c32;stroke:#000c32;}#mermaid-figure-2 .edge-thickness-normal{stroke-width:1px;}#mermaid-figure-2 .edge-thickness-thick{stroke-width:3.5px;}#mermaid-figure-2 .edge-pattern-solid{stroke-dasharray:0;}#mermaid-figure-2 .edge-thickness-invisible{stroke-width:0;fill:none;}#mermaid-figure-2 .edge-pattern-dashed{stroke-dasharray:3;}#mermaid-figure-2 .edge-pattern-dotted{stroke-dasharray:2;}#mermaid-figure-2 .marker{fill:#355c7d;stroke:#355c7d;}#mermaid-figure-2 .marker.cross{stroke:#355c7d;}#mermaid-figure-2 svg{font-family:Helvetica;font-size:16px;}#mermaid-figure-2 p{margin:0;}#mermaid-figure-2 g.classGroup text{fill:#355c7d;stroke:none;font-family:Helvetica;font-size:10px;}#mermaid-figure-2 g.classGroup text .title{font-weight:bolder;}#mermaid-figure-2 .nodeLabel,#mermaid-figure-2 .edgeLabel{color:#1f2d3d;}#mermaid-figure-2 .edgeLabel .label rect{fill:#e8f4f8;}#mermaid-figure-2 .label text{fill:#1f2d3d;}#mermaid-figure-2 .labelBkg{background:#e8f4f8;}#mermaid-figure-2 .edgeLabel .label span{background:#e8f4f8;}#mermaid-figure-2 .classTitle{font-weight:bolder;}#mermaid-figure-2 .node rect,#mermaid-figure-2 .node circle,#mermaid-figure-2 .node ellipse,#mermaid-figure-2 .node polygon,#mermaid-figure-2 .node path{fill:#e8f4f8;stroke:#355c7d;stroke-width:1px;}#mermaid-figure-2 .divider{stroke:#355c7d;stroke-width:1;}#mermaid-figure-2 g.clickable{cursor:pointer;}#mermaid-figure-2 g.classGroup rect{fill:#e8f4f8;stroke:#355c7d;}#mermaid-figure-2 g.classGroup line{stroke:#355c7d;stroke-width:1;}#mermaid-figure-2 .classLabel .box{stroke:none;stroke-width:0;fill:#e8f4f8;opacity:0.5;}#mermaid-figure-2 .classLabel .label{fill:#355c7d;font-size:10px;}#mermaid-figure-2 .relation{stroke:#355c7d;stroke-width:1;fill:none;}#mermaid-figure-2 .dashed-line{stroke-dasharray:3;}#mermaid-figure-2 .dotted-line{stroke-dasharray:1 2;}#mermaid-figure-2 #compositionStart,#mermaid-figure-2 .composition{fill:#355c7d!important;stroke:#355c7d!important;stroke-width:1;}#mermaid-figure-2 #compositionEnd,#mermaid-figure-2 .composition{fill:#355c7d!important;stroke:#355c7d!important;stroke-width:1;}#mermaid-figure-2 #dependencyStart,#mermaid-figure-2 .dependency{fill:#355c7d!important;stroke:#355c7d!important;stroke-width:1;}#mermaid-figure-2 #dependencyStart,#mermaid-figure-2 .dependency{fill:#355c7d!important;stroke:#355c7d!important;stroke-width:1;}#mermaid-figure-2 #extensionStart,#mermaid-figure-2 .extension{fill:transparent!important;stroke:#355c7d!important;stroke-width:1;}#mermaid-figure-2 #extensionEnd,#mermaid-figure-2 .extension{fill:transparent!important;stroke:#355c7d!important;stroke-width:1;}#mermaid-figure-2 #aggregationStart,#mermaid-figure-2 .aggregation{fill:transparent!important;stroke:#355c7d!important;stroke-width:1;}#mermaid-figure-2 #aggregationEnd,#mermaid-figure-2 .aggregation{fill:transparent!important;stroke:#355c7d!important;stroke-width:1;}#mermaid-figure-2 #lollipopStart,#mermaid-figure-2 .lollipop{fill:#e8f4f8!important;stroke:#355c7d!important;stroke-width:1;}#mermaid-figure-2 #lollipopEnd,#mermaid-figure-2 .lollipop{fill:#e8f4f8!important;stroke:#355c7d!important;stroke-width:1;}#mermaid-figure-2 .edgeTerminals{font-size:11px;line-height:initial;}#mermaid-figure-2 .classTitleText{text-anchor:middle;font-size:18px;fill:#1f2d3d;}#mermaid-figure-2 .label-icon{display:inline-block;height:1em;overflow:visible;vertical-align:-0.125em;}#mermaid-figure-2 .node .label-icon path{fill:currentColor;stroke:revert;stroke-width:revert;}#mermaid-figure-2 :root{--mermaid-font-family:"trebuchet ms",verdana,arial,sans-serif;}</style>
<g><defs><marker id="mermaid-figure-2-mermaid-1789392590414_class-aggregationStart" class="marker aggregation class" refx="18" refy="7" markerwidth="190" markerheight="240" orient="auto"><path d="M 18,7 L9,13 L1,7 L9,1 Z"></path></marker></defs><defs><marker id="mermaid-figure-2-mermaid-1789392590414_class-aggregationEnd" class="marker aggregation class" refx="1" refy="7" markerwidth="20" markerheight="28" orient="auto"><path d="M 18,7 L9,13 L1,7 L9,1 Z"></path></marker></defs><defs><marker id="mermaid-figure-2-mermaid-1789392590414_class-extensionStart" class="marker extension class" refx="18" refy="7" markerwidth="190" markerheight="240" orient="auto"><path d="M 1,7 L18,13 V 1 Z"></path></marker></defs><defs><marker id="mermaid-figure-2-mermaid-1789392590414_class-extensionEnd" class="marker extension class" refx="1" refy="7" markerwidth="20" markerheight="28" orient="auto"><path d="M 1,1 V 13 L18,7 Z"></path></marker></defs><defs><marker id="mermaid-figure-2-mermaid-1789392590414_class-compositionStart" class="marker composition class" refx="18" refy="7" markerwidth="190" markerheight="240" orient="auto"><path d="M 18,7 L9,13 L1,7 L9,1 Z"></path></marker></defs><defs><marker id="mermaid-figure-2-mermaid-1789392590414_class-compositionEnd" class="marker composition class" refx="1" refy="7" markerwidth="20" markerheight="28" orient="auto"><path d="M 18,7 L9,13 L1,7 L9,1 Z"></path></marker></defs><defs><marker id="mermaid-figure-2-mermaid-1789392590414_class-dependencyStart" class="marker dependency class" refx="6" refy="7" markerwidth="190" markerheight="240" orient="auto"><path d="M 5,7 L9,13 L1,7 L9,1 Z"></path></marker></defs><defs><marker id="mermaid-figure-2-mermaid-1789392590414_class-dependencyEnd" class="marker dependency class" refx="13" refy="7" markerwidth="20" markerheight="28" orient="auto"><path d="M 18,7 L9,13 L14,7 L9,1 Z"></path></marker></defs><defs><marker id="mermaid-figure-2-mermaid-1789392590414_class-lollipopStart" class="marker lollipop class" refx="13" refy="7" markerwidth="190" markerheight="240" orient="auto"><circle stroke="black" fill="transparent" cx="7" cy="7" r="6"></circle></marker></defs><defs><marker id="mermaid-figure-2-mermaid-1789392590414_class-lollipopEnd" class="marker lollipop class" refx="1" refy="7" markerwidth="190" markerheight="240" orient="auto"><circle stroke="black" fill="transparent" cx="7" cy="7" r="6"></circle></marker></defs><g class="root"><g class="clusters"></g><g class="edgePaths"><path d="M97.884,145.908L93.501,150.09C89.118,154.272,80.352,162.636,75.969,176.985C71.586,191.333,71.586,211.667,71.586,221.833L71.586,232" id="id_Component_Leaf_1" class="edge-thickness-normal edge-pattern-solid relation" style=";;;" data-edge="true" data-et="edge" data-id="id_Component_Leaf_1" data-points="W3sieCI6MTEwLjM2NDM5NDUzMTI1LCJ5IjoxMzR9LHsieCI6NzEuNTg1OTM3NSwieSI6MTcxfSx7IngiOjcxLjU4NTkzNzUsInkiOjIzMn1d" marker-start="url(#mermaid-figure-2-mermaid-1789392590414_class-extensionStart)"></path><path d="M176.393,151.25L176.393,154.542C176.393,157.833,176.393,164.417,180.61,173.875C184.828,183.333,193.263,195.667,197.48,201.833L201.698,208" id="id_Component_Composite_2" class="edge-thickness-normal edge-pattern-solid relation" style=";;;" data-edge="true" data-et="edge" data-id="id_Component_Composite_2" data-points="W3sieCI6MTc2LjM5MjU3ODEyNSwieSI6MTM0fSx7IngiOjE3Ni4zOTI1NzgxMjUsInkiOjE3MX0seyJ4IjoyMDEuNjk3Nzg1NDA4MjY2MTMsInkiOjIwOH1d" marker-start="url(#mermaid-figure-2-mermaid-1789392590414_class-extensionStart)"></path><path d="M278.043,208L279.237,201.833C280.431,195.667,282.819,183.333,278.039,171.677C273.259,160.02,261.311,149.04,255.337,143.55L249.363,138.06" id="id_Composite_Component_3" class="edge-thickness-normal edge-pattern-solid relation" style=";;;" data-edge="true" data-et="edge" data-id="id_Composite_Component_3" data-points="W3sieCI6Mjc4LjA0MzQwOTc3ODIyNTgsInkiOjIwOH0seyJ4IjoyODUuMjA3MDMxMjUsInkiOjE3MX0seyJ4IjoyNDQuOTQ1NjgzNTkzNzUsInkiOjEzNH1d" marker-end="url(#mermaid-figure-2-mermaid-1789392590414_class-dependencyEnd)"></path></g><g class="edgeLabels"><g class="edgeLabel"><g class="label" data-id="id_Component_Leaf_1" transform="translate(0, 0)"><foreignObject width="0" height="0">
<div xmlns="http://www.w3.org/1999/xhtml" class="labelBkg" data-xmlns="http://www.w3.org/1999/xhtml" style="display: table-cell; white-space: nowrap; line-height: 1.5; max-width: 200px; text-align: center;"><span class="edgeLabel"></span></div>
</foreignObject></g></g><g class="edgeLabel"><g class="label" data-id="id_Component_Composite_2" transform="translate(0, 0)"><foreignObject width="0" height="0">
<div xmlns="http://www.w3.org/1999/xhtml" class="labelBkg" data-xmlns="http://www.w3.org/1999/xhtml" style="display: table-cell; white-space: nowrap; line-height: 1.5; max-width: 200px; text-align: center;"><span class="edgeLabel"></span></div>
</foreignObject></g></g><g class="edgeLabel" transform="translate(278.95085, 165.2506)"><g class="label" data-id="id_Composite_Component_3" transform="translate(-28.015625, -12)"><foreignObject width="56.03125" height="24">
<div xmlns="http://www.w3.org/1999/xhtml" class="labelBkg" data-xmlns="http://www.w3.org/1999/xhtml" style="display: table-cell; white-space: nowrap; line-height: 1.5; max-width: 200px; text-align: center;"><span class="edgeLabel">children</span></div>
</foreignObject></g></g></g><g class="nodes"><g class="node default" id="classId-Component-0" transform="translate(176.392578125, 71)"><g class="basic label-container"><path d="M-77.578125 -63 L77.578125 -63 L77.578125 63 L-77.578125 63" stroke="none" stroke-width="0" fill="#e8f4f8" style=""></path><path d="M-77.578125 -63 C-46.38517381764581 -63, -15.192222635291621 -63, 77.578125 -63 M-77.578125 -63 C-20.096321026753962 -63, 37.385482946492075 -63, 77.578125 -63 M77.578125 -63 C77.578125 -35.28584283966188, 77.578125 -7.571685679323764, 77.578125 63 M77.578125 -63 C77.578125 -12.809398094655911, 77.578125 37.38120381068818, 77.578125 63 M77.578125 63 C45.796801025557926 63, 14.015477051115859 63, -77.578125 63 M77.578125 63 C21.867021948239014 63, -33.84408110352197 63, -77.578125 63 M-77.578125 63 C-77.578125 30.54582251910935, -77.578125 -1.9083549617812992, -77.578125 -63 M-77.578125 63 C-77.578125 22.55152304503065, -77.578125 -17.896953909938702, -77.578125 -63" stroke="#355c7d" stroke-width="1.3" fill="none" stroke-dasharray="0 0" style=""></path></g><g class="annotation-group text" transform="translate(0, -39)"></g><g class="label-group text" transform="translate(-44.4375, -39)"><g class="label" style="font-weight: bolder" transform="translate(0,-12)"><foreignObject width="88.875" height="24">
<div xmlns="http://www.w3.org/1999/xhtml" data-xmlns="http://www.w3.org/1999/xhtml" style="display: table-cell; white-space: nowrap; line-height: 1.5; max-width: 125px; text-align: center;"><span class="nodeLabel markdown-node-label" style="">Component</span></div>
</foreignObject></g></g><g class="members-group text" transform="translate(-65.578125, 9)"></g><g class="methods-group text" transform="translate(-65.578125, 39)"><g class="label" style="" transform="translate(0,-12)"><foreignObject width="86.71875" height="24">
<div xmlns="http://www.w3.org/1999/xhtml" data-xmlns="http://www.w3.org/1999/xhtml" style="display: table-cell; white-space: nowrap; line-height: 1.5; max-width: 136px; text-align: center;"><span class="nodeLabel markdown-node-label" style="">+operation()</span></div>
</foreignObject></g></g><g class="divider" style=""><path d="M-77.578125 -15 C-44.175584157330434 -15, -10.773043314660868 -15, 77.578125 -15 M-77.578125 -15 C-37.10253473001303 -15, 3.373055539973933 -15, 77.578125 -15" stroke="#355c7d" stroke-width="1.3" fill="none" stroke-dasharray="0 0" style=""></path></g><g class="divider" style=""><path d="M-77.578125 9 C-26.726896420656203 9, 24.124332158687594 9, 77.578125 9 M-77.578125 9 C-18.083955319385147 9, 41.410214361229706 9, 77.578125 9" stroke="#355c7d" stroke-width="1.3" fill="none" stroke-dasharray="0 0" style=""></path></g></g><g class="node default" id="classId-Leaf-1" transform="translate(71.5859375, 295)"><g class="basic label-container"><path d="M-63.5859375 -63 L63.5859375 -63 L63.5859375 63 L-63.5859375 63" stroke="none" stroke-width="0" fill="#e8f4f8" style=""></path><path d="M-63.5859375 -63 C-34.21035136684749 -63, -4.834765233694981 -63, 63.5859375 -63 M-63.5859375 -63 C-19.749694903622853 -63, 24.086547692754294 -63, 63.5859375 -63 M63.5859375 -63 C63.5859375 -13.091326679103823, 63.5859375 36.817346641792355, 63.5859375 63 M63.5859375 -63 C63.5859375 -15.5851606574507, 63.5859375 31.8296786850986, 63.5859375 63 M63.5859375 63 C25.314283374115618 63, -12.957370751768764 63, -63.5859375 63 M63.5859375 63 C37.01295455701524 63, 10.439971614030483 63, -63.5859375 63 M-63.5859375 63 C-63.5859375 17.73794394046086, -63.5859375 -27.524112119078282, -63.5859375 -63 M-63.5859375 63 C-63.5859375 16.265214548913548, -63.5859375 -30.469570902172904, -63.5859375 -63" stroke="#355c7d" stroke-width="1.3" fill="none" stroke-dasharray="0 0" style=""></path></g><g class="annotation-group text" transform="translate(0, -39)"></g><g class="label-group text" transform="translate(-16.453125, -39)"><g class="label" style="font-weight: bolder" transform="translate(0,-12)"><foreignObject width="32.90625" height="24">
<div xmlns="http://www.w3.org/1999/xhtml" data-xmlns="http://www.w3.org/1999/xhtml" style="display: table-cell; white-space: nowrap; line-height: 1.5; max-width: 83px; text-align: center;"><span class="nodeLabel markdown-node-label" style="">Leaf</span></div>
</foreignObject></g></g><g class="members-group text" transform="translate(-51.5859375, 9)"></g><g class="methods-group text" transform="translate(-51.5859375, 39)"><g class="label" style="" transform="translate(0,-12)"><foreignObject width="86.71875" height="24">
<div xmlns="http://www.w3.org/1999/xhtml" data-xmlns="http://www.w3.org/1999/xhtml" style="display: table-cell; white-space: nowrap; line-height: 1.5; max-width: 136px; text-align: center;"><span class="nodeLabel markdown-node-label" style="">+operation()</span></div>
</foreignObject></g></g><g class="divider" style=""><path d="M-63.5859375 -15 C-14.72986322171451 -15, 34.12621105657098 -15, 63.5859375 -15 M-63.5859375 -15 C-37.23174823916383 -15, -10.877558978327656 -15, 63.5859375 -15" stroke="#355c7d" stroke-width="1.3" fill="none" stroke-dasharray="0 0" style=""></path></g><g class="divider" style=""><path d="M-63.5859375 9 C-14.636467286360165 9, 34.31300292727967 9, 63.5859375 9 M-63.5859375 9 C-17.05060099617905 9, 29.4847355076419 9, 63.5859375 9" stroke="#355c7d" stroke-width="1.3" fill="none" stroke-dasharray="0 0" style=""></path></g></g><g class="node default" id="classId-Composite-2" transform="translate(261.19921875, 295)"><g class="basic label-container"><path d="M-76.02734375 -87 L76.02734375 -87 L76.02734375 87 L-76.02734375 87" stroke="none" stroke-width="0" fill="#e8f4f8" style=""></path><path d="M-76.02734375 -87 C-17.435383587508397 -87, 41.156576574983205 -87, 76.02734375 -87 M-76.02734375 -87 C-28.0455417108439 -87, 19.9362603283122 -87, 76.02734375 -87 M76.02734375 -87 C76.02734375 -20.326615125243492, 76.02734375 46.346769749513015, 76.02734375 87 M76.02734375 -87 C76.02734375 -17.55496867055757, 76.02734375 51.89006265888486, 76.02734375 87 M76.02734375 87 C20.554447643092217 87, -34.918448463815565 87, -76.02734375 87 M76.02734375 87 C24.421364966455727 87, -27.184613817088547 87, -76.02734375 87 M-76.02734375 87 C-76.02734375 47.83271320240134, -76.02734375 8.665426404802673, -76.02734375 -87 M-76.02734375 87 C-76.02734375 39.08862752614698, -76.02734375 -8.822744947706042, -76.02734375 -87" stroke="#355c7d" stroke-width="1.3" fill="none" stroke-dasharray="0 0" style=""></path></g><g class="annotation-group text" transform="translate(0, -63)"></g><g class="label-group text" transform="translate(-41.3359375, -63)"><g class="label" style="font-weight: bolder" transform="translate(0,-12)"><foreignObject width="82.671875" height="24">
<div xmlns="http://www.w3.org/1999/xhtml" data-xmlns="http://www.w3.org/1999/xhtml" style="display: table-cell; white-space: nowrap; line-height: 1.5; max-width: 119px; text-align: center;"><span class="nodeLabel markdown-node-label" style="">Composite</span></div>
</foreignObject></g></g><g class="members-group text" transform="translate(-64.02734375, -15)"></g><g class="methods-group text" transform="translate(-64.02734375, 15)"><g class="label" style="" transform="translate(0,-12)"><foreignObject width="54.703125" height="24">
<div xmlns="http://www.w3.org/1999/xhtml" data-xmlns="http://www.w3.org/1999/xhtml" style="display: table-cell; white-space: nowrap; line-height: 1.5; max-width: 105px; text-align: center;"><span class="nodeLabel markdown-node-label" style="">+add(c)</span></div>
</foreignObject></g><g class="label" style="" transform="translate(0,12)"><foreignObject width="81.359375" height="24">
<div xmlns="http://www.w3.org/1999/xhtml" data-xmlns="http://www.w3.org/1999/xhtml" style="display: table-cell; white-space: nowrap; line-height: 1.5; max-width: 130px; text-align: center;"><span class="nodeLabel markdown-node-label" style="">+remove(c)</span></div>
</foreignObject></g><g class="label" style="" transform="translate(0,36)"><foreignObject width="86.71875" height="24">
<div xmlns="http://www.w3.org/1999/xhtml" data-xmlns="http://www.w3.org/1999/xhtml" style="display: table-cell; white-space: nowrap; line-height: 1.5; max-width: 136px; text-align: center;"><span class="nodeLabel markdown-node-label" style="">+operation()</span></div>
</foreignObject></g></g><g class="divider" style=""><path d="M-76.02734375 -39 C-41.2793792098593 -39, -6.5314146697186 -39, 76.02734375 -39 M-76.02734375 -39 C-19.373940085427996 -39, 37.27946357914401 -39, 76.02734375 -39" stroke="#355c7d" stroke-width="1.3" fill="none" stroke-dasharray="0 0" style=""></path></g><g class="divider" style=""><path d="M-76.02734375 -15 C-30.07870018808056 -15, 15.869943373838879 -15, 76.02734375 -15 M-76.02734375 -15 C-26.443219581312015 -15, 23.14090458737597 -15, 76.02734375 -15" stroke="#355c7d" stroke-width="1.3" fill="none" stroke-dasharray="0 0" style=""></path></g></g></g></g></g>
</svg>