<?xml version="1.0" encoding="UTF-8"?>
<svg id="mermaid-figure-6"  xmlns="http://www.w3.org/2000/svg" xlink="http://www.w3.org/1999/xlink" class="classDiagram" viewBox="0 0 322.984375 258" role="graphics-document document" aria-roledescription="class"  preserveAspectRatio="xMidYMid meet" width="322.984375" height="258">
<style>#mermaid-figure-6{font-family:Helvetica;font-size:16px;fill:#1f2d3d;}@keyframes edge-animation-frame{from{stroke-dashoffset:0;}}@keyframes dash{to{stroke-dashoffset:0;}}#mermaid-figure-6 .edge-animation-slow{stroke-dasharray:9,5!important;stroke-dashoffset:900;animation:dash 50s linear infinite;stroke-linecap:round;}#mermaid-figure-6 .edge-animation-fast{stroke-dasharray:9,5!important;stroke-dashoffset:900;animation:dash 20s linear infinite;stroke-linecap:round;}#mermaid-figure-6 .error-icon{fill:#fff3cd;}#mermaid-figure-6 .error-text{fill:#000c32;stroke:#000c32;}#mermaid-figure-6 .edge-thickness-normal{stroke-width:1px;}#mermaid-figure-6 .edge-thickness-thick{stroke-width:3.5px;}#mermaid-figure-6 .edge-pattern-solid{stroke-dasharray:0;}#mermaid-figure-6 .edge-thickness-invisible{stroke-width:0;fill:none;}#mermaid-figure-6 .edge-pattern-dashed{stroke-dasharray:3;}#mermaid-figure-6 .edge-pattern-dotted{stroke-dasharray:2;}#mermaid-figure-6 .marker{fill:#355c7d;stroke:#355c7d;}#mermaid-figure-6 .marker.cross{stroke:#355c7d;}#mermaid-figure-6 svg{font-family:Helvetica;font-size:16px;}#mermaid-figure-6 p{margin:0;}#mermaid-figure-6 g.classGroup text{fill:#355c7d;stroke:none;font-family:Helvetica;font-size:10px;}#mermaid-figure-6 g.classGroup text .title{font-weight:bolder;}#mermaid-figure-6 .nodeLabel,#mermaid-figure-6 .edgeLabel{color:#1f2d3d;}#mermaid-figure-6 .edgeLabel .label rect{fill:#e8f4f8;}#mermaid-figure-6 .label text{fill:#1f2d3d;}#mermaid-figure-6 .labelBkg{background:#e8f4f8;}#mermaid-figure-6 .edgeLabel .label span{background:#e8f4f8;}#mermaid-figure-6 .classTitle{font-weight:bolder;}#mermaid-figure-6 .node rect,#mermaid-figure-6 .node circle,#mermaid-figure-6 .node ellipse,#mermaid-figure-6 .node polygon,#mermaid-figure-6 .node path{fill:#e8f4f8;stroke:#355c7d;stroke-width:1px;}#mermaid-figure-6 .divider{stroke:#355c7d;stroke-width:1;}#mermaid-figure-6 g.clickable{cursor:pointer;}#mermaid-figure-6 g.classGroup rect{fill:#e8f4f8;stroke:#355c7d;}#mermaid-figure-6 g.classGroup line{stroke:#355c7d;stroke-width:1;}#mermaid-figure-6 .classLabel .box{stroke:none;stroke-width:0;fill:#e8f4f8;opacity:0.5;}#mermaid-figure-6 .classLabel .label{fill:#355c7d;font-size:10px;}#mermaid-figure-6 .relation{stroke:#355c7d;stroke-width:1;fill:none;}#mermaid-figure-6 .dashed-line{stroke-dasharray:3;}#mermaid-figure-6 .dotted-line{stroke-dasharray:1 2;}#mermaid-figure-6 #compositionStart,#mermaid-figure-6 .composition{fill:#355c7d!important;stroke:#355c7d!important;stroke-width:1;}#mermaid-figure-6 #compositionEnd,#mermaid-figure-6 .composition{fill:#355c7d!important;stroke:#355c7d!important;stroke-width:1;}#mermaid-figure-6 #dependencyStart,#mermaid-figure-6 .dependency{fill:#355c7d!important;stroke:#355c7d!important;stroke-width:1;}#mermaid-figure-6 #dependencyStart,#mermaid-figure-6 .dependency{fill:#355c7d!important;stroke:#355c7d!important;stroke-width:1;}#mermaid-figure-6 #extensionStart,#mermaid-figure-6 .extension{fill:transparent!important;stroke:#355c7d!important;stroke-width:1;}#mermaid-figure-6 #extensionEnd,#mermaid-figure-6 .extension{fill:transparent!important;stroke:#355c7d!important;stroke-width:1;}#mermaid-figure-6 #aggregationStart,#mermaid-figure-6 .aggregation{fill:transparent!important;stroke:#355c7d!important;stroke-width:1;}#mermaid-figure-6 #aggregationEnd,#mermaid-figure-6 .aggregation{fill:transparent!important;stroke:#355c7d!important;stroke-width:1;}#mermaid-figure-6 #lollipopStart,#mermaid-figure-6 .lollipop{fill:#e8f4f8!important;stroke:#355c7d!important;stroke-width:1;}#mermaid-figure-6 #lollipopEnd,#mermaid-figure-6 .lollipop{fill:#e8f4f8!important;stroke:#355c7d!important;stroke-width:1;}#mermaid-figure-6 .edgeTerminals{font-size:11px;line-height:initial;}#mermaid-figure-6 .classTitleText{text-anchor:middle;font-size:18px;fill:#1f2d3d;}#mermaid-figure-6 .label-icon{display:inline-block;height:1em;overflow:visible;vertical-align:-0.125em;}#mermaid-figure-6 .node .label-icon path{fill:currentColor;stroke:revert;stroke-width:revert;}#mermaid-figure-6 :root{--mermaid-font-family:"trebuchet ms",verdana,arial,sans-serif;}</style>
<g><defs><marker id="mermaid-figure-6-mermaid-1789394593704_class-aggregationStart" class="marker aggregation class" refx="18" refy="7" markerwidth="190" markerheight="240" orient="auto"><path d="M 18,7 L9,13 L1,7 L9,1 Z"></path></marker></defs><defs><marker id="mermaid-figure-6-mermaid-1789394593704_class-aggregationEnd" class="marker aggregation class" refx="1" refy="7" markerwidth="20" markerheight="28" orient="auto"><path d="M 18,7 L9,13 L1,7 L9,1 Z"></path></marker></defs><defs><marker id="mermaid-figure-6-mermaid-1789394593704_class-extensionStart" class="marker extension class" refx="18" refy="7" markerwidth="190" markerheight="240" orient="auto"><path d="M 1,7 L18,13 V 1 Z"></path></marker></defs><defs><marker id="mermaid-figure-6-mermaid-1789394593704_class-extensionEnd" class="marker extension class" refx="1" refy="7" markerwidth="20" markerheight="28" orient="auto"><path d="M 1,1 V 13 L18,7 Z"></path></marker></defs><defs><marker id="mermaid-figure-6-mermaid-1789394593704_class-compositionStart" class="marker composition class" refx="18" refy="7" markerwidth="190" markerheight="240" orient="auto"><path d="M 18,7 L9,13 L1,7 L9,1 Z"></path></marker></defs><defs><marker id="mermaid-figure-6-mermaid-1789394593704_class-compositionEnd" class="marker composition class" refx="1" refy="7" markerwidth="20" markerheight="28" orient="auto"><path d="M 18,7 L9,13 L1,7 L9,1 Z"></path></marker></defs><defs><marker id="mermaid-figure-6-mermaid-1789394593704_class-dependencyStart" class="marker dependency class" refx="6" refy="7" markerwidth="190" markerheight="240" orient="auto"><path d="M 5,7 L9,13 L1,7 L9,1 Z"></path></marker></defs><defs><marker id="mermaid-figure-6-mermaid-1789394593704_class-dependencyEnd" class="marker dependency class" refx="13" refy="7" markerwidth="20" markerheight="28" orient="auto"><path d="M 18,7 L9,13 L14,7 L9,1 Z"></path></marker></defs><defs><marker id="mermaid-figure-6-mermaid-1789394593704_class-lollipopStart" class="marker lollipop class" refx="13" refy="7" markerwidth="190" markerheight="240" orient="auto"><circle stroke="black" fill="transparent" cx="7" cy="7" r="6"></circle></marker></defs><defs><marker id="mermaid-figure-6-mermaid-1789394593704_class-lollipopEnd" class="marker lollipop class" refx="1" refy="7" markerwidth="190" markerheight="240" orient="auto"><circle stroke="black" fill="transparent" cx="7" cy="7" r="6"></circle></marker></defs><g class="root"><g class="clusters"></g><g class="edgePaths"><path d="M123.48,73.695L113.867,80.913C104.253,88.13,85.025,102.565,75.411,112.949C65.797,123.333,65.797,129.667,65.797,132.833L65.797,136" id="id_Duck_FlyBehavior_1" class="edge-thickness-normal edge-pattern-solid relation" style=";;;" data-edge="true" data-et="edge" data-id="id_Duck_FlyBehavior_1" data-points="W3sieCI6MTIzLjQ4MDQ2ODc1LCJ5Ijo3My42OTUwMTQ2NjI3NTY1OX0seyJ4Ijo2NS43OTY4NzUsInkiOjExN30seyJ4Ijo2NS43OTY4NzUsInkiOjE0Mn1d" marker-end="url(#mermaid-figure-6-mermaid-1789394593704_class-dependencyEnd)"></path><path d="M186.605,73.695L196.219,80.913C205.833,88.13,225.061,102.565,234.675,112.949C244.289,123.333,244.289,129.667,244.289,132.833L244.289,136" id="id_Duck_QuackBehavior_2" class="edge-thickness-normal edge-pattern-solid relation" style=";;;" data-edge="true" data-et="edge" data-id="id_Duck_QuackBehavior_2" data-points="W3sieCI6MTg2LjYwNTQ2ODc1LCJ5Ijo3My42OTUwMTQ2NjI3NTY1OX0seyJ4IjoyNDQuMjg5MDYyNSwieSI6MTE3fSx7IngiOjI0NC4yODkwNjI1LCJ5IjoxNDJ9XQ==" marker-end="url(#mermaid-figure-6-mermaid-1789394593704_class-dependencyEnd)"></path></g><g class="edgeLabels"><g class="edgeLabel"><g class="label" data-id="id_Duck_FlyBehavior_1" transform="translate(0, 0)"><foreignObject width="0" height="0">
<div xmlns="http://www.w3.org/1999/xhtml" class="labelBkg" data-xmlns="http://www.w3.org/1999/xhtml" style="display: table-cell; white-space: nowrap; line-height: 1.5; max-width: 200px; text-align: center;"><span class="edgeLabel"></span></div>
</foreignObject></g></g><g class="edgeLabel"><g class="label" data-id="id_Duck_QuackBehavior_2" transform="translate(0, 0)"><foreignObject width="0" height="0">
<div xmlns="http://www.w3.org/1999/xhtml" class="labelBkg" data-xmlns="http://www.w3.org/1999/xhtml" style="display: table-cell; white-space: nowrap; line-height: 1.5; max-width: 200px; text-align: center;"><span class="edgeLabel"></span></div>
</foreignObject></g></g></g><g class="nodes"><g class="node default" id="classId-Duck-0" transform="translate(155.04296875, 50)"><g class="basic label-container"><path d="M-31.5625 -42 L31.5625 -42 L31.5625 42 L-31.5625 42" stroke="none" stroke-width="0" fill="#e8f4f8" style=""></path><path d="M-31.5625 -42 C-10.315568723044233 -42, 10.931362553911534 -42, 31.5625 -42 M-31.5625 -42 C-10.086835786188672 -42, 11.388828427622656 -42, 31.5625 -42 M31.5625 -42 C31.5625 -10.981564878919936, 31.5625 20.036870242160127, 31.5625 42 M31.5625 -42 C31.5625 -14.505236095139388, 31.5625 12.989527809721224, 31.5625 42 M31.5625 42 C6.415345255130578 42, -18.731809489738843 42, -31.5625 42 M31.5625 42 C14.947531065158383 42, -1.6674378696832335 42, -31.5625 42 M-31.5625 42 C-31.5625 11.709876472206965, -31.5625 -18.58024705558607, -31.5625 -42 M-31.5625 42 C-31.5625 22.771340315013965, -31.5625 3.542680630027931, -31.5625 -42" stroke="#355c7d" stroke-width="1.3" fill="none" stroke-dasharray="0 0" style=""></path></g><g class="annotation-group text" transform="translate(0, -18)"></g><g class="label-group text" transform="translate(-19.5625, -18)"><g class="label" style="font-weight: bolder" transform="translate(0,-12)"><foreignObject width="39.125" height="24">
<div xmlns="http://www.w3.org/1999/xhtml" data-xmlns="http://www.w3.org/1999/xhtml" style="display: table-cell; white-space: nowrap; line-height: 1.5; max-width: 87px; text-align: center;"><span class="nodeLabel markdown-node-label" style="">Duck</span></div>
</foreignObject></g></g><g class="members-group text" transform="translate(-19.5625, 30)"></g><g class="methods-group text" transform="translate(-19.5625, 60)"></g><g class="divider" style=""><path d="M-31.5625 6 C-17.426297455289227 6, -3.2900949105784534 6, 31.5625 6 M-31.5625 6 C-13.886872321436435 6, 3.7887553571271297 6, 31.5625 6" stroke="#355c7d" stroke-width="1.3" fill="none" stroke-dasharray="0 0" style=""></path></g><g class="divider" style=""><path d="M-31.5625 24 C-16.938705594887168 24, -2.314911189774339 24, 31.5625 24 M-31.5625 24 C-18.307521685578664 24, -5.052543371157331 24, 31.5625 24" stroke="#355c7d" stroke-width="1.3" fill="none" stroke-dasharray="0 0" style=""></path></g></g><g class="node default" id="classId-FlyBehavior-1" transform="translate(65.796875, 196)"><g class="basic label-container"><path d="M-57.796875 -54 L57.796875 -54 L57.796875 54 L-57.796875 54" stroke="none" stroke-width="0" fill="#e8f4f8" style=""></path><path d="M-57.796875 -54 C-28.243837564596937 -54, 1.3091998708061254 -54, 57.796875 -54 M-57.796875 -54 C-22.361901343680067 -54, 13.073072312639866 -54, 57.796875 -54 M57.796875 -54 C57.796875 -15.61535815045594, 57.796875 22.76928369908812, 57.796875 54 M57.796875 -54 C57.796875 -12.077945494312715, 57.796875 29.84410901137457, 57.796875 54 M57.796875 54 C34.1162314792994 54, 10.43558795859881 54, -57.796875 54 M57.796875 54 C12.70089873394297 54, -32.39507753211406 54, -57.796875 54 M-57.796875 54 C-57.796875 23.033312447920284, -57.796875 -7.933375104159431, -57.796875 -54 M-57.796875 54 C-57.796875 22.540131034389113, -57.796875 -8.919737931221775, -57.796875 -54" stroke="#355c7d" stroke-width="1.3" fill="none" stroke-dasharray="0 0" style=""></path></g><g class="annotation-group text" transform="translate(-39.5859375, -30)"><g class="label" style="" transform="translate(0,-12)"><foreignObject width="79.171875" height="24">
<div xmlns="http://www.w3.org/1999/xhtml" data-xmlns="http://www.w3.org/1999/xhtml" style="display: table-cell; white-space: nowrap; line-height: 1.5; max-width: 122px; text-align: center;"><span class="nodeLabel markdown-node-label" style="">«interface»</span></div>
</foreignObject></g></g><g class="label-group text" transform="translate(-45.796875, -6)"><g class="label" style="font-weight: bolder" transform="translate(0,-12)"><foreignObject width="91.59375" height="24">
<div xmlns="http://www.w3.org/1999/xhtml" data-xmlns="http://www.w3.org/1999/xhtml" style="display: table-cell; white-space: nowrap; line-height: 1.5; max-width: 132px; text-align: center;"><span class="nodeLabel markdown-node-label" style="">FlyBehavior</span></div>
</foreignObject></g></g><g class="members-group text" transform="translate(-45.796875, 42)"></g><g class="methods-group text" transform="translate(-45.796875, 72)"></g><g class="divider" style=""><path d="M-57.796875 18 C-19.551694603940454 18, 18.69348579211909 18, 57.796875 18 M-57.796875 18 C-32.3041369321772 18, -6.811398864354402 18, 57.796875 18" stroke="#355c7d" stroke-width="1.3" fill="none" stroke-dasharray="0 0" style=""></path></g><g class="divider" style=""><path d="M-57.796875 36 C-16.683909912151748 36, 24.429055175696504 36, 57.796875 36 M-57.796875 36 C-28.292137821623424 36, 1.2125993567531523 36, 57.796875 36" stroke="#355c7d" stroke-width="1.3" fill="none" stroke-dasharray="0 0" style=""></path></g></g><g class="node default" id="classId-QuackBehavior-2" transform="translate(244.2890625, 196)"><g class="basic label-container"><path d="M-70.6953125 -54 L70.6953125 -54 L70.6953125 54 L-70.6953125 54" stroke="none" stroke-width="0" fill="#e8f4f8" style=""></path><path d="M-70.6953125 -54 C-28.675606696607666 -54, 13.344099106784668 -54, 70.6953125 -54 M-70.6953125 -54 C-14.372685844277157 -54, 41.949940811445686 -54, 70.6953125 -54 M70.6953125 -54 C70.6953125 -29.000480378777183, 70.6953125 -4.000960757554367, 70.6953125 54 M70.6953125 -54 C70.6953125 -31.41983775057056, 70.6953125 -8.839675501141123, 70.6953125 54 M70.6953125 54 C35.762637063490786 54, 0.8299616269815715 54, -70.6953125 54 M70.6953125 54 C26.913567629348755 54, -16.86817724130249 54, -70.6953125 54 M-70.6953125 54 C-70.6953125 29.565128966138648, -70.6953125 5.130257932277296, -70.6953125 -54 M-70.6953125 54 C-70.6953125 28.10633666313285, -70.6953125 2.2126733262657012, -70.6953125 -54" stroke="#355c7d" stroke-width="1.3" fill="none" stroke-dasharray="0 0" style=""></path></g><g class="annotation-group text" transform="translate(-39.5859375, -30)"><g class="label" style="" transform="translate(0,-12)"><foreignObject width="79.171875" height="24">
<div xmlns="http://www.w3.org/1999/xhtml" data-xmlns="http://www.w3.org/1999/xhtml" style="display: table-cell; white-space: nowrap; line-height: 1.5; max-width: 122px; text-align: center;"><span class="nodeLabel markdown-node-label" style="">«interface»</span></div>
</foreignObject></g></g><g class="label-group text" transform="translate(-58.6953125, -6)"><g class="label" style="font-weight: bolder" transform="translate(0,-12)"><foreignObject width="117.390625" height="24">
<div xmlns="http://www.w3.org/1999/xhtml" data-xmlns="http://www.w3.org/1999/xhtml" style="display: table-cell; white-space: nowrap; line-height: 1.5; max-width: 151px; text-align: center;"><span class="nodeLabel markdown-node-label" style="">QuackBehavior</span></div>
</foreignObject></g></g><g class="members-group text" transform="translate(-58.6953125, 42)"></g><g class="methods-group text" transform="translate(-58.6953125, 72)"></g><g class="divider" style=""><path d="M-70.6953125 18 C-31.035436136025815 18, 8.62444022794837 18, 70.6953125 18 M-70.6953125 18 C-18.514210176637675 18, 33.66689214672465 18, 70.6953125 18" stroke="#355c7d" stroke-width="1.3" fill="none" stroke-dasharray="0 0" style=""></path></g><g class="divider" style=""><path d="M-70.6953125 36 C-21.42112817073854 36, 27.853056158522918 36, 70.6953125 36 M-70.6953125 36 C-19.294607066990366 36, 32.10609836601927 36, 70.6953125 36" stroke="#355c7d" stroke-width="1.3" fill="none" stroke-dasharray="0 0" style=""></path></g></g></g></g></g>
</svg>