<?xml version="1.0" encoding="UTF-8"?>
<svg id="mermaid-figure-3"  xmlns="http://www.w3.org/2000/svg" xlink="http://www.w3.org/1999/xlink" class="classDiagram" viewBox="0 0 184.9375 434" role="graphics-document document" aria-roledescription="class"  preserveAspectRatio="xMidYMid meet" width="184.9375" height="434">
<style>#mermaid-figure-3{font-family:Helvetica;font-size:16px;fill:#1f2d3d;}@keyframes edge-animation-frame{from{stroke-dashoffset:0;}}@keyframes dash{to{stroke-dashoffset:0;}}#mermaid-figure-3 .edge-animation-slow{stroke-dasharray:9,5!important;stroke-dashoffset:900;animation:dash 50s linear infinite;stroke-linecap:round;}#mermaid-figure-3 .edge-animation-fast{stroke-dasharray:9,5!important;stroke-dashoffset:900;animation:dash 20s linear infinite;stroke-linecap:round;}#mermaid-figure-3 .error-icon{fill:#fff3cd;}#mermaid-figure-3 .error-text{fill:#000c32;stroke:#000c32;}#mermaid-figure-3 .edge-thickness-normal{stroke-width:1px;}#mermaid-figure-3 .edge-thickness-thick{stroke-width:3.5px;}#mermaid-figure-3 .edge-pattern-solid{stroke-dasharray:0;}#mermaid-figure-3 .edge-thickness-invisible{stroke-width:0;fill:none;}#mermaid-figure-3 .edge-pattern-dashed{stroke-dasharray:3;}#mermaid-figure-3 .edge-pattern-dotted{stroke-dasharray:2;}#mermaid-figure-3 .marker{fill:#355c7d;stroke:#355c7d;}#mermaid-figure-3 .marker.cross{stroke:#355c7d;}#mermaid-figure-3 svg{font-family:Helvetica;font-size:16px;}#mermaid-figure-3 p{margin:0;}#mermaid-figure-3 g.classGroup text{fill:#355c7d;stroke:none;font-family:Helvetica;font-size:10px;}#mermaid-figure-3 g.classGroup text .title{font-weight:bolder;}#mermaid-figure-3 .nodeLabel,#mermaid-figure-3 .edgeLabel{color:#1f2d3d;}#mermaid-figure-3 .edgeLabel .label rect{fill:#e8f4f8;}#mermaid-figure-3 .label text{fill:#1f2d3d;}#mermaid-figure-3 .labelBkg{background:#e8f4f8;}#mermaid-figure-3 .edgeLabel .label span{background:#e8f4f8;}#mermaid-figure-3 .classTitle{font-weight:bolder;}#mermaid-figure-3 .node rect,#mermaid-figure-3 .node circle,#mermaid-figure-3 .node ellipse,#mermaid-figure-3 .node polygon,#mermaid-figure-3 .node path{fill:#e8f4f8;stroke:#355c7d;stroke-width:1px;}#mermaid-figure-3 .divider{stroke:#355c7d;stroke-width:1;}#mermaid-figure-3 g.clickable{cursor:pointer;}#mermaid-figure-3 g.classGroup rect{fill:#e8f4f8;stroke:#355c7d;}#mermaid-figure-3 g.classGroup line{stroke:#355c7d;stroke-width:1;}#mermaid-figure-3 .classLabel .box{stroke:none;stroke-width:0;fill:#e8f4f8;opacity:0.5;}#mermaid-figure-3 .classLabel .label{fill:#355c7d;font-size:10px;}#mermaid-figure-3 .relation{stroke:#355c7d;stroke-width:1;fill:none;}#mermaid-figure-3 .dashed-line{stroke-dasharray:3;}#mermaid-figure-3 .dotted-line{stroke-dasharray:1 2;}#mermaid-figure-3 #compositionStart,#mermaid-figure-3 .composition{fill:#355c7d!important;stroke:#355c7d!important;stroke-width:1;}#mermaid-figure-3 #compositionEnd,#mermaid-figure-3 .composition{fill:#355c7d!important;stroke:#355c7d!important;stroke-width:1;}#mermaid-figure-3 #dependencyStart,#mermaid-figure-3 .dependency{fill:#355c7d!important;stroke:#355c7d!important;stroke-width:1;}#mermaid-figure-3 #dependencyStart,#mermaid-figure-3 .dependency{fill:#355c7d!important;stroke:#355c7d!important;stroke-width:1;}#mermaid-figure-3 #extensionStart,#mermaid-figure-3 .extension{fill:transparent!important;stroke:#355c7d!important;stroke-width:1;}#mermaid-figure-3 #extensionEnd,#mermaid-figure-3 .extension{fill:transparent!important;stroke:#355c7d!important;stroke-width:1;}#mermaid-figure-3 #aggregationStart,#mermaid-figure-3 .aggregation{fill:transparent!important;stroke:#355c7d!important;stroke-width:1;}#mermaid-figure-3 #aggregationEnd,#mermaid-figure-3 .aggregation{fill:transparent!important;stroke:#355c7d!important;stroke-width:1;}#mermaid-figure-3 #lollipopStart,#mermaid-figure-3 .lollipop{fill:#e8f4f8!important;stroke:#355c7d!important;stroke-width:1;}#mermaid-figure-3 #lollipopEnd,#mermaid-figure-3 .lollipop{fill:#e8f4f8!important;stroke:#355c7d!important;stroke-width:1;}#mermaid-figure-3 .edgeTerminals{font-size:11px;line-height:initial;}#mermaid-figure-3 .classTitleText{text-anchor:middle;font-size:18px;fill:#1f2d3d;}#mermaid-figure-3 .label-icon{display:inline-block;height:1em;overflow:visible;vertical-align:-0.125em;}#mermaid-figure-3 .node .label-icon path{fill:currentColor;stroke:revert;stroke-width:revert;}#mermaid-figure-3 :root{--mermaid-font-family:"trebuchet ms",verdana,arial,sans-serif;}</style>
<g><defs><marker id="mermaid-figure-3-mermaid-1789394561040_class-aggregationStart" class="marker aggregation class" refx="18" refy="7" markerwidth="190" markerheight="240" orient="auto"><path d="M 18,7 L9,13 L1,7 L9,1 Z"></path></marker></defs><defs><marker id="mermaid-figure-3-mermaid-1789394561040_class-aggregationEnd" class="marker aggregation class" refx="1" refy="7" markerwidth="20" markerheight="28" orient="auto"><path d="M 18,7 L9,13 L1,7 L9,1 Z"></path></marker></defs><defs><marker id="mermaid-figure-3-mermaid-1789394561040_class-extensionStart" class="marker extension class" refx="18" refy="7" markerwidth="190" markerheight="240" orient="auto"><path d="M 1,7 L18,13 V 1 Z"></path></marker></defs><defs><marker id="mermaid-figure-3-mermaid-1789394561040_class-extensionEnd" class="marker extension class" refx="1" refy="7" markerwidth="20" markerheight="28" orient="auto"><path d="M 1,1 V 13 L18,7 Z"></path></marker></defs><defs><marker id="mermaid-figure-3-mermaid-1789394561040_class-compositionStart" class="marker composition class" refx="18" refy="7" markerwidth="190" markerheight="240" orient="auto"><path d="M 18,7 L9,13 L1,7 L9,1 Z"></path></marker></defs><defs><marker id="mermaid-figure-3-mermaid-1789394561040_class-compositionEnd" class="marker composition class" refx="1" refy="7" markerwidth="20" markerheight="28" orient="auto"><path d="M 18,7 L9,13 L1,7 L9,1 Z"></path></marker></defs><defs><marker id="mermaid-figure-3-mermaid-1789394561040_class-dependencyStart" class="marker dependency class" refx="6" refy="7" markerwidth="190" markerheight="240" orient="auto"><path d="M 5,7 L9,13 L1,7 L9,1 Z"></path></marker></defs><defs><marker id="mermaid-figure-3-mermaid-1789394561040_class-dependencyEnd" class="marker dependency class" refx="13" refy="7" markerwidth="20" markerheight="28" orient="auto"><path d="M 18,7 L9,13 L14,7 L9,1 Z"></path></marker></defs><defs><marker id="mermaid-figure-3-mermaid-1789394561040_class-lollipopStart" class="marker lollipop class" refx="13" refy="7" markerwidth="190" markerheight="240" orient="auto"><circle stroke="black" fill="transparent" cx="7" cy="7" r="6"></circle></marker></defs><defs><marker id="mermaid-figure-3-mermaid-1789394561040_class-lollipopEnd" class="marker lollipop class" refx="1" refy="7" markerwidth="190" markerheight="240" orient="auto"><circle stroke="black" fill="transparent" cx="7" cy="7" r="6"></circle></marker></defs><g class="root"><g class="clusters"></g><g class="edgePaths"><path d="M92.469,175.25L92.469,176.542C92.469,177.833,92.469,180.417,92.469,185.875C92.469,191.333,92.469,199.667,92.469,203.833L92.469,208" id="id_Prototype_ConcretePrototype_1" class="edge-thickness-normal edge-pattern-dashed relation" style=";;;" data-edge="true" data-et="edge" data-id="id_Prototype_ConcretePrototype_1" data-points="W3sieCI6OTIuNDY4NzUsInkiOjE1OH0seyJ4Ijo5Mi40Njg3NSwieSI6MTgzfSx7IngiOjkyLjQ2ODc1LCJ5IjoyMDh9XQ==" marker-start="url(#mermaid-figure-3-mermaid-1789394561040_class-extensionStart)"></path><path d="M92.469,309.25L92.469,310.542C92.469,311.833,92.469,314.417,92.469,319.875C92.469,325.333,92.469,333.667,92.469,337.833L92.469,342" id="id_ConcretePrototype_SubclassPrototype_2" class="edge-thickness-normal edge-pattern-solid relation" style=";;;" data-edge="true" data-et="edge" data-id="id_ConcretePrototype_SubclassPrototype_2" data-points="W3sieCI6OTIuNDY4NzUsInkiOjI5Mn0seyJ4Ijo5Mi40Njg3NSwieSI6MzE3fSx7IngiOjkyLjQ2ODc1LCJ5IjozNDJ9XQ==" marker-start="url(#mermaid-figure-3-mermaid-1789394561040_class-extensionStart)"></path></g><g class="edgeLabels"><g class="edgeLabel"><g class="label" data-id="id_Prototype_ConcretePrototype_1" transform="translate(0, 0)"><foreignObject width="0" height="0">
<div xmlns="http://www.w3.org/1999/xhtml" class="labelBkg" data-xmlns="http://www.w3.org/1999/xhtml" style="display: table-cell; white-space: nowrap; line-height: 1.5; max-width: 200px; text-align: center;"><span class="edgeLabel"></span></div>
</foreignObject></g></g><g class="edgeLabel"><g class="label" data-id="id_ConcretePrototype_SubclassPrototype_2" transform="translate(0, 0)"><foreignObject width="0" height="0">
<div xmlns="http://www.w3.org/1999/xhtml" class="labelBkg" data-xmlns="http://www.w3.org/1999/xhtml" style="display: table-cell; white-space: nowrap; line-height: 1.5; max-width: 200px; text-align: center;"><span class="edgeLabel"></span></div>
</foreignObject></g></g></g><g class="nodes"><g class="node default" id="classId-Prototype-0" transform="translate(92.46875, 83)"><g class="basic label-container"><path d="M-60.91796875 -75 L60.91796875 -75 L60.91796875 75 L-60.91796875 75" stroke="none" stroke-width="0" fill="#e8f4f8" style=""></path><path d="M-60.91796875 -75 C-28.04707975156046 -75, 4.82380924687908 -75, 60.91796875 -75 M-60.91796875 -75 C-30.140201043578873 -75, 0.6375666628422536 -75, 60.91796875 -75 M60.91796875 -75 C60.91796875 -21.373040557511153, 60.91796875 32.25391888497769, 60.91796875 75 M60.91796875 -75 C60.91796875 -37.0942962869376, 60.91796875 0.8114074261248021, 60.91796875 75 M60.91796875 75 C14.996107666481336 75, -30.925753417037328 75, -60.91796875 75 M60.91796875 75 C20.671003178564902 75, -19.575962392870196 75, -60.91796875 75 M-60.91796875 75 C-60.91796875 15.975134920512566, -60.91796875 -43.04973015897487, -60.91796875 -75 M-60.91796875 75 C-60.91796875 20.110806843256213, -60.91796875 -34.77838631348757, -60.91796875 -75" stroke="#355c7d" stroke-width="1.3" fill="none" stroke-dasharray="0 0" style=""></path></g><g class="annotation-group text" transform="translate(-39.5859375, -51)"><g class="label" style="" transform="translate(0,-12)"><foreignObject width="79.171875" height="24">
<div xmlns="http://www.w3.org/1999/xhtml" data-xmlns="http://www.w3.org/1999/xhtml" style="display: table-cell; white-space: nowrap; line-height: 1.5; max-width: 122px; text-align: center;"><span class="nodeLabel markdown-node-label" style="">«interface»</span></div>
</foreignObject></g></g><g class="label-group text" transform="translate(-37.3359375, -27)"><g class="label" style="font-weight: bolder" transform="translate(0,-12)"><foreignObject width="74.671875" height="24">
<div xmlns="http://www.w3.org/1999/xhtml" data-xmlns="http://www.w3.org/1999/xhtml" style="display: table-cell; white-space: nowrap; line-height: 1.5; max-width: 113px; text-align: center;"><span class="nodeLabel markdown-node-label" style="">Prototype</span></div>
</foreignObject></g></g><g class="members-group text" transform="translate(-48.91796875, 21)"></g><g class="methods-group text" transform="translate(-48.91796875, 51)"><g class="label" style="" transform="translate(0,-12)"><foreignObject width="58.25" height="24">
<div xmlns="http://www.w3.org/1999/xhtml" data-xmlns="http://www.w3.org/1999/xhtml" style="display: table-cell; white-space: nowrap; line-height: 1.5; max-width: 110px; text-align: center;"><span class="nodeLabel markdown-node-label" style="">+clone()</span></div>
</foreignObject></g></g><g class="divider" style=""><path d="M-60.91796875 -3 C-13.796168557125817 -3, 33.325631635748366 -3, 60.91796875 -3 M-60.91796875 -3 C-30.086883879744363 -3, 0.7442009905112741 -3, 60.91796875 -3" stroke="#355c7d" stroke-width="1.3" fill="none" stroke-dasharray="0 0" style=""></path></g><g class="divider" style=""><path d="M-60.91796875 21 C-33.28453549349246 21, -5.651102236984926 21, 60.91796875 21 M-60.91796875 21 C-25.182896637799814 21, 10.552175474400372 21, 60.91796875 21" stroke="#355c7d" stroke-width="1.3" fill="none" stroke-dasharray="0 0" style=""></path></g></g><g class="node default" id="classId-ConcretePrototype-1" transform="translate(92.46875, 250)"><g class="basic label-container"><path d="M-84.015625 -42 L84.015625 -42 L84.015625 42 L-84.015625 42" stroke="none" stroke-width="0" fill="#e8f4f8" style=""></path><path d="M-84.015625 -42 C-25.574079491305262 -42, 32.867466017389475 -42, 84.015625 -42 M-84.015625 -42 C-29.201618807980452 -42, 25.612387384039096 -42, 84.015625 -42 M84.015625 -42 C84.015625 -20.538519553173472, 84.015625 0.9229608936530553, 84.015625 42 M84.015625 -42 C84.015625 -18.157129442080123, 84.015625 5.685741115839754, 84.015625 42 M84.015625 42 C28.541625564684196 42, -26.932373870631608 42, -84.015625 42 M84.015625 42 C22.32561148440893 42, -39.36440203118214 42, -84.015625 42 M-84.015625 42 C-84.015625 15.216060319594732, -84.015625 -11.567879360810537, -84.015625 -42 M-84.015625 42 C-84.015625 23.97684316040531, -84.015625 5.953686320810618, -84.015625 -42" stroke="#355c7d" stroke-width="1.3" fill="none" stroke-dasharray="0 0" style=""></path></g><g class="annotation-group text" transform="translate(0, -18)"></g><g class="label-group text" transform="translate(-72.015625, -18)"><g class="label" style="font-weight: bolder" transform="translate(0,-12)"><foreignObject width="144.03125" height="24">
<div xmlns="http://www.w3.org/1999/xhtml" data-xmlns="http://www.w3.org/1999/xhtml" style="display: table-cell; white-space: nowrap; line-height: 1.5; max-width: 170px; text-align: center;"><span class="nodeLabel markdown-node-label" style="">ConcretePrototype</span></div>
</foreignObject></g></g><g class="members-group text" transform="translate(-72.015625, 30)"></g><g class="methods-group text" transform="translate(-72.015625, 60)"></g><g class="divider" style=""><path d="M-84.015625 6 C-38.23701551383826 6, 7.541593972323483 6, 84.015625 6 M-84.015625 6 C-46.46886756777114 6, -8.922110135542283 6, 84.015625 6" stroke="#355c7d" stroke-width="1.3" fill="none" stroke-dasharray="0 0" style=""></path></g><g class="divider" style=""><path d="M-84.015625 24 C-50.06930893141456 24, -16.122992862829122 24, 84.015625 24 M-84.015625 24 C-22.61339473232737 24, 38.78883553534526 24, 84.015625 24" stroke="#355c7d" stroke-width="1.3" fill="none" stroke-dasharray="0 0" style=""></path></g></g><g class="node default" id="classId-SubclassPrototype-2" transform="translate(92.46875, 384)"><g class="basic label-container"><path d="M-84.46875 -42 L84.46875 -42 L84.46875 42 L-84.46875 42" stroke="none" stroke-width="0" fill="#e8f4f8" style=""></path><path d="M-84.46875 -42 C-31.42858962081897 -42, 21.611570758362063 -42, 84.46875 -42 M-84.46875 -42 C-34.54361248313373 -42, 15.381525033732544 -42, 84.46875 -42 M84.46875 -42 C84.46875 -9.39010499423987, 84.46875 23.21979001152026, 84.46875 42 M84.46875 -42 C84.46875 -17.230826306903953, 84.46875 7.538347386192093, 84.46875 42 M84.46875 42 C50.22412512685395 42, 15.979500253707897 42, -84.46875 42 M84.46875 42 C28.883229125204444 42, -26.70229174959111 42, -84.46875 42 M-84.46875 42 C-84.46875 15.314668502974119, -84.46875 -11.370662994051763, -84.46875 -42 M-84.46875 42 C-84.46875 12.013696083975553, -84.46875 -17.972607832048894, -84.46875 -42" stroke="#355c7d" stroke-width="1.3" fill="none" stroke-dasharray="0 0" style=""></path></g><g class="annotation-group text" transform="translate(0, -18)"></g><g class="label-group text" transform="translate(-72.46875, -18)"><g class="label" style="font-weight: bolder" transform="translate(0,-12)"><foreignObject width="144.9375" height="24">
<div xmlns="http://www.w3.org/1999/xhtml" data-xmlns="http://www.w3.org/1999/xhtml" style="display: table-cell; white-space: nowrap; line-height: 1.5; max-width: 168px; text-align: center;"><span class="nodeLabel markdown-node-label" style="">SubclassPrototype</span></div>
</foreignObject></g></g><g class="members-group text" transform="translate(-72.46875, 30)"></g><g class="methods-group text" transform="translate(-72.46875, 60)"></g><g class="divider" style=""><path d="M-84.46875 6 C-29.322034611401428 6, 25.824680777197145 6, 84.46875 6 M-84.46875 6 C-22.27568767477726 6, 39.91737465044548 6, 84.46875 6" stroke="#355c7d" stroke-width="1.3" fill="none" stroke-dasharray="0 0" style=""></path></g><g class="divider" style=""><path d="M-84.46875 24 C-50.2645611785417 24, -16.060372357083395 24, 84.46875 24 M-84.46875 24 C-40.99547862722837 24, 2.4777927455432547 24, 84.46875 24" stroke="#355c7d" stroke-width="1.3" fill="none" stroke-dasharray="0 0" style=""></path></g></g></g></g></g>
</svg>