<?xml version="1.0" encoding="UTF-8"?>
<svg id="mermaid-figure-4"  xmlns="http://www.w3.org/2000/svg" xlink="http://www.w3.org/1999/xlink" class="classDiagram" viewBox="0 0 508.796875 518" role="graphics-document document" aria-roledescription="class"  preserveAspectRatio="xMidYMid meet" width="508.796875" height="518">
<style>#mermaid-figure-4{font-family:Helvetica;font-size:16px;fill:#1f2d3d;}@keyframes edge-animation-frame{from{stroke-dashoffset:0;}}@keyframes dash{to{stroke-dashoffset:0;}}#mermaid-figure-4 .edge-animation-slow{stroke-dasharray:9,5!important;stroke-dashoffset:900;animation:dash 50s linear infinite;stroke-linecap:round;}#mermaid-figure-4 .edge-animation-fast{stroke-dasharray:9,5!important;stroke-dashoffset:900;animation:dash 20s linear infinite;stroke-linecap:round;}#mermaid-figure-4 .error-icon{fill:#fff3cd;}#mermaid-figure-4 .error-text{fill:#000c32;stroke:#000c32;}#mermaid-figure-4 .edge-thickness-normal{stroke-width:1px;}#mermaid-figure-4 .edge-thickness-thick{stroke-width:3.5px;}#mermaid-figure-4 .edge-pattern-solid{stroke-dasharray:0;}#mermaid-figure-4 .edge-thickness-invisible{stroke-width:0;fill:none;}#mermaid-figure-4 .edge-pattern-dashed{stroke-dasharray:3;}#mermaid-figure-4 .edge-pattern-dotted{stroke-dasharray:2;}#mermaid-figure-4 .marker{fill:#355c7d;stroke:#355c7d;}#mermaid-figure-4 .marker.cross{stroke:#355c7d;}#mermaid-figure-4 svg{font-family:Helvetica;font-size:16px;}#mermaid-figure-4 p{margin:0;}#mermaid-figure-4 g.classGroup text{fill:#355c7d;stroke:none;font-family:Helvetica;font-size:10px;}#mermaid-figure-4 g.classGroup text .title{font-weight:bolder;}#mermaid-figure-4 .nodeLabel,#mermaid-figure-4 .edgeLabel{color:#1f2d3d;}#mermaid-figure-4 .edgeLabel .label rect{fill:#e8f4f8;}#mermaid-figure-4 .label text{fill:#1f2d3d;}#mermaid-figure-4 .labelBkg{background:#e8f4f8;}#mermaid-figure-4 .edgeLabel .label span{background:#e8f4f8;}#mermaid-figure-4 .classTitle{font-weight:bolder;}#mermaid-figure-4 .node rect,#mermaid-figure-4 .node circle,#mermaid-figure-4 .node ellipse,#mermaid-figure-4 .node polygon,#mermaid-figure-4 .node path{fill:#e8f4f8;stroke:#355c7d;stroke-width:1px;}#mermaid-figure-4 .divider{stroke:#355c7d;stroke-width:1;}#mermaid-figure-4 g.clickable{cursor:pointer;}#mermaid-figure-4 g.classGroup rect{fill:#e8f4f8;stroke:#355c7d;}#mermaid-figure-4 g.classGroup line{stroke:#355c7d;stroke-width:1;}#mermaid-figure-4 .classLabel .box{stroke:none;stroke-width:0;fill:#e8f4f8;opacity:0.5;}#mermaid-figure-4 .classLabel .label{fill:#355c7d;font-size:10px;}#mermaid-figure-4 .relation{stroke:#355c7d;stroke-width:1;fill:none;}#mermaid-figure-4 .dashed-line{stroke-dasharray:3;}#mermaid-figure-4 .dotted-line{stroke-dasharray:1 2;}#mermaid-figure-4 #compositionStart,#mermaid-figure-4 .composition{fill:#355c7d!important;stroke:#355c7d!important;stroke-width:1;}#mermaid-figure-4 #compositionEnd,#mermaid-figure-4 .composition{fill:#355c7d!important;stroke:#355c7d!important;stroke-width:1;}#mermaid-figure-4 #dependencyStart,#mermaid-figure-4 .dependency{fill:#355c7d!important;stroke:#355c7d!important;stroke-width:1;}#mermaid-figure-4 #dependencyStart,#mermaid-figure-4 .dependency{fill:#355c7d!important;stroke:#355c7d!important;stroke-width:1;}#mermaid-figure-4 #extensionStart,#mermaid-figure-4 .extension{fill:transparent!important;stroke:#355c7d!important;stroke-width:1;}#mermaid-figure-4 #extensionEnd,#mermaid-figure-4 .extension{fill:transparent!important;stroke:#355c7d!important;stroke-width:1;}#mermaid-figure-4 #aggregationStart,#mermaid-figure-4 .aggregation{fill:transparent!important;stroke:#355c7d!important;stroke-width:1;}#mermaid-figure-4 #aggregationEnd,#mermaid-figure-4 .aggregation{fill:transparent!important;stroke:#355c7d!important;stroke-width:1;}#mermaid-figure-4 #lollipopStart,#mermaid-figure-4 .lollipop{fill:#e8f4f8!important;stroke:#355c7d!important;stroke-width:1;}#mermaid-figure-4 #lollipopEnd,#mermaid-figure-4 .lollipop{fill:#e8f4f8!important;stroke:#355c7d!important;stroke-width:1;}#mermaid-figure-4 .edgeTerminals{font-size:11px;line-height:initial;}#mermaid-figure-4 .classTitleText{text-anchor:middle;font-size:18px;fill:#1f2d3d;}#mermaid-figure-4 .label-icon{display:inline-block;height:1em;overflow:visible;vertical-align:-0.125em;}#mermaid-figure-4 .node .label-icon path{fill:currentColor;stroke:revert;stroke-width:revert;}#mermaid-figure-4 :root{--mermaid-font-family:"trebuchet ms",verdana,arial,sans-serif;}</style>
<g><defs><marker id="mermaid-figure-4-mermaid-1789392451221_class-aggregationStart" class="marker aggregation class" refx="18" refy="7" markerwidth="190" markerheight="240" orient="auto"><path d="M 18,7 L9,13 L1,7 L9,1 Z"></path></marker></defs><defs><marker id="mermaid-figure-4-mermaid-1789392451221_class-aggregationEnd" class="marker aggregation class" refx="1" refy="7" markerwidth="20" markerheight="28" orient="auto"><path d="M 18,7 L9,13 L1,7 L9,1 Z"></path></marker></defs><defs><marker id="mermaid-figure-4-mermaid-1789392451221_class-extensionStart" class="marker extension class" refx="18" refy="7" markerwidth="190" markerheight="240" orient="auto"><path d="M 1,7 L18,13 V 1 Z"></path></marker></defs><defs><marker id="mermaid-figure-4-mermaid-1789392451221_class-extensionEnd" class="marker extension class" refx="1" refy="7" markerwidth="20" markerheight="28" orient="auto"><path d="M 1,1 V 13 L18,7 Z"></path></marker></defs><defs><marker id="mermaid-figure-4-mermaid-1789392451221_class-compositionStart" class="marker composition class" refx="18" refy="7" markerwidth="190" markerheight="240" orient="auto"><path d="M 18,7 L9,13 L1,7 L9,1 Z"></path></marker></defs><defs><marker id="mermaid-figure-4-mermaid-1789392451221_class-compositionEnd" class="marker composition class" refx="1" refy="7" markerwidth="20" markerheight="28" orient="auto"><path d="M 18,7 L9,13 L1,7 L9,1 Z"></path></marker></defs><defs><marker id="mermaid-figure-4-mermaid-1789392451221_class-dependencyStart" class="marker dependency class" refx="6" refy="7" markerwidth="190" markerheight="240" orient="auto"><path d="M 5,7 L9,13 L1,7 L9,1 Z"></path></marker></defs><defs><marker id="mermaid-figure-4-mermaid-1789392451221_class-dependencyEnd" class="marker dependency class" refx="13" refy="7" markerwidth="20" markerheight="28" orient="auto"><path d="M 18,7 L9,13 L14,7 L9,1 Z"></path></marker></defs><defs><marker id="mermaid-figure-4-mermaid-1789392451221_class-lollipopStart" class="marker lollipop class" refx="13" refy="7" markerwidth="190" markerheight="240" orient="auto"><circle stroke="black" fill="transparent" cx="7" cy="7" r="6"></circle></marker></defs><defs><marker id="mermaid-figure-4-mermaid-1789392451221_class-lollipopEnd" class="marker lollipop class" refx="1" refy="7" markerwidth="190" markerheight="240" orient="auto"><circle stroke="black" fill="transparent" cx="7" cy="7" r="6"></circle></marker></defs><g class="root"><g class="clusters"></g><g class="edgePaths"><path d="M214.844,66.899L197.932,75.249C181.02,83.599,147.195,100.3,130.283,111.816C113.371,123.333,113.371,129.667,113.371,132.833L113.371,136" id="id_Client_Invoker_1" class="edge-thickness-normal edge-pattern-solid relation" style=";;;" data-edge="true" data-et="edge" data-id="id_Client_Invoker_1" data-points="W3sieCI6MjE0Ljg0Mzc1LCJ5Ijo2Ni44OTg5ODk2MDgyMjEzMX0seyJ4IjoxMTMuMzcxMDkzNzUsInkiOjExN30seyJ4IjoxMTMuMzcxMDkzNzUsInkiOjE0Mn1d" marker-end="url(#mermaid-figure-4-mermaid-1789392451221_class-dependencyEnd)"></path><path d="M283.297,66.899L300.209,75.249C317.121,83.599,350.945,100.3,367.857,111.816C384.77,123.333,384.77,129.667,384.77,132.833L384.77,136" id="id_Client_ConcreteCommand_2" class="edge-thickness-normal edge-pattern-solid relation" style=";;;" data-edge="true" data-et="edge" data-id="id_Client_ConcreteCommand_2" data-points="W3sieCI6MjgzLjI5Njg3NSwieSI6NjYuODk4OTg5NjA4MjIxMzF9LHsieCI6Mzg0Ljc2OTUzMTI1LCJ5IjoxMTd9LHsieCI6Mzg0Ljc2OTUzMTI1LCJ5IjoxNDJ9XQ==" marker-end="url(#mermaid-figure-4-mermaid-1789392451221_class-dependencyEnd)"></path><path d="M287.9,310L283.095,314.167C278.29,318.333,268.68,326.667,255.209,337.22C241.738,347.772,224.406,360.545,215.74,366.931L207.074,373.317" id="id_ConcreteCommand_Command_3" class="edge-thickness-normal edge-pattern-dashed relation" style=";;;" data-edge="true" data-et="edge" data-id="id_ConcreteCommand_Command_3" data-points="W3sieCI6Mjg3LjkwMDQwODU0MzU3OCwieSI6MzEwfSx7IngiOjI1OS4wNzAzMTI1LCJ5IjozMzV9LHsieCI6MTkzLjE4NzUsInkiOjM4My41NTA2MjAzNDAyNTE2fV0=" marker-end="url(#mermaid-figure-4-mermaid-1789392451221_class-extensionEnd)"></path><path d="M113.371,310L113.371,314.167C113.371,318.333,113.371,326.667,113.688,334.005C114.005,341.343,114.64,347.687,114.957,350.858L115.274,354.03" id="id_Invoker_Command_4" class="edge-thickness-normal edge-pattern-solid relation" style=";;;" data-edge="true" data-et="edge" data-id="id_Invoker_Command_4" data-points="W3sieCI6MTEzLjM3MTA5Mzc1LCJ5IjozMTB9LHsieCI6MTEzLjM3MTA5Mzc1LCJ5IjozMzV9LHsieCI6MTE1Ljg3MTA5Mzc1LCJ5IjozNjB9XQ==" marker-end="url(#mermaid-figure-4-mermaid-1789392451221_class-dependencyEnd)"></path><path d="M392.476,310L392.858,314.167C393.24,318.333,394.005,326.667,394.387,336C394.77,345.333,394.77,355.667,394.77,360.833L394.77,366" id="id_ConcreteCommand_Receiver_5" class="edge-thickness-normal edge-pattern-solid relation" style=";;;" data-edge="true" data-et="edge" data-id="id_ConcreteCommand_Receiver_5" data-points="W3sieCI6MzkyLjQ3NTk1MzI2ODM0ODYzLCJ5IjozMTB9LHsieCI6Mzk0Ljc2OTUzMTI1LCJ5IjozMzV9LHsieCI6Mzk0Ljc2OTUzMTI1LCJ5IjozNzJ9XQ==" marker-end="url(#mermaid-figure-4-mermaid-1789392451221_class-dependencyEnd)"></path></g><g class="edgeLabels"><g class="edgeLabel"><g class="label" data-id="id_Client_Invoker_1" transform="translate(0, 0)"><foreignObject width="0" height="0">
<div xmlns="http://www.w3.org/1999/xhtml" class="labelBkg" data-xmlns="http://www.w3.org/1999/xhtml" style="display: table-cell; white-space: nowrap; line-height: 1.5; max-width: 200px; text-align: center;"><span class="edgeLabel"></span></div>
</foreignObject></g></g><g class="edgeLabel"><g class="label" data-id="id_Client_ConcreteCommand_2" transform="translate(0, 0)"><foreignObject width="0" height="0">
<div xmlns="http://www.w3.org/1999/xhtml" class="labelBkg" data-xmlns="http://www.w3.org/1999/xhtml" style="display: table-cell; white-space: nowrap; line-height: 1.5; max-width: 200px; text-align: center;"><span class="edgeLabel"></span></div>
</foreignObject></g></g><g class="edgeLabel"><g class="label" data-id="id_ConcreteCommand_Command_3" transform="translate(0, 0)"><foreignObject width="0" height="0">
<div xmlns="http://www.w3.org/1999/xhtml" class="labelBkg" data-xmlns="http://www.w3.org/1999/xhtml" style="display: table-cell; white-space: nowrap; line-height: 1.5; max-width: 200px; text-align: center;"><span class="edgeLabel"></span></div>
</foreignObject></g></g><g class="edgeLabel"><g class="label" data-id="id_Invoker_Command_4" transform="translate(0, 0)"><foreignObject width="0" height="0">
<div xmlns="http://www.w3.org/1999/xhtml" class="labelBkg" data-xmlns="http://www.w3.org/1999/xhtml" style="display: table-cell; white-space: nowrap; line-height: 1.5; max-width: 200px; text-align: center;"><span class="edgeLabel"></span></div>
</foreignObject></g></g><g class="edgeLabel"><g class="label" data-id="id_ConcreteCommand_Receiver_5" transform="translate(0, 0)"><foreignObject width="0" height="0">
<div xmlns="http://www.w3.org/1999/xhtml" class="labelBkg" data-xmlns="http://www.w3.org/1999/xhtml" style="display: table-cell; white-space: nowrap; line-height: 1.5; max-width: 200px; text-align: center;"><span class="edgeLabel"></span></div>
</foreignObject></g></g></g><g class="nodes"><g class="node default" id="classId-Client-0" transform="translate(249.0703125, 50)"><g class="basic label-container"><path d="M-34.2265625 -42 L34.2265625 -42 L34.2265625 42 L-34.2265625 42" stroke="none" stroke-width="0" fill="#e8f4f8" style=""></path><path d="M-34.2265625 -42 C-10.486250675139289 -42, 13.254061149721423 -42, 34.2265625 -42 M-34.2265625 -42 C-13.576886143209887 -42, 7.072790213580227 -42, 34.2265625 -42 M34.2265625 -42 C34.2265625 -10.443128741657134, 34.2265625 21.113742516685733, 34.2265625 42 M34.2265625 -42 C34.2265625 -20.0310109052473, 34.2265625 1.937978189505401, 34.2265625 42 M34.2265625 42 C19.751761240749005 42, 5.276959981498006 42, -34.2265625 42 M34.2265625 42 C7.362256181240969 42, -19.50205013751806 42, -34.2265625 42 M-34.2265625 42 C-34.2265625 23.317193009878455, -34.2265625 4.63438601975691, -34.2265625 -42 M-34.2265625 42 C-34.2265625 16.49839192899829, -34.2265625 -9.003216142003417, -34.2265625 -42" stroke="#355c7d" stroke-width="1.3" fill="none" stroke-dasharray="0 0" style=""></path></g><g class="annotation-group text" transform="translate(0, -18)"></g><g class="label-group text" transform="translate(-22.2265625, -18)"><g class="label" style="font-weight: bolder" transform="translate(0,-12)"><foreignObject width="44.453125" height="24">
<div xmlns="http://www.w3.org/1999/xhtml" data-xmlns="http://www.w3.org/1999/xhtml" style="display: table-cell; white-space: nowrap; line-height: 1.5; max-width: 90px; text-align: center;"><span class="nodeLabel markdown-node-label" style="">Client</span></div>
</foreignObject></g></g><g class="members-group text" transform="translate(-22.2265625, 30)"></g><g class="methods-group text" transform="translate(-22.2265625, 60)"></g><g class="divider" style=""><path d="M-34.2265625 6 C-13.510629766400843 6, 7.205302967198314 6, 34.2265625 6 M-34.2265625 6 C-14.961881523079288 6, 4.302799453841423 6, 34.2265625 6" stroke="#355c7d" stroke-width="1.3" fill="none" stroke-dasharray="0 0" style=""></path></g><g class="divider" style=""><path d="M-34.2265625 24 C-13.014812725701276 24, 8.196937048597448 24, 34.2265625 24 M-34.2265625 24 C-7.833508295732752 24, 18.559545908534496 24, 34.2265625 24" stroke="#355c7d" stroke-width="1.3" fill="none" stroke-dasharray="0 0" style=""></path></g></g><g class="node default" id="classId-Invoker-1" transform="translate(113.37109375, 226)"><g class="basic label-container"><path d="M-105.37109375 -84 L105.37109375 -84 L105.37109375 84 L-105.37109375 84" stroke="none" stroke-width="0" fill="#e8f4f8" style=""></path><path d="M-105.37109375 -84 C-58.16886691038805 -84, -10.966640070776094 -84, 105.37109375 -84 M-105.37109375 -84 C-50.367418259449174 -84, 4.636257231101652 -84, 105.37109375 -84 M105.37109375 -84 C105.37109375 -29.422066563999273, 105.37109375 25.155866872001454, 105.37109375 84 M105.37109375 -84 C105.37109375 -42.1904261429512, 105.37109375 -0.3808522859024066, 105.37109375 84 M105.37109375 84 C42.93871300731904 84, -19.493667735361925 84, -105.37109375 84 M105.37109375 84 C62.37242180787351 84, 19.373749865747016 84, -105.37109375 84 M-105.37109375 84 C-105.37109375 28.579131857743768, -105.37109375 -26.841736284512464, -105.37109375 -84 M-105.37109375 84 C-105.37109375 40.76102965845652, -105.37109375 -2.477940683086956, -105.37109375 -84" stroke="#355c7d" stroke-width="1.3" fill="none" stroke-dasharray="0 0" style=""></path></g><g class="annotation-group text" transform="translate(0, -60)"></g><g class="label-group text" transform="translate(-28.4609375, -60)"><g class="label" style="font-weight: bolder" transform="translate(0,-12)"><foreignObject width="56.921875" height="24">
<div xmlns="http://www.w3.org/1999/xhtml" data-xmlns="http://www.w3.org/1999/xhtml" style="display: table-cell; white-space: nowrap; line-height: 1.5; max-width: 100px; text-align: center;"><span class="nodeLabel markdown-node-label" style="">Invoker</span></div>
</foreignObject></g></g><g class="members-group text" transform="translate(-93.37109375, -12)"><g class="label" style="" transform="translate(0,-12)"><foreignObject width="158.28125" height="24">
<div xmlns="http://www.w3.org/1999/xhtml" data-xmlns="http://www.w3.org/1999/xhtml" style="display: table-cell; white-space: nowrap; line-height: 1.5; max-width: 200px; text-align: center;"><span class="nodeLabel markdown-node-label" style="">-command: Command</span></div>
</foreignObject></g></g><g class="methods-group text" transform="translate(-93.37109375, 36)"><g class="label" style="" transform="translate(0,-12)"><foreignObject width="123.15625" height="24">
<div xmlns="http://www.w3.org/1999/xhtml" data-xmlns="http://www.w3.org/1999/xhtml" style="display: table-cell; white-space: nowrap; line-height: 1.5; max-width: 167px; text-align: center;"><span class="nodeLabel markdown-node-label" style="">+setCommand(c)</span></div>
</foreignObject></g><g class="label" style="" transform="translate(0,12)"><foreignObject width="65.359375" height="24">
<div xmlns="http://www.w3.org/1999/xhtml" data-xmlns="http://www.w3.org/1999/xhtml" style="display: table-cell; white-space: nowrap; line-height: 1.5; max-width: 118px; text-align: center;"><span class="nodeLabel markdown-node-label" style="">+trigger()</span></div>
</foreignObject></g></g><g class="divider" style=""><path d="M-105.37109375 -36 C-32.378752534027285 -36, 40.61358868194543 -36, 105.37109375 -36 M-105.37109375 -36 C-34.75673246538625 -36, 35.8576288192275 -36, 105.37109375 -36" stroke="#355c7d" stroke-width="1.3" fill="none" stroke-dasharray="0 0" style=""></path></g><g class="divider" style=""><path d="M-105.37109375 12 C-26.574486789108462 12, 52.222120171783075 12, 105.37109375 12 M-105.37109375 12 C-44.0430939822633 12, 17.2849057854734 12, 105.37109375 12" stroke="#355c7d" stroke-width="1.3" fill="none" stroke-dasharray="0 0" style=""></path></g></g><g class="node default" id="classId-Command-2" transform="translate(123.37109375, 435)"><g class="basic label-container"><path d="M-69.81640625 -75 L69.81640625 -75 L69.81640625 75 L-69.81640625 75" stroke="none" stroke-width="0" fill="#e8f4f8" style=""></path><path d="M-69.81640625 -75 C-31.7094933222589 -75, 6.397419605482199 -75, 69.81640625 -75 M-69.81640625 -75 C-31.91781256232816 -75, 5.9807811253436824 -75, 69.81640625 -75 M69.81640625 -75 C69.81640625 -29.405527432327453, 69.81640625 16.188945135345094, 69.81640625 75 M69.81640625 -75 C69.81640625 -30.87240049510757, 69.81640625 13.25519900978486, 69.81640625 75 M69.81640625 75 C19.19787303027124 75, -31.42066018945752 75, -69.81640625 75 M69.81640625 75 C27.47557306048251 75, -14.86526012903498 75, -69.81640625 75 M-69.81640625 75 C-69.81640625 33.89168513637054, -69.81640625 -7.216629727258919, -69.81640625 -75 M-69.81640625 75 C-69.81640625 28.349088154959503, -69.81640625 -18.301823690080994, -69.81640625 -75" stroke="#355c7d" stroke-width="1.3" fill="none" stroke-dasharray="0 0" style=""></path></g><g class="annotation-group text" transform="translate(-39.5859375, -51)"><g class="label" style="" transform="translate(0,-12)"><foreignObject width="79.171875" height="24">
<div xmlns="http://www.w3.org/1999/xhtml" data-xmlns="http://www.w3.org/1999/xhtml" style="display: table-cell; white-space: nowrap; line-height: 1.5; max-width: 122px; text-align: center;"><span class="nodeLabel markdown-node-label" style="">«interface»</span></div>
</foreignObject></g></g><g class="label-group text" transform="translate(-39.1171875, -27)"><g class="label" style="font-weight: bolder" transform="translate(0,-12)"><foreignObject width="78.234375" height="24">
<div xmlns="http://www.w3.org/1999/xhtml" data-xmlns="http://www.w3.org/1999/xhtml" style="display: table-cell; white-space: nowrap; line-height: 1.5; max-width: 118px; text-align: center;"><span class="nodeLabel markdown-node-label" style="">Command</span></div>
</foreignObject></g></g><g class="members-group text" transform="translate(-57.81640625, 21)"></g><g class="methods-group text" transform="translate(-57.81640625, 51)"><g class="label" style="" transform="translate(0,-12)"><foreignObject width="76.046875" height="24">
<div xmlns="http://www.w3.org/1999/xhtml" data-xmlns="http://www.w3.org/1999/xhtml" style="display: table-cell; white-space: nowrap; line-height: 1.5; max-width: 124px; text-align: center;"><span class="nodeLabel markdown-node-label" style="">+execute()</span></div>
</foreignObject></g></g><g class="divider" style=""><path d="M-69.81640625 -3 C-23.027381344888944 -3, 23.76164356022211 -3, 69.81640625 -3 M-69.81640625 -3 C-32.41580489145987 -3, 4.984796467080258 -3, 69.81640625 -3" stroke="#355c7d" stroke-width="1.3" fill="none" stroke-dasharray="0 0" style=""></path></g><g class="divider" style=""><path d="M-69.81640625 21 C-15.810723244068676 21, 38.19495976186265 21, 69.81640625 21 M-69.81640625 21 C-41.134118750177194 21, -12.451831250354381 21, 69.81640625 21" stroke="#355c7d" stroke-width="1.3" fill="none" stroke-dasharray="0 0" style=""></path></g></g><g class="node default" id="classId-ConcreteCommand-3" transform="translate(384.76953125, 226)"><g class="basic label-container"><path d="M-116.02734375 -84 L116.02734375 -84 L116.02734375 84 L-116.02734375 84" stroke="none" stroke-width="0" fill="#e8f4f8" style=""></path><path d="M-116.02734375 -84 C-30.739380520655303 -84, 54.548582708689395 -84, 116.02734375 -84 M-116.02734375 -84 C-65.71645759008892 -84, -15.405571430177844 -84, 116.02734375 -84 M116.02734375 -84 C116.02734375 -45.20314388900591, 116.02734375 -6.406287778011816, 116.02734375 84 M116.02734375 -84 C116.02734375 -43.93434125574736, 116.02734375 -3.8686825114947254, 116.02734375 84 M116.02734375 84 C37.819912860129875 84, -40.38751802974025 84, -116.02734375 84 M116.02734375 84 C62.25221615108175 84, 8.477088552163494 84, -116.02734375 84 M-116.02734375 84 C-116.02734375 34.545939326755686, -116.02734375 -14.908121346488628, -116.02734375 -84 M-116.02734375 84 C-116.02734375 42.38773969584419, -116.02734375 0.7754793916883784, -116.02734375 -84" stroke="#355c7d" stroke-width="1.3" fill="none" stroke-dasharray="0 0" style=""></path></g><g class="annotation-group text" transform="translate(0, -60)"></g><g class="label-group text" transform="translate(-73.7890625, -60)"><g class="label" style="font-weight: bolder" transform="translate(0,-12)"><foreignObject width="147.578125" height="24">
<div xmlns="http://www.w3.org/1999/xhtml" data-xmlns="http://www.w3.org/1999/xhtml" style="display: table-cell; white-space: nowrap; line-height: 1.5; max-width: 175px; text-align: center;"><span class="nodeLabel markdown-node-label" style="">ConcreteCommand</span></div>
</foreignObject></g></g><g class="members-group text" transform="translate(-104.02734375, -12)"><g class="label" style="" transform="translate(0,-12)"><foreignObject width="134.265625" height="24">
<div xmlns="http://www.w3.org/1999/xhtml" data-xmlns="http://www.w3.org/1999/xhtml" style="display: table-cell; white-space: nowrap; line-height: 1.5; max-width: 178px; text-align: center;"><span class="nodeLabel markdown-node-label" style="">-receiver: Receiver</span></div>
</foreignObject></g><g class="label" style="" transform="translate(0,12)"><foreignObject width="58.6875" height="24">
<div xmlns="http://www.w3.org/1999/xhtml" data-xmlns="http://www.w3.org/1999/xhtml" style="display: table-cell; white-space: nowrap; line-height: 1.5; max-width: 107px; text-align: center;"><span class="nodeLabel markdown-node-label" style="">-params</span></div>
</foreignObject></g></g><g class="methods-group text" transform="translate(-104.02734375, 60)"><g class="label" style="" transform="translate(0,-12)"><foreignObject width="76.046875" height="24">
<div xmlns="http://www.w3.org/1999/xhtml" data-xmlns="http://www.w3.org/1999/xhtml" style="display: table-cell; white-space: nowrap; line-height: 1.5; max-width: 124px; text-align: center;"><span class="nodeLabel markdown-node-label" style="">+execute()</span></div>
</foreignObject></g></g><g class="divider" style=""><path d="M-116.02734375 -36 C-42.08264781415558 -36, 31.862048121688844 -36, 116.02734375 -36 M-116.02734375 -36 C-69.37274928433649 -36, -22.718154818672986 -36, 116.02734375 -36" stroke="#355c7d" stroke-width="1.3" fill="none" stroke-dasharray="0 0" style=""></path></g><g class="divider" style=""><path d="M-116.02734375 36 C-66.06590544754029 36, -16.104467145080577 36, 116.02734375 36 M-116.02734375 36 C-56.60413223668465 36, 2.8190792766307027 36, 116.02734375 36" stroke="#355c7d" stroke-width="1.3" fill="none" stroke-dasharray="0 0" style=""></path></g></g><g class="node default" id="classId-Receiver-4" transform="translate(394.76953125, 435)"><g class="basic label-container"><path d="M-98.71875 -63 L98.71875 -63 L98.71875 63 L-98.71875 63" stroke="none" stroke-width="0" fill="#e8f4f8" style=""></path><path d="M-98.71875 -63 C-41.49579536247932 -63, 15.727159275041359 -63, 98.71875 -63 M-98.71875 -63 C-49.97519374533123 -63, -1.2316374906624645 -63, 98.71875 -63 M98.71875 -63 C98.71875 -16.870824556306545, 98.71875 29.25835088738691, 98.71875 63 M98.71875 -63 C98.71875 -23.290344962174103, 98.71875 16.419310075651794, 98.71875 63 M98.71875 63 C35.50303606040414 63, -27.712677879191716 63, -98.71875 63 M98.71875 63 C30.21945771120882 63, -38.27983457758236 63, -98.71875 63 M-98.71875 63 C-98.71875 15.952762086409408, -98.71875 -31.094475827181185, -98.71875 -63 M-98.71875 63 C-98.71875 19.93531018147987, -98.71875 -23.12937963704026, -98.71875 -63" stroke="#355c7d" stroke-width="1.3" fill="none" stroke-dasharray="0 0" style=""></path></g><g class="annotation-group text" transform="translate(0, -39)"></g><g class="label-group text" transform="translate(-33.359375, -39)"><g class="label" style="font-weight: bolder" transform="translate(0,-12)"><foreignObject width="66.71875" height="24">
<div xmlns="http://www.w3.org/1999/xhtml" data-xmlns="http://www.w3.org/1999/xhtml" style="display: table-cell; white-space: nowrap; line-height: 1.5; max-width: 109px; text-align: center;"><span class="nodeLabel markdown-node-label" style="">Receiver</span></div>
</foreignObject></g></g><g class="members-group text" transform="translate(-86.71875, 9)"></g><g class="methods-group text" transform="translate(-86.71875, 39)"><g class="label" style="" transform="translate(0,-12)"><foreignObject width="140.078125" height="24">
<div xmlns="http://www.w3.org/1999/xhtml" data-xmlns="http://www.w3.org/1999/xhtml" style="display: table-cell; white-space: nowrap; line-height: 1.5; max-width: 182px; text-align: center;"><span class="nodeLabel markdown-node-label" style="">+operation(params)</span></div>
</foreignObject></g></g><g class="divider" style=""><path d="M-98.71875 -15 C-28.241654471081077 -15, 42.235441057837846 -15, 98.71875 -15 M-98.71875 -15 C-20.273697828477637 -15, 58.171354343044726 -15, 98.71875 -15" stroke="#355c7d" stroke-width="1.3" fill="none" stroke-dasharray="0 0" style=""></path></g><g class="divider" style=""><path d="M-98.71875 9 C-52.44510546477696 9, -6.171460929553916 9, 98.71875 9 M-98.71875 9 C-43.84688739141755 9, 11.024975217164894 9, 98.71875 9" stroke="#355c7d" stroke-width="1.3" fill="none" stroke-dasharray="0 0" style=""></path></g></g></g></g></g>
</svg>