<?xml version="1.0" encoding="UTF-8"?>
<svg id="mermaid-figure-2"  xmlns="http://www.w3.org/2000/svg" xlink="http://www.w3.org/1999/xlink" class="classDiagram" viewBox="0 0 443.25 458" role="graphics-document document" aria-roledescription="class"  preserveAspectRatio="xMidYMid meet" width="443.25" height="458">
<style>#mermaid-figure-2{font-family:Helvetica;font-size:16px;fill:#1f2d3d;}@keyframes edge-animation-frame{from{stroke-dashoffset:0;}}@keyframes dash{to{stroke-dashoffset:0;}}#mermaid-figure-2 .edge-animation-slow{stroke-dasharray:9,5!important;stroke-dashoffset:900;animation:dash 50s linear infinite;stroke-linecap:round;}#mermaid-figure-2 .edge-animation-fast{stroke-dasharray:9,5!important;stroke-dashoffset:900;animation:dash 20s linear infinite;stroke-linecap:round;}#mermaid-figure-2 .error-icon{fill:#fff3cd;}#mermaid-figure-2 .error-text{fill:#000c32;stroke:#000c32;}#mermaid-figure-2 .edge-thickness-normal{stroke-width:1px;}#mermaid-figure-2 .edge-thickness-thick{stroke-width:3.5px;}#mermaid-figure-2 .edge-pattern-solid{stroke-dasharray:0;}#mermaid-figure-2 .edge-thickness-invisible{stroke-width:0;fill:none;}#mermaid-figure-2 .edge-pattern-dashed{stroke-dasharray:3;}#mermaid-figure-2 .edge-pattern-dotted{stroke-dasharray:2;}#mermaid-figure-2 .marker{fill:#355c7d;stroke:#355c7d;}#mermaid-figure-2 .marker.cross{stroke:#355c7d;}#mermaid-figure-2 svg{font-family:Helvetica;font-size:16px;}#mermaid-figure-2 p{margin:0;}#mermaid-figure-2 g.classGroup text{fill:#355c7d;stroke:none;font-family:Helvetica;font-size:10px;}#mermaid-figure-2 g.classGroup text .title{font-weight:bolder;}#mermaid-figure-2 .nodeLabel,#mermaid-figure-2 .edgeLabel{color:#1f2d3d;}#mermaid-figure-2 .edgeLabel .label rect{fill:#e8f4f8;}#mermaid-figure-2 .label text{fill:#1f2d3d;}#mermaid-figure-2 .labelBkg{background:#e8f4f8;}#mermaid-figure-2 .edgeLabel .label span{background:#e8f4f8;}#mermaid-figure-2 .classTitle{font-weight:bolder;}#mermaid-figure-2 .node rect,#mermaid-figure-2 .node circle,#mermaid-figure-2 .node ellipse,#mermaid-figure-2 .node polygon,#mermaid-figure-2 .node path{fill:#e8f4f8;stroke:#355c7d;stroke-width:1px;}#mermaid-figure-2 .divider{stroke:#355c7d;stroke-width:1;}#mermaid-figure-2 g.clickable{cursor:pointer;}#mermaid-figure-2 g.classGroup rect{fill:#e8f4f8;stroke:#355c7d;}#mermaid-figure-2 g.classGroup line{stroke:#355c7d;stroke-width:1;}#mermaid-figure-2 .classLabel .box{stroke:none;stroke-width:0;fill:#e8f4f8;opacity:0.5;}#mermaid-figure-2 .classLabel .label{fill:#355c7d;font-size:10px;}#mermaid-figure-2 .relation{stroke:#355c7d;stroke-width:1;fill:none;}#mermaid-figure-2 .dashed-line{stroke-dasharray:3;}#mermaid-figure-2 .dotted-line{stroke-dasharray:1 2;}#mermaid-figure-2 #compositionStart,#mermaid-figure-2 .composition{fill:#355c7d!important;stroke:#355c7d!important;stroke-width:1;}#mermaid-figure-2 #compositionEnd,#mermaid-figure-2 .composition{fill:#355c7d!important;stroke:#355c7d!important;stroke-width:1;}#mermaid-figure-2 #dependencyStart,#mermaid-figure-2 .dependency{fill:#355c7d!important;stroke:#355c7d!important;stroke-width:1;}#mermaid-figure-2 #dependencyStart,#mermaid-figure-2 .dependency{fill:#355c7d!important;stroke:#355c7d!important;stroke-width:1;}#mermaid-figure-2 #extensionStart,#mermaid-figure-2 .extension{fill:transparent!important;stroke:#355c7d!important;stroke-width:1;}#mermaid-figure-2 #extensionEnd,#mermaid-figure-2 .extension{fill:transparent!important;stroke:#355c7d!important;stroke-width:1;}#mermaid-figure-2 #aggregationStart,#mermaid-figure-2 .aggregation{fill:transparent!important;stroke:#355c7d!important;stroke-width:1;}#mermaid-figure-2 #aggregationEnd,#mermaid-figure-2 .aggregation{fill:transparent!important;stroke:#355c7d!important;stroke-width:1;}#mermaid-figure-2 #lollipopStart,#mermaid-figure-2 .lollipop{fill:#e8f4f8!important;stroke:#355c7d!important;stroke-width:1;}#mermaid-figure-2 #lollipopEnd,#mermaid-figure-2 .lollipop{fill:#e8f4f8!important;stroke:#355c7d!important;stroke-width:1;}#mermaid-figure-2 .edgeTerminals{font-size:11px;line-height:initial;}#mermaid-figure-2 .classTitleText{text-anchor:middle;font-size:18px;fill:#1f2d3d;}#mermaid-figure-2 .label-icon{display:inline-block;height:1em;overflow:visible;vertical-align:-0.125em;}#mermaid-figure-2 .node .label-icon path{fill:currentColor;stroke:revert;stroke-width:revert;}#mermaid-figure-2 :root{--mermaid-font-family:"trebuchet ms",verdana,arial,sans-serif;}</style>
<g><defs><marker id="mermaid-figure-2-mermaid-1789386071051_class-aggregationStart" class="marker aggregation class" refx="18" refy="7" markerwidth="190" markerheight="240" orient="auto"><path d="M 18,7 L9,13 L1,7 L9,1 Z"></path></marker></defs><defs><marker id="mermaid-figure-2-mermaid-1789386071051_class-aggregationEnd" class="marker aggregation class" refx="1" refy="7" markerwidth="20" markerheight="28" orient="auto"><path d="M 18,7 L9,13 L1,7 L9,1 Z"></path></marker></defs><defs><marker id="mermaid-figure-2-mermaid-1789386071051_class-extensionStart" class="marker extension class" refx="18" refy="7" markerwidth="190" markerheight="240" orient="auto"><path d="M 1,7 L18,13 V 1 Z"></path></marker></defs><defs><marker id="mermaid-figure-2-mermaid-1789386071051_class-extensionEnd" class="marker extension class" refx="1" refy="7" markerwidth="20" markerheight="28" orient="auto"><path d="M 1,1 V 13 L18,7 Z"></path></marker></defs><defs><marker id="mermaid-figure-2-mermaid-1789386071051_class-compositionStart" class="marker composition class" refx="18" refy="7" markerwidth="190" markerheight="240" orient="auto"><path d="M 18,7 L9,13 L1,7 L9,1 Z"></path></marker></defs><defs><marker id="mermaid-figure-2-mermaid-1789386071051_class-compositionEnd" class="marker composition class" refx="1" refy="7" markerwidth="20" markerheight="28" orient="auto"><path d="M 18,7 L9,13 L1,7 L9,1 Z"></path></marker></defs><defs><marker id="mermaid-figure-2-mermaid-1789386071051_class-dependencyStart" class="marker dependency class" refx="6" refy="7" markerwidth="190" markerheight="240" orient="auto"><path d="M 5,7 L9,13 L1,7 L9,1 Z"></path></marker></defs><defs><marker id="mermaid-figure-2-mermaid-1789386071051_class-dependencyEnd" class="marker dependency class" refx="13" refy="7" markerwidth="20" markerheight="28" orient="auto"><path d="M 18,7 L9,13 L14,7 L9,1 Z"></path></marker></defs><defs><marker id="mermaid-figure-2-mermaid-1789386071051_class-lollipopStart" class="marker lollipop class" refx="13" refy="7" markerwidth="190" markerheight="240" orient="auto"><circle stroke="black" fill="transparent" cx="7" cy="7" r="6"></circle></marker></defs><defs><marker id="mermaid-figure-2-mermaid-1789386071051_class-lollipopEnd" class="marker lollipop class" refx="1" refy="7" markerwidth="190" markerheight="240" orient="auto"><circle stroke="black" fill="transparent" cx="7" cy="7" r="6"></circle></marker></defs><g class="root"><g class="clusters"></g><g class="edgePaths"><path d="M219.18,92L219.18,98.167C219.18,104.333,219.18,116.667,219.18,128C219.18,139.333,219.18,149.667,219.18,154.833L219.18,160" id="id_DocumentProcessor_IDocumentSaver_1" class="edge-thickness-normal edge-pattern-solid relation" style=";;;" data-edge="true" data-et="edge" data-id="id_DocumentProcessor_IDocumentSaver_1" data-points="W3sieCI6MjE5LjE3OTY4NzUsInkiOjkyfSx7IngiOjIxOS4xNzk2ODc1LCJ5IjoxMjl9LHsieCI6MjE5LjE3OTY4NzUsInkiOjE2Nn1d" marker-end="url(#mermaid-figure-2-mermaid-1789386071051_class-dependencyEnd)"></path><path d="M116.475,327.081L113.707,329.401C110.939,331.72,105.403,336.36,102.635,342.847C99.867,349.333,99.867,357.667,99.867,361.833L99.867,366" id="id_IDocumentSaver_SaveDocumentToPdf_2" class="edge-thickness-normal edge-pattern-dashed relation" style=";;;" data-edge="true" data-et="edge" data-id="id_IDocumentSaver_SaveDocumentToPdf_2" data-points="W3sieCI6MTI5LjY5NTMxMjUsInkiOjMxNn0seyJ4Ijo5OS44NjcxODc1LCJ5IjozNDF9LHsieCI6OTkuODY3MTg3NSwieSI6MzY2fV0=" marker-start="url(#mermaid-figure-2-mermaid-1789386071051_class-extensionStart)"></path><path d="M321.885,327.081L324.653,329.401C327.42,331.72,332.956,336.36,335.724,342.847C338.492,349.333,338.492,357.667,338.492,361.833L338.492,366" id="id_IDocumentSaver_SaveDocumentToHtml_3" class="edge-thickness-normal edge-pattern-dashed relation" style=";;;" data-edge="true" data-et="edge" data-id="id_IDocumentSaver_SaveDocumentToHtml_3" data-points="W3sieCI6MzA4LjY2NDA2MjUsInkiOjMxNn0seyJ4IjozMzguNDkyMTg3NSwieSI6MzQxfSx7IngiOjMzOC40OTIxODc1LCJ5IjozNjZ9XQ==" marker-start="url(#mermaid-figure-2-mermaid-1789386071051_class-extensionStart)"></path></g><g class="edgeLabels"><g class="edgeLabel" transform="translate(219.1796875, 129)"><g class="label" data-id="id_DocumentProcessor_IDocumentSaver_1" transform="translate(-41.8203125, -12)"><foreignObject width="83.640625" height="24">
<div xmlns="http://www.w3.org/1999/xhtml" class="labelBkg" data-xmlns="http://www.w3.org/1999/xhtml" style="display: table-cell; white-space: nowrap; line-height: 1.5; max-width: 200px; text-align: center;"><span class="edgeLabel">depends on</span></div>
</foreignObject></g></g><g class="edgeLabel"><g class="label" data-id="id_IDocumentSaver_SaveDocumentToPdf_2" transform="translate(0, 0)"><foreignObject width="0" height="0">
<div xmlns="http://www.w3.org/1999/xhtml" class="labelBkg" data-xmlns="http://www.w3.org/1999/xhtml" style="display: table-cell; white-space: nowrap; line-height: 1.5; max-width: 200px; text-align: center;"><span class="edgeLabel"></span></div>
</foreignObject></g></g><g class="edgeLabel"><g class="label" data-id="id_IDocumentSaver_SaveDocumentToHtml_3" transform="translate(0, 0)"><foreignObject width="0" height="0">
<div xmlns="http://www.w3.org/1999/xhtml" class="labelBkg" data-xmlns="http://www.w3.org/1999/xhtml" style="display: table-cell; white-space: nowrap; line-height: 1.5; max-width: 200px; text-align: center;"><span class="edgeLabel"></span></div>
</foreignObject></g></g></g><g class="nodes"><g class="node default" id="classId-DocumentProcessor-0" transform="translate(219.1796875, 50)"><g class="basic label-container"><path d="M-90.25 -42 L90.25 -42 L90.25 42 L-90.25 42" stroke="none" stroke-width="0" fill="#e8f4f8" style=""></path><path d="M-90.25 -42 C-20.37009088015499 -42, 49.50981823969002 -42, 90.25 -42 M-90.25 -42 C-53.366109340222145 -42, -16.48221868044429 -42, 90.25 -42 M90.25 -42 C90.25 -20.776346019903347, 90.25 0.44730796019330654, 90.25 42 M90.25 -42 C90.25 -8.530742486918747, 90.25 24.938515026162506, 90.25 42 M90.25 42 C44.5507390551025 42, -1.1485218897950062 42, -90.25 42 M90.25 42 C22.94471377064525 42, -44.3605724587095 42, -90.25 42 M-90.25 42 C-90.25 24.40590226319667, -90.25 6.811804526393338, -90.25 -42 M-90.25 42 C-90.25 21.155724941086014, -90.25 0.3114498821720275, -90.25 -42" stroke="#355c7d" stroke-width="1.3" fill="none" stroke-dasharray="0 0" style=""></path></g><g class="annotation-group text" transform="translate(0, -18)"></g><g class="label-group text" transform="translate(-78.25, -18)"><g class="label" style="font-weight: bolder" transform="translate(0,-12)"><foreignObject width="156.5" height="24">
<div xmlns="http://www.w3.org/1999/xhtml" data-xmlns="http://www.w3.org/1999/xhtml" style="display: table-cell; white-space: nowrap; line-height: 1.5; max-width: 181px; text-align: center;"><span class="nodeLabel markdown-node-label" style="">DocumentProcessor</span></div>
</foreignObject></g></g><g class="members-group text" transform="translate(-78.25, 30)"></g><g class="methods-group text" transform="translate(-78.25, 60)"></g><g class="divider" style=""><path d="M-90.25 6 C-39.083393289395545 6, 12.08321342120891 6, 90.25 6 M-90.25 6 C-36.491325426633786 6, 17.26734914673243 6, 90.25 6" stroke="#355c7d" stroke-width="1.3" fill="none" stroke-dasharray="0 0" style=""></path></g><g class="divider" style=""><path d="M-90.25 24 C-26.207280976577763 24, 37.83543804684447 24, 90.25 24 M-90.25 24 C-28.126688713565535 24, 33.99662257286893 24, 90.25 24" stroke="#355c7d" stroke-width="1.3" fill="none" stroke-dasharray="0 0" style=""></path></g></g><g class="node default" id="classId-IDocumentSaver-1" transform="translate(219.1796875, 241)"><g class="basic label-container"><path d="M-107.82421875 -75 L107.82421875 -75 L107.82421875 75 L-107.82421875 75" stroke="none" stroke-width="0" fill="#e8f4f8" style=""></path><path d="M-107.82421875 -75 C-62.962200088408835 -75, -18.10018142681767 -75, 107.82421875 -75 M-107.82421875 -75 C-61.00549394867129 -75, -14.186769147342574 -75, 107.82421875 -75 M107.82421875 -75 C107.82421875 -29.801662692037503, 107.82421875 15.396674615924994, 107.82421875 75 M107.82421875 -75 C107.82421875 -25.228994389706884, 107.82421875 24.542011220586232, 107.82421875 75 M107.82421875 75 C64.33064249924 75, 20.83706624848 75, -107.82421875 75 M107.82421875 75 C54.58461070719196 75, 1.3450026643839266 75, -107.82421875 75 M-107.82421875 75 C-107.82421875 29.97243836682331, -107.82421875 -15.055123266353377, -107.82421875 -75 M-107.82421875 75 C-107.82421875 42.4394660072761, -107.82421875 9.878932014552205, -107.82421875 -75" stroke="#355c7d" stroke-width="1.3" fill="none" stroke-dasharray="0 0" style=""></path></g><g class="annotation-group text" transform="translate(-39.5859375, -51)"><g class="label" style="" transform="translate(0,-12)"><foreignObject width="79.171875" height="24">
<div xmlns="http://www.w3.org/1999/xhtml" data-xmlns="http://www.w3.org/1999/xhtml" style="display: table-cell; white-space: nowrap; line-height: 1.5; max-width: 122px; text-align: center;"><span class="nodeLabel markdown-node-label" style="">«interface»</span></div>
</foreignObject></g></g><g class="label-group text" transform="translate(-63.1328125, -27)"><g class="label" style="font-weight: bolder" transform="translate(0,-12)"><foreignObject width="126.265625" height="24">
<div xmlns="http://www.w3.org/1999/xhtml" data-xmlns="http://www.w3.org/1999/xhtml" style="display: table-cell; white-space: nowrap; line-height: 1.5; max-width: 159px; text-align: center;"><span class="nodeLabel markdown-node-label" style="">IDocumentSaver</span></div>
</foreignObject></g></g><g class="members-group text" transform="translate(-95.82421875, 21)"></g><g class="methods-group text" transform="translate(-95.82421875, 51)"><g class="label" style="" transform="translate(0,-12)"><foreignObject width="128.515625" height="24">
<div xmlns="http://www.w3.org/1999/xhtml" data-xmlns="http://www.w3.org/1999/xhtml" style="display: table-cell; white-space: nowrap; line-height: 1.5; max-width: 169px; text-align: center;"><span class="nodeLabel markdown-node-label" style="">+save(name, doc)</span></div>
</foreignObject></g></g><g class="divider" style=""><path d="M-107.82421875 -3 C-24.416435586956027 -3, 58.991347576087946 -3, 107.82421875 -3 M-107.82421875 -3 C-48.65195278205266 -3, 10.520313185894679 -3, 107.82421875 -3" stroke="#355c7d" stroke-width="1.3" fill="none" stroke-dasharray="0 0" style=""></path></g><g class="divider" style=""><path d="M-107.82421875 21 C-46.58859821534759 21, 14.647022319304824 21, 107.82421875 21 M-107.82421875 21 C-34.97258238139149 21, 37.87905398721702 21, 107.82421875 21" stroke="#355c7d" stroke-width="1.3" fill="none" stroke-dasharray="0 0" style=""></path></g></g><g class="node default" id="classId-SaveDocumentToPdf-2" transform="translate(99.8671875, 408)"><g class="basic label-container"><path d="M-91.8671875 -42 L91.8671875 -42 L91.8671875 42 L-91.8671875 42" stroke="none" stroke-width="0" fill="#e8f4f8" style=""></path><path d="M-91.8671875 -42 C-49.70055265057866 -42, -7.533917801157315 -42, 91.8671875 -42 M-91.8671875 -42 C-33.92057091356691 -42, 24.026045672866175 -42, 91.8671875 -42 M91.8671875 -42 C91.8671875 -16.761640308526804, 91.8671875 8.476719382946392, 91.8671875 42 M91.8671875 -42 C91.8671875 -14.374531274551401, 91.8671875 13.250937450897197, 91.8671875 42 M91.8671875 42 C51.97388225580086 42, 12.080577011601719 42, -91.8671875 42 M91.8671875 42 C26.403053052316707 42, -39.061081395366585 42, -91.8671875 42 M-91.8671875 42 C-91.8671875 10.564231891343258, -91.8671875 -20.871536217313484, -91.8671875 -42 M-91.8671875 42 C-91.8671875 21.487055685970223, -91.8671875 0.9741113719404453, -91.8671875 -42" stroke="#355c7d" stroke-width="1.3" fill="none" stroke-dasharray="0 0" style=""></path></g><g class="annotation-group text" transform="translate(0, -18)"></g><g class="label-group text" transform="translate(-79.8671875, -18)"><g class="label" style="font-weight: bolder" transform="translate(0,-12)"><foreignObject width="159.734375" height="24">
<div xmlns="http://www.w3.org/1999/xhtml" data-xmlns="http://www.w3.org/1999/xhtml" style="display: table-cell; white-space: nowrap; line-height: 1.5; max-width: 189px; text-align: center;"><span class="nodeLabel markdown-node-label" style="">SaveDocumentToPdf</span></div>
</foreignObject></g></g><g class="members-group text" transform="translate(-79.8671875, 30)"></g><g class="methods-group text" transform="translate(-79.8671875, 60)"></g><g class="divider" style=""><path d="M-91.8671875 6 C-52.02230870869752 6, -12.177429917395045 6, 91.8671875 6 M-91.8671875 6 C-52.14562268355109 6, -12.424057867102178 6, 91.8671875 6" stroke="#355c7d" stroke-width="1.3" fill="none" stroke-dasharray="0 0" style=""></path></g><g class="divider" style=""><path d="M-91.8671875 24 C-46.07344156418678 24, -0.27969562837355966 24, 91.8671875 24 M-91.8671875 24 C-38.977585170118644 24, 13.912017159762712 24, 91.8671875 24" stroke="#355c7d" stroke-width="1.3" fill="none" stroke-dasharray="0 0" style=""></path></g></g><g class="node default" id="classId-SaveDocumentToHtml-3" transform="translate(338.4921875, 408)"><g class="basic label-container"><path d="M-96.7578125 -42 L96.7578125 -42 L96.7578125 42 L-96.7578125 42" stroke="none" stroke-width="0" fill="#e8f4f8" style=""></path><path d="M-96.7578125 -42 C-34.439713771419626 -42, 27.878384957160748 -42, 96.7578125 -42 M-96.7578125 -42 C-43.24220999191578 -42, 10.273392516168443 -42, 96.7578125 -42 M96.7578125 -42 C96.7578125 -19.851552198371166, 96.7578125 2.296895603257667, 96.7578125 42 M96.7578125 -42 C96.7578125 -11.278738263007352, 96.7578125 19.442523473985297, 96.7578125 42 M96.7578125 42 C39.25291845251539 42, -18.251975594969224 42, -96.7578125 42 M96.7578125 42 C23.865893186988885 42, -49.02602612602223 42, -96.7578125 42 M-96.7578125 42 C-96.7578125 19.76581114759305, -96.7578125 -2.4683777048139035, -96.7578125 -42 M-96.7578125 42 C-96.7578125 11.551844468073167, -96.7578125 -18.896311063853666, -96.7578125 -42" stroke="#355c7d" stroke-width="1.3" fill="none" stroke-dasharray="0 0" style=""></path></g><g class="annotation-group text" transform="translate(0, -18)"></g><g class="label-group text" transform="translate(-84.7578125, -18)"><g class="label" style="font-weight: bolder" transform="translate(0,-12)"><foreignObject width="169.515625" height="24">
<div xmlns="http://www.w3.org/1999/xhtml" data-xmlns="http://www.w3.org/1999/xhtml" style="display: table-cell; white-space: nowrap; line-height: 1.5; max-width: 198px; text-align: center;"><span class="nodeLabel markdown-node-label" style="">SaveDocumentToHtml</span></div>
</foreignObject></g></g><g class="members-group text" transform="translate(-84.7578125, 30)"></g><g class="methods-group text" transform="translate(-84.7578125, 60)"></g><g class="divider" style=""><path d="M-96.7578125 6 C-33.57833316285612 6, 29.601146174287763 6, 96.7578125 6 M-96.7578125 6 C-51.566125029503205 6, -6.3744375590064095 6, 96.7578125 6" stroke="#355c7d" stroke-width="1.3" fill="none" stroke-dasharray="0 0" style=""></path></g><g class="divider" style=""><path d="M-96.7578125 24 C-34.58010549586042 24, 27.597601508279155 24, 96.7578125 24 M-96.7578125 24 C-32.679402419634684 24, 31.399007660730632 24, 96.7578125 24" stroke="#355c7d" stroke-width="1.3" fill="none" stroke-dasharray="0 0" style=""></path></g></g></g></g></g>
</svg>