<?xml version="1.0" encoding="UTF-8"?>
<svg id="mermaid-figure-2"  xmlns="http://www.w3.org/2000/svg" xlink="http://www.w3.org/1999/xlink" class="classDiagram" viewBox="0 0 278.828125 742" role="graphics-document document" aria-roledescription="class"  preserveAspectRatio="xMidYMid meet" width="278.828125" height="742">
<style>#mermaid-figure-2{font-family:Helvetica;font-size:16px;fill:#1f2d3d;}@keyframes edge-animation-frame{from{stroke-dashoffset:0;}}@keyframes dash{to{stroke-dashoffset:0;}}#mermaid-figure-2 .edge-animation-slow{stroke-dasharray:9,5!important;stroke-dashoffset:900;animation:dash 50s linear infinite;stroke-linecap:round;}#mermaid-figure-2 .edge-animation-fast{stroke-dasharray:9,5!important;stroke-dashoffset:900;animation:dash 20s linear infinite;stroke-linecap:round;}#mermaid-figure-2 .error-icon{fill:#fff3cd;}#mermaid-figure-2 .error-text{fill:#000c32;stroke:#000c32;}#mermaid-figure-2 .edge-thickness-normal{stroke-width:1px;}#mermaid-figure-2 .edge-thickness-thick{stroke-width:3.5px;}#mermaid-figure-2 .edge-pattern-solid{stroke-dasharray:0;}#mermaid-figure-2 .edge-thickness-invisible{stroke-width:0;fill:none;}#mermaid-figure-2 .edge-pattern-dashed{stroke-dasharray:3;}#mermaid-figure-2 .edge-pattern-dotted{stroke-dasharray:2;}#mermaid-figure-2 .marker{fill:#355c7d;stroke:#355c7d;}#mermaid-figure-2 .marker.cross{stroke:#355c7d;}#mermaid-figure-2 svg{font-family:Helvetica;font-size:16px;}#mermaid-figure-2 p{margin:0;}#mermaid-figure-2 g.classGroup text{fill:#355c7d;stroke:none;font-family:Helvetica;font-size:10px;}#mermaid-figure-2 g.classGroup text .title{font-weight:bolder;}#mermaid-figure-2 .nodeLabel,#mermaid-figure-2 .edgeLabel{color:#1f2d3d;}#mermaid-figure-2 .edgeLabel .label rect{fill:#e8f4f8;}#mermaid-figure-2 .label text{fill:#1f2d3d;}#mermaid-figure-2 .labelBkg{background:#e8f4f8;}#mermaid-figure-2 .edgeLabel .label span{background:#e8f4f8;}#mermaid-figure-2 .classTitle{font-weight:bolder;}#mermaid-figure-2 .node rect,#mermaid-figure-2 .node circle,#mermaid-figure-2 .node ellipse,#mermaid-figure-2 .node polygon,#mermaid-figure-2 .node path{fill:#e8f4f8;stroke:#355c7d;stroke-width:1px;}#mermaid-figure-2 .divider{stroke:#355c7d;stroke-width:1;}#mermaid-figure-2 g.clickable{cursor:pointer;}#mermaid-figure-2 g.classGroup rect{fill:#e8f4f8;stroke:#355c7d;}#mermaid-figure-2 g.classGroup line{stroke:#355c7d;stroke-width:1;}#mermaid-figure-2 .classLabel .box{stroke:none;stroke-width:0;fill:#e8f4f8;opacity:0.5;}#mermaid-figure-2 .classLabel .label{fill:#355c7d;font-size:10px;}#mermaid-figure-2 .relation{stroke:#355c7d;stroke-width:1;fill:none;}#mermaid-figure-2 .dashed-line{stroke-dasharray:3;}#mermaid-figure-2 .dotted-line{stroke-dasharray:1 2;}#mermaid-figure-2 #compositionStart,#mermaid-figure-2 .composition{fill:#355c7d!important;stroke:#355c7d!important;stroke-width:1;}#mermaid-figure-2 #compositionEnd,#mermaid-figure-2 .composition{fill:#355c7d!important;stroke:#355c7d!important;stroke-width:1;}#mermaid-figure-2 #dependencyStart,#mermaid-figure-2 .dependency{fill:#355c7d!important;stroke:#355c7d!important;stroke-width:1;}#mermaid-figure-2 #dependencyStart,#mermaid-figure-2 .dependency{fill:#355c7d!important;stroke:#355c7d!important;stroke-width:1;}#mermaid-figure-2 #extensionStart,#mermaid-figure-2 .extension{fill:transparent!important;stroke:#355c7d!important;stroke-width:1;}#mermaid-figure-2 #extensionEnd,#mermaid-figure-2 .extension{fill:transparent!important;stroke:#355c7d!important;stroke-width:1;}#mermaid-figure-2 #aggregationStart,#mermaid-figure-2 .aggregation{fill:transparent!important;stroke:#355c7d!important;stroke-width:1;}#mermaid-figure-2 #aggregationEnd,#mermaid-figure-2 .aggregation{fill:transparent!important;stroke:#355c7d!important;stroke-width:1;}#mermaid-figure-2 #lollipopStart,#mermaid-figure-2 .lollipop{fill:#e8f4f8!important;stroke:#355c7d!important;stroke-width:1;}#mermaid-figure-2 #lollipopEnd,#mermaid-figure-2 .lollipop{fill:#e8f4f8!important;stroke:#355c7d!important;stroke-width:1;}#mermaid-figure-2 .edgeTerminals{font-size:11px;line-height:initial;}#mermaid-figure-2 .classTitleText{text-anchor:middle;font-size:18px;fill:#1f2d3d;}#mermaid-figure-2 .label-icon{display:inline-block;height:1em;overflow:visible;vertical-align:-0.125em;}#mermaid-figure-2 .node .label-icon path{fill:currentColor;stroke:revert;stroke-width:revert;}#mermaid-figure-2 :root{--mermaid-font-family:"trebuchet ms",verdana,arial,sans-serif;}</style>
<g><defs><marker id="mermaid-figure-2-mermaid-1789394390108_class-aggregationStart" class="marker aggregation class" refx="18" refy="7" markerwidth="190" markerheight="240" orient="auto"><path d="M 18,7 L9,13 L1,7 L9,1 Z"></path></marker></defs><defs><marker id="mermaid-figure-2-mermaid-1789394390108_class-aggregationEnd" class="marker aggregation class" refx="1" refy="7" markerwidth="20" markerheight="28" orient="auto"><path d="M 18,7 L9,13 L1,7 L9,1 Z"></path></marker></defs><defs><marker id="mermaid-figure-2-mermaid-1789394390108_class-extensionStart" class="marker extension class" refx="18" refy="7" markerwidth="190" markerheight="240" orient="auto"><path d="M 1,7 L18,13 V 1 Z"></path></marker></defs><defs><marker id="mermaid-figure-2-mermaid-1789394390108_class-extensionEnd" class="marker extension class" refx="1" refy="7" markerwidth="20" markerheight="28" orient="auto"><path d="M 1,1 V 13 L18,7 Z"></path></marker></defs><defs><marker id="mermaid-figure-2-mermaid-1789394390108_class-compositionStart" class="marker composition class" refx="18" refy="7" markerwidth="190" markerheight="240" orient="auto"><path d="M 18,7 L9,13 L1,7 L9,1 Z"></path></marker></defs><defs><marker id="mermaid-figure-2-mermaid-1789394390108_class-compositionEnd" class="marker composition class" refx="1" refy="7" markerwidth="20" markerheight="28" orient="auto"><path d="M 18,7 L9,13 L1,7 L9,1 Z"></path></marker></defs><defs><marker id="mermaid-figure-2-mermaid-1789394390108_class-dependencyStart" class="marker dependency class" refx="6" refy="7" markerwidth="190" markerheight="240" orient="auto"><path d="M 5,7 L9,13 L1,7 L9,1 Z"></path></marker></defs><defs><marker id="mermaid-figure-2-mermaid-1789394390108_class-dependencyEnd" class="marker dependency class" refx="13" refy="7" markerwidth="20" markerheight="28" orient="auto"><path d="M 18,7 L9,13 L14,7 L9,1 Z"></path></marker></defs><defs><marker id="mermaid-figure-2-mermaid-1789394390108_class-lollipopStart" class="marker lollipop class" refx="13" refy="7" markerwidth="190" markerheight="240" orient="auto"><circle stroke="black" fill="transparent" cx="7" cy="7" r="6"></circle></marker></defs><defs><marker id="mermaid-figure-2-mermaid-1789394390108_class-lollipopEnd" class="marker lollipop class" refx="1" refy="7" markerwidth="190" markerheight="240" orient="auto"><circle stroke="black" fill="transparent" cx="7" cy="7" r="6"></circle></marker></defs><g class="root"><g class="clusters"></g><g class="edgePaths"><path d="M31.439,306.097L30.157,307.914C28.876,309.732,26.313,313.366,25.031,335.35C23.75,357.333,23.75,397.667,23.75,440C23.75,482.333,23.75,526.667,28.099,555C32.447,583.333,41.145,595.667,45.494,601.833L49.842,608" id="id_ServiceInterface_Service_1" class="edge-thickness-normal edge-pattern-dashed relation" style=";;;" data-edge="true" data-et="edge" data-id="id_ServiceInterface_Service_1" data-points="W3sieCI6NDEuMzc5ODgyODEyNSwieSI6MjkyfSx7IngiOjIzLjc1LCJ5IjozMTd9LHsieCI6MjMuNzUsInkiOjQzOH0seyJ4IjoyMy43NSwieSI6NTcxfSx7IngiOjQ5Ljg0MjIyNjU2MjUsInkiOjYwOH1d" marker-start="url(#mermaid-figure-2-mermaid-1789394390108_class-extensionStart)"></path><path d="M157.1,306.097L158.382,307.914C159.663,309.732,162.226,313.366,163.508,319.35C164.789,325.333,164.789,333.667,164.789,337.833L164.789,342" id="id_ServiceInterface_Proxy_2" class="edge-thickness-normal edge-pattern-dashed relation" style=";;;" data-edge="true" data-et="edge" data-id="id_ServiceInterface_Proxy_2" data-points="W3sieCI6MTQ3LjE1OTE3OTY4NzUsInkiOjI5Mn0seyJ4IjoxNjQuNzg5MDYyNSwieSI6MzE3fSx7IngiOjE2NC43ODkwNjI1LCJ5IjozNDJ9XQ==" marker-start="url(#mermaid-figure-2-mermaid-1789394390108_class-extensionStart)"></path><path d="M164.789,551.25L164.789,554.542C164.789,557.833,164.789,564.417,160.44,573.875C156.092,583.333,147.394,595.667,143.046,601.833L138.697,608" id="id_Proxy_Service_3" class="edge-thickness-normal edge-pattern-solid relation" style=";;;" data-edge="true" data-et="edge" data-id="id_Proxy_Service_3" data-points="W3sieCI6MTY0Ljc4OTA2MjUsInkiOjUzNH0seyJ4IjoxNjQuNzg5MDYyNSwieSI6NTcxfSx7IngiOjEzOC42OTY4MzU5Mzc1LCJ5Ijo2MDh9XQ==" marker-start="url(#mermaid-figure-2-mermaid-1789394390108_class-aggregationStart)"></path><path d="M94.27,92L94.27,96.167C94.27,100.333,94.27,108.667,94.27,116C94.27,123.333,94.27,129.667,94.27,132.833L94.27,136" id="id_Client_ServiceInterface_4" class="edge-thickness-normal edge-pattern-solid relation" style=";;;" data-edge="true" data-et="edge" data-id="id_Client_ServiceInterface_4" data-points="W3sieCI6OTQuMjY5NTMxMjUsInkiOjkyfSx7IngiOjk0LjI2OTUzMTI1LCJ5IjoxMTd9LHsieCI6OTQuMjY5NTMxMjUsInkiOjE0Mn1d" marker-end="url(#mermaid-figure-2-mermaid-1789394390108_class-dependencyEnd)"></path></g><g class="edgeLabels"><g class="edgeLabel"><g class="label" data-id="id_ServiceInterface_Service_1" transform="translate(0, 0)"><foreignObject width="0" height="0">
<div xmlns="http://www.w3.org/1999/xhtml" class="labelBkg" data-xmlns="http://www.w3.org/1999/xhtml" style="display: table-cell; white-space: nowrap; line-height: 1.5; max-width: 200px; text-align: center;"><span class="edgeLabel"></span></div>
</foreignObject></g></g><g class="edgeLabel"><g class="label" data-id="id_ServiceInterface_Proxy_2" transform="translate(0, 0)"><foreignObject width="0" height="0">
<div xmlns="http://www.w3.org/1999/xhtml" class="labelBkg" data-xmlns="http://www.w3.org/1999/xhtml" style="display: table-cell; white-space: nowrap; line-height: 1.5; max-width: 200px; text-align: center;"><span class="edgeLabel"></span></div>
</foreignObject></g></g><g class="edgeLabel" transform="translate(164.7890625, 571)"><g class="label" data-id="id_Proxy_Service_3" transform="translate(-40.015625, -12)"><foreignObject width="80.03125" height="24">
<div xmlns="http://www.w3.org/1999/xhtml" class="labelBkg" data-xmlns="http://www.w3.org/1999/xhtml" style="display: table-cell; white-space: nowrap; line-height: 1.5; max-width: 200px; text-align: center;"><span class="edgeLabel">realService</span></div>
</foreignObject></g></g><g class="edgeLabel"><g class="label" data-id="id_Client_ServiceInterface_4" transform="translate(0, 0)"><foreignObject width="0" height="0">
<div xmlns="http://www.w3.org/1999/xhtml" class="labelBkg" data-xmlns="http://www.w3.org/1999/xhtml" style="display: table-cell; white-space: nowrap; line-height: 1.5; max-width: 200px; text-align: center;"><span class="edgeLabel"></span></div>
</foreignObject></g></g></g><g class="nodes"><g class="node default" id="classId-ServiceInterface-0" transform="translate(94.26953125, 217)"><g class="basic label-container"><path d="M-86.26953125 -75 L86.26953125 -75 L86.26953125 75 L-86.26953125 75" stroke="none" stroke-width="0" fill="#e8f4f8" style=""></path><path d="M-86.26953125 -75 C-33.64052953181091 -75, 18.988472186378175 -75, 86.26953125 -75 M-86.26953125 -75 C-21.399719471530034 -75, 43.47009230693993 -75, 86.26953125 -75 M86.26953125 -75 C86.26953125 -38.12509862896545, 86.26953125 -1.2501972579309069, 86.26953125 75 M86.26953125 -75 C86.26953125 -36.779301830008876, 86.26953125 1.4413963399822478, 86.26953125 75 M86.26953125 75 C29.998956685572658 75, -26.271617878854684 75, -86.26953125 75 M86.26953125 75 C19.53949568084161 75, -47.19053988831678 75, -86.26953125 75 M-86.26953125 75 C-86.26953125 37.97077178778256, -86.26953125 0.9415435755651202, -86.26953125 -75 M-86.26953125 75 C-86.26953125 25.42272150962235, -86.26953125 -24.154556980755302, -86.26953125 -75" stroke="#355c7d" stroke-width="1.3" fill="none" stroke-dasharray="0 0" style=""></path></g><g class="annotation-group text" transform="translate(-39.5859375, -51)"><g class="label" style="" transform="translate(0,-12)"><foreignObject width="79.171875" height="24">
<div xmlns="http://www.w3.org/1999/xhtml" data-xmlns="http://www.w3.org/1999/xhtml" style="display: table-cell; white-space: nowrap; line-height: 1.5; max-width: 122px; text-align: center;"><span class="nodeLabel markdown-node-label" style="">«interface»</span></div>
</foreignObject></g></g><g class="label-group text" transform="translate(-61.8203125, -27)"><g class="label" style="font-weight: bolder" transform="translate(0,-12)"><foreignObject width="123.640625" height="24">
<div xmlns="http://www.w3.org/1999/xhtml" data-xmlns="http://www.w3.org/1999/xhtml" style="display: table-cell; white-space: nowrap; line-height: 1.5; max-width: 155px; text-align: center;"><span class="nodeLabel markdown-node-label" style="">ServiceInterface</span></div>
</foreignObject></g></g><g class="members-group text" transform="translate(-74.26953125, 21)"></g><g class="methods-group text" transform="translate(-74.26953125, 51)"><g class="label" style="" transform="translate(0,-12)"><foreignObject width="86.71875" height="24">
<div xmlns="http://www.w3.org/1999/xhtml" data-xmlns="http://www.w3.org/1999/xhtml" style="display: table-cell; white-space: nowrap; line-height: 1.5; max-width: 136px; text-align: center;"><span class="nodeLabel markdown-node-label" style="">+operation()</span></div>
</foreignObject></g></g><g class="divider" style=""><path d="M-86.26953125 -3 C-43.73733429795177 -3, -1.2051373459035375 -3, 86.26953125 -3 M-86.26953125 -3 C-49.11571938846165 -3, -11.961907526923298 -3, 86.26953125 -3" stroke="#355c7d" stroke-width="1.3" fill="none" stroke-dasharray="0 0" style=""></path></g><g class="divider" style=""><path d="M-86.26953125 21 C-35.31995465119324 21, 15.629621947613515 21, 86.26953125 21 M-86.26953125 21 C-36.00689921038731 21, 14.25573282922538 21, 86.26953125 21" stroke="#355c7d" stroke-width="1.3" fill="none" stroke-dasharray="0 0" style=""></path></g></g><g class="node default" id="classId-Service-1" transform="translate(94.26953125, 671)"><g class="basic label-container"><path d="M-69.59375 -63 L69.59375 -63 L69.59375 63 L-69.59375 63" stroke="none" stroke-width="0" fill="#e8f4f8" style=""></path><path d="M-69.59375 -63 C-22.002125757061116 -63, 25.58949848587777 -63, 69.59375 -63 M-69.59375 -63 C-29.65511843769761 -63, 10.28351312460478 -63, 69.59375 -63 M69.59375 -63 C69.59375 -22.64196586763051, 69.59375 17.71606826473898, 69.59375 63 M69.59375 -63 C69.59375 -36.25448269788505, 69.59375 -9.508965395770112, 69.59375 63 M69.59375 63 C20.70242585206836 63, -28.188898295863282 63, -69.59375 63 M69.59375 63 C18.701088152937025 63, -32.19157369412595 63, -69.59375 63 M-69.59375 63 C-69.59375 20.000366340429302, -69.59375 -22.999267319141396, -69.59375 -63 M-69.59375 63 C-69.59375 19.367013001555108, -69.59375 -24.265973996889784, -69.59375 -63" stroke="#355c7d" stroke-width="1.3" fill="none" stroke-dasharray="0 0" style=""></path></g><g class="annotation-group text" transform="translate(0, -39)"></g><g class="label-group text" transform="translate(-28.46875, -39)"><g class="label" style="font-weight: bolder" transform="translate(0,-12)"><foreignObject width="56.9375" height="24">
<div xmlns="http://www.w3.org/1999/xhtml" data-xmlns="http://www.w3.org/1999/xhtml" style="display: table-cell; white-space: nowrap; line-height: 1.5; max-width: 98px; text-align: center;"><span class="nodeLabel markdown-node-label" style="">Service</span></div>
</foreignObject></g></g><g class="members-group text" transform="translate(-57.59375, 9)"></g><g class="methods-group text" transform="translate(-57.59375, 39)"><g class="label" style="" transform="translate(0,-12)"><foreignObject width="86.71875" height="24">
<div xmlns="http://www.w3.org/1999/xhtml" data-xmlns="http://www.w3.org/1999/xhtml" style="display: table-cell; white-space: nowrap; line-height: 1.5; max-width: 136px; text-align: center;"><span class="nodeLabel markdown-node-label" style="">+operation()</span></div>
</foreignObject></g></g><g class="divider" style=""><path d="M-69.59375 -15 C-40.93193879270356 -15, -12.270127585407117 -15, 69.59375 -15 M-69.59375 -15 C-16.5341608972058 -15, 36.5254282055884 -15, 69.59375 -15" stroke="#355c7d" stroke-width="1.3" fill="none" stroke-dasharray="0 0" style=""></path></g><g class="divider" style=""><path d="M-69.59375 9 C-40.76389043081669 9, -11.934030861633374 9, 69.59375 9 M-69.59375 9 C-38.064216466977314 9, -6.534682933954635 9, 69.59375 9" stroke="#355c7d" stroke-width="1.3" fill="none" stroke-dasharray="0 0" style=""></path></g></g><g class="node default" id="classId-Proxy-2" transform="translate(164.7890625, 438)"><g class="basic label-container"><path d="M-106.0390625 -96 L106.0390625 -96 L106.0390625 96 L-106.0390625 96" stroke="none" stroke-width="0" fill="#e8f4f8" style=""></path><path d="M-106.0390625 -96 C-40.56542157954891 -96, 24.90821934090218 -96, 106.0390625 -96 M-106.0390625 -96 C-35.592979312734684 -96, 34.85310387453063 -96, 106.0390625 -96 M106.0390625 -96 C106.0390625 -43.93418464172422, 106.0390625 8.131630716551555, 106.0390625 96 M106.0390625 -96 C106.0390625 -25.744940644587132, 106.0390625 44.510118710825736, 106.0390625 96 M106.0390625 96 C52.8426382438293 96, -0.35378601234140206 96, -106.0390625 96 M106.0390625 96 C62.079091412269634 96, 18.119120324539267 96, -106.0390625 96 M-106.0390625 96 C-106.0390625 49.217212174635236, -106.0390625 2.434424349270472, -106.0390625 -96 M-106.0390625 96 C-106.0390625 45.50767766369908, -106.0390625 -4.984644672601846, -106.0390625 -96" stroke="#355c7d" stroke-width="1.3" fill="none" stroke-dasharray="0 0" style=""></path></g><g class="annotation-group text" transform="translate(0, -72)"></g><g class="label-group text" transform="translate(-22.234375, -72)"><g class="label" style="font-weight: bolder" transform="translate(0,-12)"><foreignObject width="44.46875" height="24">
<div xmlns="http://www.w3.org/1999/xhtml" data-xmlns="http://www.w3.org/1999/xhtml" style="display: table-cell; white-space: nowrap; line-height: 1.5; max-width: 90px; text-align: center;"><span class="nodeLabel markdown-node-label" style="">Proxy</span></div>
</foreignObject></g></g><g class="members-group text" transform="translate(-94.0390625, -24)"><g class="label" style="" transform="translate(0,-12)"><foreignObject width="147.609375" height="24">
<div xmlns="http://www.w3.org/1999/xhtml" data-xmlns="http://www.w3.org/1999/xhtml" style="display: table-cell; white-space: nowrap; line-height: 1.5; max-width: 189px; text-align: center;"><span class="nodeLabel markdown-node-label" style="">-realService: Service</span></div>
</foreignObject></g></g><g class="methods-group text" transform="translate(-94.0390625, 24)"><g class="label" style="" transform="translate(0,-12)"><foreignObject width="131.140625" height="24">
<div xmlns="http://www.w3.org/1999/xhtml" data-xmlns="http://www.w3.org/1999/xhtml" style="display: table-cell; white-space: nowrap; line-height: 1.5; max-width: 176px; text-align: center;"><span class="nodeLabel markdown-node-label" style="">+Proxy(s: Service)</span></div>
</foreignObject></g><g class="label" style="" transform="translate(0,12)"><foreignObject width="165.84375" height="24">
<div xmlns="http://www.w3.org/1999/xhtml" data-xmlns="http://www.w3.org/1999/xhtml" style="display: table-cell; white-space: nowrap; line-height: 1.5; max-width: 208px; text-align: center;"><span class="nodeLabel markdown-node-label" style="">+checkAccess() : : bool</span></div>
</foreignObject></g><g class="label" style="" transform="translate(0,36)"><foreignObject width="86.71875" height="24">
<div xmlns="http://www.w3.org/1999/xhtml" data-xmlns="http://www.w3.org/1999/xhtml" style="display: table-cell; white-space: nowrap; line-height: 1.5; max-width: 136px; text-align: center;"><span class="nodeLabel markdown-node-label" style="">+operation()</span></div>
</foreignObject></g></g><g class="divider" style=""><path d="M-106.0390625 -48 C-62.13247168915141 -48, -18.225880878302817 -48, 106.0390625 -48 M-106.0390625 -48 C-35.97352594655925 -48, 34.0920106068815 -48, 106.0390625 -48" stroke="#355c7d" stroke-width="1.3" fill="none" stroke-dasharray="0 0" style=""></path></g><g class="divider" style=""><path d="M-106.0390625 0 C-43.21244681435262 0, 19.614168871294765 0, 106.0390625 0 M-106.0390625 0 C-59.2862508493376 0, -12.533439198675197 0, 106.0390625 0" stroke="#355c7d" stroke-width="1.3" fill="none" stroke-dasharray="0 0" style=""></path></g></g><g class="node default" id="classId-Client-3" transform="translate(94.26953125, 50)"><g class="basic label-container"><path d="M-34.2265625 -42 L34.2265625 -42 L34.2265625 42 L-34.2265625 42" stroke="none" stroke-width="0" fill="#e8f4f8" style=""></path><path d="M-34.2265625 -42 C-12.275749042482047 -42, 9.675064415035905 -42, 34.2265625 -42 M-34.2265625 -42 C-7.954839801959704 -42, 18.316882896080593 -42, 34.2265625 -42 M34.2265625 -42 C34.2265625 -13.780171903966977, 34.2265625 14.439656192066046, 34.2265625 42 M34.2265625 -42 C34.2265625 -22.194309349557397, 34.2265625 -2.3886186991147937, 34.2265625 42 M34.2265625 42 C18.0719583670769 42, 1.9173542341537981 42, -34.2265625 42 M34.2265625 42 C15.342115176563343 42, -3.5423321468733135 42, -34.2265625 42 M-34.2265625 42 C-34.2265625 21.676574011559726, -34.2265625 1.3531480231194521, -34.2265625 -42 M-34.2265625 42 C-34.2265625 22.29642666278285, -34.2265625 2.5928533255656987, -34.2265625 -42" stroke="#355c7d" stroke-width="1.3" fill="none" stroke-dasharray="0 0" style=""></path></g><g class="annotation-group text" transform="translate(0, -18)"></g><g class="label-group text" transform="translate(-22.2265625, -18)"><g class="label" style="font-weight: bolder" transform="translate(0,-12)"><foreignObject width="44.453125" height="24">
<div xmlns="http://www.w3.org/1999/xhtml" data-xmlns="http://www.w3.org/1999/xhtml" style="display: table-cell; white-space: nowrap; line-height: 1.5; max-width: 90px; text-align: center;"><span class="nodeLabel markdown-node-label" style="">Client</span></div>
</foreignObject></g></g><g class="members-group text" transform="translate(-22.2265625, 30)"></g><g class="methods-group text" transform="translate(-22.2265625, 60)"></g><g class="divider" style=""><path d="M-34.2265625 6 C-11.976662239602106 6, 10.273238020795787 6, 34.2265625 6 M-34.2265625 6 C-8.882167316737227 6, 16.462227866525545 6, 34.2265625 6" stroke="#355c7d" stroke-width="1.3" fill="none" stroke-dasharray="0 0" style=""></path></g><g class="divider" style=""><path d="M-34.2265625 24 C-10.26752743542643 24, 13.69150762914714 24, 34.2265625 24 M-34.2265625 24 C-20.32366278669712 24, -6.420763073394237 24, 34.2265625 24" stroke="#355c7d" stroke-width="1.3" fill="none" stroke-dasharray="0 0" style=""></path></g></g></g></g></g>
</svg>