<?xml version="1.0" encoding="UTF-8"?>
<svg id="mermaid-figure-4"  xmlns="http://www.w3.org/2000/svg" xlink="http://www.w3.org/1999/xlink" class="classDiagram" viewBox="0 0 354.0625 458" role="graphics-document document" aria-roledescription="class"  preserveAspectRatio="xMidYMid meet" width="354.0625" height="458">
<style>#mermaid-figure-4{font-family:Helvetica;font-size:16px;fill:#1f2d3d;}@keyframes edge-animation-frame{from{stroke-dashoffset:0;}}@keyframes dash{to{stroke-dashoffset:0;}}#mermaid-figure-4 .edge-animation-slow{stroke-dasharray:9,5!important;stroke-dashoffset:900;animation:dash 50s linear infinite;stroke-linecap:round;}#mermaid-figure-4 .edge-animation-fast{stroke-dasharray:9,5!important;stroke-dashoffset:900;animation:dash 20s linear infinite;stroke-linecap:round;}#mermaid-figure-4 .error-icon{fill:#fff3cd;}#mermaid-figure-4 .error-text{fill:#000c32;stroke:#000c32;}#mermaid-figure-4 .edge-thickness-normal{stroke-width:1px;}#mermaid-figure-4 .edge-thickness-thick{stroke-width:3.5px;}#mermaid-figure-4 .edge-pattern-solid{stroke-dasharray:0;}#mermaid-figure-4 .edge-thickness-invisible{stroke-width:0;fill:none;}#mermaid-figure-4 .edge-pattern-dashed{stroke-dasharray:3;}#mermaid-figure-4 .edge-pattern-dotted{stroke-dasharray:2;}#mermaid-figure-4 .marker{fill:#355c7d;stroke:#355c7d;}#mermaid-figure-4 .marker.cross{stroke:#355c7d;}#mermaid-figure-4 svg{font-family:Helvetica;font-size:16px;}#mermaid-figure-4 p{margin:0;}#mermaid-figure-4 g.classGroup text{fill:#355c7d;stroke:none;font-family:Helvetica;font-size:10px;}#mermaid-figure-4 g.classGroup text .title{font-weight:bolder;}#mermaid-figure-4 .nodeLabel,#mermaid-figure-4 .edgeLabel{color:#1f2d3d;}#mermaid-figure-4 .edgeLabel .label rect{fill:#e8f4f8;}#mermaid-figure-4 .label text{fill:#1f2d3d;}#mermaid-figure-4 .labelBkg{background:#e8f4f8;}#mermaid-figure-4 .edgeLabel .label span{background:#e8f4f8;}#mermaid-figure-4 .classTitle{font-weight:bolder;}#mermaid-figure-4 .node rect,#mermaid-figure-4 .node circle,#mermaid-figure-4 .node ellipse,#mermaid-figure-4 .node polygon,#mermaid-figure-4 .node path{fill:#e8f4f8;stroke:#355c7d;stroke-width:1px;}#mermaid-figure-4 .divider{stroke:#355c7d;stroke-width:1;}#mermaid-figure-4 g.clickable{cursor:pointer;}#mermaid-figure-4 g.classGroup rect{fill:#e8f4f8;stroke:#355c7d;}#mermaid-figure-4 g.classGroup line{stroke:#355c7d;stroke-width:1;}#mermaid-figure-4 .classLabel .box{stroke:none;stroke-width:0;fill:#e8f4f8;opacity:0.5;}#mermaid-figure-4 .classLabel .label{fill:#355c7d;font-size:10px;}#mermaid-figure-4 .relation{stroke:#355c7d;stroke-width:1;fill:none;}#mermaid-figure-4 .dashed-line{stroke-dasharray:3;}#mermaid-figure-4 .dotted-line{stroke-dasharray:1 2;}#mermaid-figure-4 #compositionStart,#mermaid-figure-4 .composition{fill:#355c7d!important;stroke:#355c7d!important;stroke-width:1;}#mermaid-figure-4 #compositionEnd,#mermaid-figure-4 .composition{fill:#355c7d!important;stroke:#355c7d!important;stroke-width:1;}#mermaid-figure-4 #dependencyStart,#mermaid-figure-4 .dependency{fill:#355c7d!important;stroke:#355c7d!important;stroke-width:1;}#mermaid-figure-4 #dependencyStart,#mermaid-figure-4 .dependency{fill:#355c7d!important;stroke:#355c7d!important;stroke-width:1;}#mermaid-figure-4 #extensionStart,#mermaid-figure-4 .extension{fill:transparent!important;stroke:#355c7d!important;stroke-width:1;}#mermaid-figure-4 #extensionEnd,#mermaid-figure-4 .extension{fill:transparent!important;stroke:#355c7d!important;stroke-width:1;}#mermaid-figure-4 #aggregationStart,#mermaid-figure-4 .aggregation{fill:transparent!important;stroke:#355c7d!important;stroke-width:1;}#mermaid-figure-4 #aggregationEnd,#mermaid-figure-4 .aggregation{fill:transparent!important;stroke:#355c7d!important;stroke-width:1;}#mermaid-figure-4 #lollipopStart,#mermaid-figure-4 .lollipop{fill:#e8f4f8!important;stroke:#355c7d!important;stroke-width:1;}#mermaid-figure-4 #lollipopEnd,#mermaid-figure-4 .lollipop{fill:#e8f4f8!important;stroke:#355c7d!important;stroke-width:1;}#mermaid-figure-4 .edgeTerminals{font-size:11px;line-height:initial;}#mermaid-figure-4 .classTitleText{text-anchor:middle;font-size:18px;fill:#1f2d3d;}#mermaid-figure-4 .label-icon{display:inline-block;height:1em;overflow:visible;vertical-align:-0.125em;}#mermaid-figure-4 .node .label-icon path{fill:currentColor;stroke:revert;stroke-width:revert;}#mermaid-figure-4 :root{--mermaid-font-family:"trebuchet ms",verdana,arial,sans-serif;}</style>
<g><defs><marker id="mermaid-figure-4-mermaid-1789392569039_class-aggregationStart" class="marker aggregation class" refx="18" refy="7" markerwidth="190" markerheight="240" orient="auto"><path d="M 18,7 L9,13 L1,7 L9,1 Z"></path></marker></defs><defs><marker id="mermaid-figure-4-mermaid-1789392569039_class-aggregationEnd" class="marker aggregation class" refx="1" refy="7" markerwidth="20" markerheight="28" orient="auto"><path d="M 18,7 L9,13 L1,7 L9,1 Z"></path></marker></defs><defs><marker id="mermaid-figure-4-mermaid-1789392569039_class-extensionStart" class="marker extension class" refx="18" refy="7" markerwidth="190" markerheight="240" orient="auto"><path d="M 1,7 L18,13 V 1 Z"></path></marker></defs><defs><marker id="mermaid-figure-4-mermaid-1789392569039_class-extensionEnd" class="marker extension class" refx="1" refy="7" markerwidth="20" markerheight="28" orient="auto"><path d="M 1,1 V 13 L18,7 Z"></path></marker></defs><defs><marker id="mermaid-figure-4-mermaid-1789392569039_class-compositionStart" class="marker composition class" refx="18" refy="7" markerwidth="190" markerheight="240" orient="auto"><path d="M 18,7 L9,13 L1,7 L9,1 Z"></path></marker></defs><defs><marker id="mermaid-figure-4-mermaid-1789392569039_class-compositionEnd" class="marker composition class" refx="1" refy="7" markerwidth="20" markerheight="28" orient="auto"><path d="M 18,7 L9,13 L1,7 L9,1 Z"></path></marker></defs><defs><marker id="mermaid-figure-4-mermaid-1789392569039_class-dependencyStart" class="marker dependency class" refx="6" refy="7" markerwidth="190" markerheight="240" orient="auto"><path d="M 5,7 L9,13 L1,7 L9,1 Z"></path></marker></defs><defs><marker id="mermaid-figure-4-mermaid-1789392569039_class-dependencyEnd" class="marker dependency class" refx="13" refy="7" markerwidth="20" markerheight="28" orient="auto"><path d="M 18,7 L9,13 L14,7 L9,1 Z"></path></marker></defs><defs><marker id="mermaid-figure-4-mermaid-1789392569039_class-lollipopStart" class="marker lollipop class" refx="13" refy="7" markerwidth="190" markerheight="240" orient="auto"><circle stroke="black" fill="transparent" cx="7" cy="7" r="6"></circle></marker></defs><defs><marker id="mermaid-figure-4-mermaid-1789392569039_class-lollipopEnd" class="marker lollipop class" refx="1" refy="7" markerwidth="190" markerheight="240" orient="auto"><circle stroke="black" fill="transparent" cx="7" cy="7" r="6"></circle></marker></defs><g class="root"><g class="clusters"></g><g class="edgePaths"><path d="M177.031,92L177.031,98.167C177.031,104.333,177.031,116.667,177.031,128C177.031,139.333,177.031,149.667,177.031,154.833L177.031,160" id="id_Context_State_1" class="edge-thickness-normal edge-pattern-solid relation" style=";;;" data-edge="true" data-et="edge" data-id="id_Context_State_1" data-points="W3sieCI6MTc3LjAzMTI1LCJ5Ijo5Mn0seyJ4IjoxNzcuMDMxMjUsInkiOjEyOX0seyJ4IjoxNzcuMDMxMjUsInkiOjE2Nn1d" marker-end="url(#mermaid-figure-4-mermaid-1789392569039_class-dependencyEnd)"></path><path d="M99.203,321.222L96.005,324.518C92.807,327.815,86.412,334.407,83.214,341.87C80.016,349.333,80.016,357.667,80.016,361.833L80.016,366" id="id_State_ConcreteStateA_2" class="edge-thickness-normal edge-pattern-dashed relation" style=";;;" data-edge="true" data-et="edge" data-id="id_State_ConcreteStateA_2" data-points="W3sieCI6MTExLjIxNDg0Mzc1LCJ5IjozMDguODQxMDM3MjA0MDU4NjR9LHsieCI6ODAuMDE1NjI1LCJ5IjozNDF9LHsieCI6ODAuMDE1NjI1LCJ5IjozNjZ9XQ==" marker-start="url(#mermaid-figure-4-mermaid-1789392569039_class-extensionStart)"></path><path d="M254.859,321.222L258.057,324.518C261.255,327.815,267.651,334.407,270.849,341.87C274.047,349.333,274.047,357.667,274.047,361.833L274.047,366" id="id_State_ConcreteStateB_3" class="edge-thickness-normal edge-pattern-dashed relation" style=";;;" data-edge="true" data-et="edge" data-id="id_State_ConcreteStateB_3" data-points="W3sieCI6MjQyLjg0NzY1NjI1LCJ5IjozMDguODQxMDM3MjA0MDU4NjR9LHsieCI6Mjc0LjA0Njg3NSwieSI6MzQxfSx7IngiOjI3NC4wNDY4NzUsInkiOjM2Nn1d" marker-start="url(#mermaid-figure-4-mermaid-1789392569039_class-extensionStart)"></path></g><g class="edgeLabels"><g class="edgeLabel" transform="translate(177.03125, 129)"><g class="label" data-id="id_Context_State_1" transform="translate(-43.578125, -12)"><foreignObject width="87.15625" height="24">
<div xmlns="http://www.w3.org/1999/xhtml" class="labelBkg" data-xmlns="http://www.w3.org/1999/xhtml" style="display: table-cell; white-space: nowrap; line-height: 1.5; max-width: 200px; text-align: center;"><span class="edgeLabel">currentState</span></div>
</foreignObject></g></g><g class="edgeLabel"><g class="label" data-id="id_State_ConcreteStateA_2" transform="translate(0, 0)"><foreignObject width="0" height="0">
<div xmlns="http://www.w3.org/1999/xhtml" class="labelBkg" data-xmlns="http://www.w3.org/1999/xhtml" style="display: table-cell; white-space: nowrap; line-height: 1.5; max-width: 200px; text-align: center;"><span class="edgeLabel"></span></div>
</foreignObject></g></g><g class="edgeLabel"><g class="label" data-id="id_State_ConcreteStateB_3" transform="translate(0, 0)"><foreignObject width="0" height="0">
<div xmlns="http://www.w3.org/1999/xhtml" class="labelBkg" data-xmlns="http://www.w3.org/1999/xhtml" style="display: table-cell; white-space: nowrap; line-height: 1.5; max-width: 200px; text-align: center;"><span class="edgeLabel"></span></div>
</foreignObject></g></g></g><g class="nodes"><g class="node default" id="classId-Context-0" transform="translate(177.03125, 50)"><g class="basic label-container"><path d="M-41.78125 -42 L41.78125 -42 L41.78125 42 L-41.78125 42" stroke="none" stroke-width="0" fill="#e8f4f8" style=""></path><path d="M-41.78125 -42 C-15.952257964279138 -42, 9.876734071441724 -42, 41.78125 -42 M-41.78125 -42 C-22.05311237968231 -42, -2.324974759364622 -42, 41.78125 -42 M41.78125 -42 C41.78125 -8.428378011538243, 41.78125 25.143243976923515, 41.78125 42 M41.78125 -42 C41.78125 -22.81881523923996, 41.78125 -3.6376304784799203, 41.78125 42 M41.78125 42 C9.80733836265551 42, -22.16657327468898 42, -41.78125 42 M41.78125 42 C9.989910023172374 42, -21.80142995365525 42, -41.78125 42 M-41.78125 42 C-41.78125 14.320321443980042, -41.78125 -13.359357112039916, -41.78125 -42 M-41.78125 42 C-41.78125 12.822491913550056, -41.78125 -16.355016172899887, -41.78125 -42" stroke="#355c7d" stroke-width="1.3" fill="none" stroke-dasharray="0 0" style=""></path></g><g class="annotation-group text" transform="translate(0, -18)"></g><g class="label-group text" transform="translate(-29.78125, -18)"><g class="label" style="font-weight: bolder" transform="translate(0,-12)"><foreignObject width="59.5625" height="24">
<div xmlns="http://www.w3.org/1999/xhtml" data-xmlns="http://www.w3.org/1999/xhtml" style="display: table-cell; white-space: nowrap; line-height: 1.5; max-width: 101px; text-align: center;"><span class="nodeLabel markdown-node-label" style="">Context</span></div>
</foreignObject></g></g><g class="members-group text" transform="translate(-29.78125, 30)"></g><g class="methods-group text" transform="translate(-29.78125, 60)"></g><g class="divider" style=""><path d="M-41.78125 6 C-23.397002217721386 6, -5.012754435442773 6, 41.78125 6 M-41.78125 6 C-15.058616987684637 6, 11.664016024630726 6, 41.78125 6" stroke="#355c7d" stroke-width="1.3" fill="none" stroke-dasharray="0 0" style=""></path></g><g class="divider" style=""><path d="M-41.78125 24 C-14.150481157229816 24, 13.480287685540368 24, 41.78125 24 M-41.78125 24 C-21.358777321007313 24, -0.9363046420146262 24, 41.78125 24" stroke="#355c7d" stroke-width="1.3" fill="none" stroke-dasharray="0 0" style=""></path></g></g><g class="node default" id="classId-State-1" transform="translate(177.03125, 241)"><g class="basic label-container"><path d="M-65.81640625 -75 L65.81640625 -75 L65.81640625 75 L-65.81640625 75" stroke="none" stroke-width="0" fill="#e8f4f8" style=""></path><path d="M-65.81640625 -75 C-28.97105830381407 -75, 7.874289642371863 -75, 65.81640625 -75 M-65.81640625 -75 C-31.345835202955172 -75, 3.124735844089656 -75, 65.81640625 -75 M65.81640625 -75 C65.81640625 -41.97232894206526, 65.81640625 -8.944657884130521, 65.81640625 75 M65.81640625 -75 C65.81640625 -22.062489117900725, 65.81640625 30.87502176419855, 65.81640625 75 M65.81640625 75 C29.72369736787377 75, -6.369011514252463 75, -65.81640625 75 M65.81640625 75 C36.993446078141474 75, 8.170485906282948 75, -65.81640625 75 M-65.81640625 75 C-65.81640625 20.958600717609166, -65.81640625 -33.08279856478167, -65.81640625 -75 M-65.81640625 75 C-65.81640625 30.648658630557094, -65.81640625 -13.702682738885812, -65.81640625 -75" stroke="#355c7d" stroke-width="1.3" fill="none" stroke-dasharray="0 0" style=""></path></g><g class="annotation-group text" transform="translate(-39.5859375, -51)"><g class="label" style="" transform="translate(0,-12)"><foreignObject width="79.171875" height="24">
<div xmlns="http://www.w3.org/1999/xhtml" data-xmlns="http://www.w3.org/1999/xhtml" style="display: table-cell; white-space: nowrap; line-height: 1.5; max-width: 122px; text-align: center;"><span class="nodeLabel markdown-node-label" style="">«interface»</span></div>
</foreignObject></g></g><g class="label-group text" transform="translate(-19.5625, -27)"><g class="label" style="font-weight: bolder" transform="translate(0,-12)"><foreignObject width="39.125" height="24">
<div xmlns="http://www.w3.org/1999/xhtml" data-xmlns="http://www.w3.org/1999/xhtml" style="display: table-cell; white-space: nowrap; line-height: 1.5; max-width: 82px; text-align: center;"><span class="nodeLabel markdown-node-label" style="">State</span></div>
</foreignObject></g></g><g class="members-group text" transform="translate(-53.81640625, 21)"></g><g class="methods-group text" transform="translate(-53.81640625, 51)"><g class="label" style="" transform="translate(0,-12)"><foreignObject width="68.046875" height="24">
<div xmlns="http://www.w3.org/1999/xhtml" data-xmlns="http://www.w3.org/1999/xhtml" style="display: table-cell; white-space: nowrap; line-height: 1.5; max-width: 118px; text-align: center;"><span class="nodeLabel markdown-node-label" style="">+handle()</span></div>
</foreignObject></g></g><g class="divider" style=""><path d="M-65.81640625 -3 C-37.761337822067304 -3, -9.706269394134608 -3, 65.81640625 -3 M-65.81640625 -3 C-19.659622707701942 -3, 26.497160834596116 -3, 65.81640625 -3" stroke="#355c7d" stroke-width="1.3" fill="none" stroke-dasharray="0 0" style=""></path></g><g class="divider" style=""><path d="M-65.81640625 21 C-27.943569242553764 21, 9.929267764892472 21, 65.81640625 21 M-65.81640625 21 C-24.7400542567541 21, 16.3362977364918 21, 65.81640625 21" stroke="#355c7d" stroke-width="1.3" fill="none" stroke-dasharray="0 0" style=""></path></g></g><g class="node default" id="classId-ConcreteStateA-2" transform="translate(80.015625, 408)"><g class="basic label-container"><path d="M-72.015625 -42 L72.015625 -42 L72.015625 42 L-72.015625 42" stroke="none" stroke-width="0" fill="#e8f4f8" style=""></path><path d="M-72.015625 -42 C-40.726990613312 -42, -9.438356226623988 -42, 72.015625 -42 M-72.015625 -42 C-28.089320537831497 -42, 15.836983924337005 -42, 72.015625 -42 M72.015625 -42 C72.015625 -24.132498166344185, 72.015625 -6.264996332688369, 72.015625 42 M72.015625 -42 C72.015625 -19.10993432386697, 72.015625 3.7801313522660607, 72.015625 42 M72.015625 42 C41.91906161054483 42, 11.822498221089667 42, -72.015625 42 M72.015625 42 C19.03073920806756 42, -33.95414658386488 42, -72.015625 42 M-72.015625 42 C-72.015625 15.336797039591758, -72.015625 -11.326405920816484, -72.015625 -42 M-72.015625 42 C-72.015625 18.168060151775947, -72.015625 -5.663879696448106, -72.015625 -42" stroke="#355c7d" stroke-width="1.3" fill="none" stroke-dasharray="0 0" style=""></path></g><g class="annotation-group text" transform="translate(0, -18)"></g><g class="label-group text" transform="translate(-60.015625, -18)"><g class="label" style="font-weight: bolder" transform="translate(0,-12)"><foreignObject width="120.03125" height="24">
<div xmlns="http://www.w3.org/1999/xhtml" data-xmlns="http://www.w3.org/1999/xhtml" style="display: table-cell; white-space: nowrap; line-height: 1.5; max-width: 152px; text-align: center;"><span class="nodeLabel markdown-node-label" style="">ConcreteStateA</span></div>
</foreignObject></g></g><g class="members-group text" transform="translate(-60.015625, 30)"></g><g class="methods-group text" transform="translate(-60.015625, 60)"></g><g class="divider" style=""><path d="M-72.015625 6 C-16.051268655008926 6, 39.91308768998215 6, 72.015625 6 M-72.015625 6 C-41.8458433880097 6, -11.676061776019402 6, 72.015625 6" stroke="#355c7d" stroke-width="1.3" fill="none" stroke-dasharray="0 0" style=""></path></g><g class="divider" style=""><path d="M-72.015625 24 C-33.96739957900267 24, 4.080825841994667 24, 72.015625 24 M-72.015625 24 C-18.57433833946353 24, 34.86694832107294 24, 72.015625 24" stroke="#355c7d" stroke-width="1.3" fill="none" stroke-dasharray="0 0" style=""></path></g></g><g class="node default" id="classId-ConcreteStateB-3" transform="translate(274.046875, 408)"><g class="basic label-container"><path d="M-72.015625 -42 L72.015625 -42 L72.015625 42 L-72.015625 42" stroke="none" stroke-width="0" fill="#e8f4f8" style=""></path><path d="M-72.015625 -42 C-39.49602009999828 -42, -6.976415199996566 -42, 72.015625 -42 M-72.015625 -42 C-33.891791538290526 -42, 4.232041923418947 -42, 72.015625 -42 M72.015625 -42 C72.015625 -24.92711772787984, 72.015625 -7.854235455759678, 72.015625 42 M72.015625 -42 C72.015625 -24.31408216712659, 72.015625 -6.628164334253178, 72.015625 42 M72.015625 42 C40.162874293010304 42, 8.310123586020602 42, -72.015625 42 M72.015625 42 C36.71004224500924 42, 1.404459490018482 42, -72.015625 42 M-72.015625 42 C-72.015625 17.0014621929275, -72.015625 -7.997075614144997, -72.015625 -42 M-72.015625 42 C-72.015625 22.556631264024894, -72.015625 3.1132625280497876, -72.015625 -42" stroke="#355c7d" stroke-width="1.3" fill="none" stroke-dasharray="0 0" style=""></path></g><g class="annotation-group text" transform="translate(0, -18)"></g><g class="label-group text" transform="translate(-60.015625, -18)"><g class="label" style="font-weight: bolder" transform="translate(0,-12)"><foreignObject width="120.03125" height="24">
<div xmlns="http://www.w3.org/1999/xhtml" data-xmlns="http://www.w3.org/1999/xhtml" style="display: table-cell; white-space: nowrap; line-height: 1.5; max-width: 150px; text-align: center;"><span class="nodeLabel markdown-node-label" style="">ConcreteStateB</span></div>
</foreignObject></g></g><g class="members-group text" transform="translate(-60.015625, 30)"></g><g class="methods-group text" transform="translate(-60.015625, 60)"></g><g class="divider" style=""><path d="M-72.015625 6 C-42.685171971674656 6, -13.354718943349312 6, 72.015625 6 M-72.015625 6 C-25.37605730347996 6, 21.26351039304008 6, 72.015625 6" stroke="#355c7d" stroke-width="1.3" fill="none" stroke-dasharray="0 0" style=""></path></g><g class="divider" style=""><path d="M-72.015625 24 C-25.65229637919986 24, 20.71103224160028 24, 72.015625 24 M-72.015625 24 C-40.41168627577615 24, -8.807747551552296 24, 72.015625 24" stroke="#355c7d" stroke-width="1.3" fill="none" stroke-dasharray="0 0" style=""></path></g></g></g></g></g>
</svg>