<?xml version="1.0" encoding="UTF-8"?>
<svg id="mermaid-figure-2"  xmlns="http://www.w3.org/2000/svg" xlink="http://www.w3.org/1999/xlink" class="classDiagram" viewBox="0 0 176.9765625 688" role="graphics-document document" aria-roledescription="class"  preserveAspectRatio="xMidYMid meet" width="176.9765625" height="688">
<style>#mermaid-figure-2{font-family:Helvetica;font-size:16px;fill:#1f2d3d;}@keyframes edge-animation-frame{from{stroke-dashoffset:0;}}@keyframes dash{to{stroke-dashoffset:0;}}#mermaid-figure-2 .edge-animation-slow{stroke-dasharray:9,5!important;stroke-dashoffset:900;animation:dash 50s linear infinite;stroke-linecap:round;}#mermaid-figure-2 .edge-animation-fast{stroke-dasharray:9,5!important;stroke-dashoffset:900;animation:dash 20s linear infinite;stroke-linecap:round;}#mermaid-figure-2 .error-icon{fill:#fff3cd;}#mermaid-figure-2 .error-text{fill:#000c32;stroke:#000c32;}#mermaid-figure-2 .edge-thickness-normal{stroke-width:1px;}#mermaid-figure-2 .edge-thickness-thick{stroke-width:3.5px;}#mermaid-figure-2 .edge-pattern-solid{stroke-dasharray:0;}#mermaid-figure-2 .edge-thickness-invisible{stroke-width:0;fill:none;}#mermaid-figure-2 .edge-pattern-dashed{stroke-dasharray:3;}#mermaid-figure-2 .edge-pattern-dotted{stroke-dasharray:2;}#mermaid-figure-2 .marker{fill:#355c7d;stroke:#355c7d;}#mermaid-figure-2 .marker.cross{stroke:#355c7d;}#mermaid-figure-2 svg{font-family:Helvetica;font-size:16px;}#mermaid-figure-2 p{margin:0;}#mermaid-figure-2 g.classGroup text{fill:#355c7d;stroke:none;font-family:Helvetica;font-size:10px;}#mermaid-figure-2 g.classGroup text .title{font-weight:bolder;}#mermaid-figure-2 .nodeLabel,#mermaid-figure-2 .edgeLabel{color:#1f2d3d;}#mermaid-figure-2 .edgeLabel .label rect{fill:#e8f4f8;}#mermaid-figure-2 .label text{fill:#1f2d3d;}#mermaid-figure-2 .labelBkg{background:#e8f4f8;}#mermaid-figure-2 .edgeLabel .label span{background:#e8f4f8;}#mermaid-figure-2 .classTitle{font-weight:bolder;}#mermaid-figure-2 .node rect,#mermaid-figure-2 .node circle,#mermaid-figure-2 .node ellipse,#mermaid-figure-2 .node polygon,#mermaid-figure-2 .node path{fill:#e8f4f8;stroke:#355c7d;stroke-width:1px;}#mermaid-figure-2 .divider{stroke:#355c7d;stroke-width:1;}#mermaid-figure-2 g.clickable{cursor:pointer;}#mermaid-figure-2 g.classGroup rect{fill:#e8f4f8;stroke:#355c7d;}#mermaid-figure-2 g.classGroup line{stroke:#355c7d;stroke-width:1;}#mermaid-figure-2 .classLabel .box{stroke:none;stroke-width:0;fill:#e8f4f8;opacity:0.5;}#mermaid-figure-2 .classLabel .label{fill:#355c7d;font-size:10px;}#mermaid-figure-2 .relation{stroke:#355c7d;stroke-width:1;fill:none;}#mermaid-figure-2 .dashed-line{stroke-dasharray:3;}#mermaid-figure-2 .dotted-line{stroke-dasharray:1 2;}#mermaid-figure-2 #compositionStart,#mermaid-figure-2 .composition{fill:#355c7d!important;stroke:#355c7d!important;stroke-width:1;}#mermaid-figure-2 #compositionEnd,#mermaid-figure-2 .composition{fill:#355c7d!important;stroke:#355c7d!important;stroke-width:1;}#mermaid-figure-2 #dependencyStart,#mermaid-figure-2 .dependency{fill:#355c7d!important;stroke:#355c7d!important;stroke-width:1;}#mermaid-figure-2 #dependencyStart,#mermaid-figure-2 .dependency{fill:#355c7d!important;stroke:#355c7d!important;stroke-width:1;}#mermaid-figure-2 #extensionStart,#mermaid-figure-2 .extension{fill:transparent!important;stroke:#355c7d!important;stroke-width:1;}#mermaid-figure-2 #extensionEnd,#mermaid-figure-2 .extension{fill:transparent!important;stroke:#355c7d!important;stroke-width:1;}#mermaid-figure-2 #aggregationStart,#mermaid-figure-2 .aggregation{fill:transparent!important;stroke:#355c7d!important;stroke-width:1;}#mermaid-figure-2 #aggregationEnd,#mermaid-figure-2 .aggregation{fill:transparent!important;stroke:#355c7d!important;stroke-width:1;}#mermaid-figure-2 #lollipopStart,#mermaid-figure-2 .lollipop{fill:#e8f4f8!important;stroke:#355c7d!important;stroke-width:1;}#mermaid-figure-2 #lollipopEnd,#mermaid-figure-2 .lollipop{fill:#e8f4f8!important;stroke:#355c7d!important;stroke-width:1;}#mermaid-figure-2 .edgeTerminals{font-size:11px;line-height:initial;}#mermaid-figure-2 .classTitleText{text-anchor:middle;font-size:18px;fill:#1f2d3d;}#mermaid-figure-2 .label-icon{display:inline-block;height:1em;overflow:visible;vertical-align:-0.125em;}#mermaid-figure-2 .node .label-icon path{fill:currentColor;stroke:revert;stroke-width:revert;}#mermaid-figure-2 :root{--mermaid-font-family:"trebuchet ms",verdana,arial,sans-serif;}</style>
<g><defs><marker id="mermaid-figure-2-mermaid-1789386096794_class-aggregationStart" class="marker aggregation class" refx="18" refy="7" markerwidth="190" markerheight="240" orient="auto"><path d="M 18,7 L9,13 L1,7 L9,1 Z"></path></marker></defs><defs><marker id="mermaid-figure-2-mermaid-1789386096794_class-aggregationEnd" class="marker aggregation class" refx="1" refy="7" markerwidth="20" markerheight="28" orient="auto"><path d="M 18,7 L9,13 L1,7 L9,1 Z"></path></marker></defs><defs><marker id="mermaid-figure-2-mermaid-1789386096794_class-extensionStart" class="marker extension class" refx="18" refy="7" markerwidth="190" markerheight="240" orient="auto"><path d="M 1,7 L18,13 V 1 Z"></path></marker></defs><defs><marker id="mermaid-figure-2-mermaid-1789386096794_class-extensionEnd" class="marker extension class" refx="1" refy="7" markerwidth="20" markerheight="28" orient="auto"><path d="M 1,1 V 13 L18,7 Z"></path></marker></defs><defs><marker id="mermaid-figure-2-mermaid-1789386096794_class-compositionStart" class="marker composition class" refx="18" refy="7" markerwidth="190" markerheight="240" orient="auto"><path d="M 18,7 L9,13 L1,7 L9,1 Z"></path></marker></defs><defs><marker id="mermaid-figure-2-mermaid-1789386096794_class-compositionEnd" class="marker composition class" refx="1" refy="7" markerwidth="20" markerheight="28" orient="auto"><path d="M 18,7 L9,13 L1,7 L9,1 Z"></path></marker></defs><defs><marker id="mermaid-figure-2-mermaid-1789386096794_class-dependencyStart" class="marker dependency class" refx="6" refy="7" markerwidth="190" markerheight="240" orient="auto"><path d="M 5,7 L9,13 L1,7 L9,1 Z"></path></marker></defs><defs><marker id="mermaid-figure-2-mermaid-1789386096794_class-dependencyEnd" class="marker dependency class" refx="13" refy="7" markerwidth="20" markerheight="28" orient="auto"><path d="M 18,7 L9,13 L14,7 L9,1 Z"></path></marker></defs><defs><marker id="mermaid-figure-2-mermaid-1789386096794_class-lollipopStart" class="marker lollipop class" refx="13" refy="7" markerwidth="190" markerheight="240" orient="auto"><circle stroke="black" fill="transparent" cx="7" cy="7" r="6"></circle></marker></defs><defs><marker id="mermaid-figure-2-mermaid-1789386096794_class-lollipopEnd" class="marker lollipop class" refx="1" refy="7" markerwidth="190" markerheight="240" orient="auto"><circle stroke="black" fill="transparent" cx="7" cy="7" r="6"></circle></marker></defs><g class="root"><g class="clusters"></g><g class="edgePaths"><path d="M88.488,92L88.488,98.167C88.488,104.333,88.488,116.667,88.488,128C88.488,139.333,88.488,149.667,88.488,154.833L88.488,160" id="id_Director_Builder_1" class="edge-thickness-normal edge-pattern-solid relation" style=";;;" data-edge="true" data-et="edge" data-id="id_Director_Builder_1" data-points="W3sieCI6ODguNDg4MjgxMjUsInkiOjkyfSx7IngiOjg4LjQ4ODI4MTI1LCJ5IjoxMjl9LHsieCI6ODguNDg4MjgxMjUsInkiOjE2Nn1d" marker-end="url(#mermaid-figure-2-mermaid-1789386096794_class-dependencyEnd)"></path><path d="M88.488,405.25L88.488,406.542C88.488,407.833,88.488,410.417,88.488,415.875C88.488,421.333,88.488,429.667,88.488,433.833L88.488,438" id="id_Builder_ConcreteBuilder_2" class="edge-thickness-normal edge-pattern-dashed relation" style=";;;" data-edge="true" data-et="edge" data-id="id_Builder_ConcreteBuilder_2" data-points="W3sieCI6ODguNDg4MjgxMjUsInkiOjM4OH0seyJ4Ijo4OC40ODgyODEyNSwieSI6NDEzfSx7IngiOjg4LjQ4ODI4MTI1LCJ5Ijo0Mzh9XQ==" marker-start="url(#mermaid-figure-2-mermaid-1789386096794_class-extensionStart)"></path><path d="M88.488,522L88.488,528.167C88.488,534.333,88.488,546.667,88.488,558C88.488,569.333,88.488,579.667,88.488,584.833L88.488,590" id="id_ConcreteBuilder_Product_3" class="edge-thickness-normal edge-pattern-solid relation" style=";;;" data-edge="true" data-et="edge" data-id="id_ConcreteBuilder_Product_3" data-points="W3sieCI6ODguNDg4MjgxMjUsInkiOjUyMn0seyJ4Ijo4OC40ODgyODEyNSwieSI6NTU5fSx7IngiOjg4LjQ4ODI4MTI1LCJ5Ijo1OTZ9XQ==" marker-end="url(#mermaid-figure-2-mermaid-1789386096794_class-dependencyEnd)"></path></g><g class="edgeLabels"><g class="edgeLabel" transform="translate(88.48828125, 129)"><g class="label" data-id="id_Director_Builder_1" transform="translate(-23.5625, -12)"><foreignObject width="47.125" height="24">
<div xmlns="http://www.w3.org/1999/xhtml" class="labelBkg" data-xmlns="http://www.w3.org/1999/xhtml" style="display: table-cell; white-space: nowrap; line-height: 1.5; max-width: 200px; text-align: center;"><span class="edgeLabel">directs</span></div>
</foreignObject></g></g><g class="edgeLabel"><g class="label" data-id="id_Builder_ConcreteBuilder_2" transform="translate(0, 0)"><foreignObject width="0" height="0">
<div xmlns="http://www.w3.org/1999/xhtml" class="labelBkg" data-xmlns="http://www.w3.org/1999/xhtml" style="display: table-cell; white-space: nowrap; line-height: 1.5; max-width: 200px; text-align: center;"><span class="edgeLabel"></span></div>
</foreignObject></g></g><g class="edgeLabel" transform="translate(88.48828125, 559)"><g class="label" data-id="id_ConcreteBuilder_Product_3" transform="translate(-20.90625, -12)"><foreignObject width="41.8125" height="24">
<div xmlns="http://www.w3.org/1999/xhtml" class="labelBkg" data-xmlns="http://www.w3.org/1999/xhtml" style="display: table-cell; white-space: nowrap; line-height: 1.5; max-width: 200px; text-align: center;"><span class="edgeLabel">builds</span></div>
</foreignObject></g></g></g><g class="nodes"><g class="node default" id="classId-Director-0" transform="translate(88.48828125, 50)"><g class="basic label-container"><path d="M-42.6796875 -42 L42.6796875 -42 L42.6796875 42 L-42.6796875 42" stroke="none" stroke-width="0" fill="#e8f4f8" style=""></path><path d="M-42.6796875 -42 C-10.758938155304474 -42, 21.161811189391052 -42, 42.6796875 -42 M-42.6796875 -42 C-22.471159119396873 -42, -2.262630738793746 -42, 42.6796875 -42 M42.6796875 -42 C42.6796875 -17.51834497705861, 42.6796875 6.963310045882778, 42.6796875 42 M42.6796875 -42 C42.6796875 -20.743835738615907, 42.6796875 0.5123285227681862, 42.6796875 42 M42.6796875 42 C18.56601897551376 42, -5.54764954897248 42, -42.6796875 42 M42.6796875 42 C21.52159310417553 42, 0.36349870835105946 42, -42.6796875 42 M-42.6796875 42 C-42.6796875 15.734343140193939, -42.6796875 -10.531313719612122, -42.6796875 -42 M-42.6796875 42 C-42.6796875 16.508577327606613, -42.6796875 -8.982845344786774, -42.6796875 -42" stroke="#355c7d" stroke-width="1.3" fill="none" stroke-dasharray="0 0" style=""></path></g><g class="annotation-group text" transform="translate(0, -18)"></g><g class="label-group text" transform="translate(-30.6796875, -18)"><g class="label" style="font-weight: bolder" transform="translate(0,-12)"><foreignObject width="61.359375" height="24">
<div xmlns="http://www.w3.org/1999/xhtml" data-xmlns="http://www.w3.org/1999/xhtml" style="display: table-cell; white-space: nowrap; line-height: 1.5; max-width: 105px; text-align: center;"><span class="nodeLabel markdown-node-label" style="">Director</span></div>
</foreignObject></g></g><g class="members-group text" transform="translate(-30.6796875, 30)"></g><g class="methods-group text" transform="translate(-30.6796875, 60)"></g><g class="divider" style=""><path d="M-42.6796875 6 C-19.386211843964077 6, 3.9072638120718466 6, 42.6796875 6 M-42.6796875 6 C-10.228136003723165 6, 22.22341549255367 6, 42.6796875 6" stroke="#355c7d" stroke-width="1.3" fill="none" stroke-dasharray="0 0" style=""></path></g><g class="divider" style=""><path d="M-42.6796875 24 C-22.33311869800825 24, -1.9865498960164985 24, 42.6796875 24 M-42.6796875 24 C-14.53093996853394 24, 13.617807562932121 24, 42.6796875 24" stroke="#355c7d" stroke-width="1.3" fill="none" stroke-dasharray="0 0" style=""></path></g></g><g class="node default" id="classId-Builder-1" transform="translate(88.48828125, 277)"><g class="basic label-container"><path d="M-80.48828125 -111 L80.48828125 -111 L80.48828125 111 L-80.48828125 111" stroke="none" stroke-width="0" fill="#e8f4f8" style=""></path><path d="M-80.48828125 -111 C-25.46567019736282 -111, 29.556940855274362 -111, 80.48828125 -111 M-80.48828125 -111 C-17.34849481317427 -111, 45.79129162365146 -111, 80.48828125 -111 M80.48828125 -111 C80.48828125 -61.04162586719023, 80.48828125 -11.083251734380454, 80.48828125 111 M80.48828125 -111 C80.48828125 -45.4659718789933, 80.48828125 20.068056242013398, 80.48828125 111 M80.48828125 111 C45.0723180537444 111, 9.656354857488793 111, -80.48828125 111 M80.48828125 111 C34.53285779379719 111, -11.422565662405617 111, -80.48828125 111 M-80.48828125 111 C-80.48828125 29.060134239181835, -80.48828125 -52.87973152163633, -80.48828125 -111 M-80.48828125 111 C-80.48828125 34.2711104908488, -80.48828125 -42.4577790183024, -80.48828125 -111" stroke="#355c7d" stroke-width="1.3" fill="none" stroke-dasharray="0 0" style=""></path></g><g class="annotation-group text" transform="translate(-39.5859375, -87)"><g class="label" style="" transform="translate(0,-12)"><foreignObject width="79.171875" height="24">
<div xmlns="http://www.w3.org/1999/xhtml" data-xmlns="http://www.w3.org/1999/xhtml" style="display: table-cell; white-space: nowrap; line-height: 1.5; max-width: 122px; text-align: center;"><span class="nodeLabel markdown-node-label" style="">«interface»</span></div>
</foreignObject></g></g><g class="label-group text" transform="translate(-27.5625, -63)"><g class="label" style="font-weight: bolder" transform="translate(0,-12)"><foreignObject width="55.125" height="24">
<div xmlns="http://www.w3.org/1999/xhtml" data-xmlns="http://www.w3.org/1999/xhtml" style="display: table-cell; white-space: nowrap; line-height: 1.5; max-width: 100px; text-align: center;"><span class="nodeLabel markdown-node-label" style="">Builder</span></div>
</foreignObject></g></g><g class="members-group text" transform="translate(-68.48828125, -15)"></g><g class="methods-group text" transform="translate(-68.48828125, 15)"><g class="label" style="" transform="translate(0,-12)"><foreignObject width="55.578125" height="24">
<div xmlns="http://www.w3.org/1999/xhtml" data-xmlns="http://www.w3.org/1999/xhtml" style="display: table-cell; white-space: nowrap; line-height: 1.5; max-width: 105px; text-align: center;"><span class="nodeLabel markdown-node-label" style="">+reset()</span></div>
</foreignObject></g><g class="label" style="" transform="translate(0,12)"><foreignObject width="97.390625" height="24">
<div xmlns="http://www.w3.org/1999/xhtml" data-xmlns="http://www.w3.org/1999/xhtml" style="display: table-cell; white-space: nowrap; line-height: 1.5; max-width: 148px; text-align: center;"><span class="nodeLabel markdown-node-label" style="">+buildStepA()</span></div>
</foreignObject></g><g class="label" style="" transform="translate(0,36)"><foreignObject width="97.390625" height="24">
<div xmlns="http://www.w3.org/1999/xhtml" data-xmlns="http://www.w3.org/1999/xhtml" style="display: table-cell; white-space: nowrap; line-height: 1.5; max-width: 147px; text-align: center;"><span class="nodeLabel markdown-node-label" style="">+buildStepB()</span></div>
</foreignObject></g><g class="label" style="" transform="translate(0,60)"><foreignObject width="87.59375" height="24">
<div xmlns="http://www.w3.org/1999/xhtml" data-xmlns="http://www.w3.org/1999/xhtml" style="display: table-cell; white-space: nowrap; line-height: 1.5; max-width: 136px; text-align: center;"><span class="nodeLabel markdown-node-label" style="">+getResult()</span></div>
</foreignObject></g></g><g class="divider" style=""><path d="M-80.48828125 -39 C-19.098517311732813 -39, 42.291246626534374 -39, 80.48828125 -39 M-80.48828125 -39 C-19.638202537597174 -39, 41.21187617480565 -39, 80.48828125 -39" stroke="#355c7d" stroke-width="1.3" fill="none" stroke-dasharray="0 0" style=""></path></g><g class="divider" style=""><path d="M-80.48828125 -15 C-47.20228051810489 -15, -13.916279786209785 -15, 80.48828125 -15 M-80.48828125 -15 C-42.022058538153445 -15, -3.5558358263068897 -15, 80.48828125 -15" stroke="#355c7d" stroke-width="1.3" fill="none" stroke-dasharray="0 0" style=""></path></g></g><g class="node default" id="classId-ConcreteBuilder-2" transform="translate(88.48828125, 480)"><g class="basic label-container"><path d="M-74.234375 -42 L74.234375 -42 L74.234375 42 L-74.234375 42" stroke="none" stroke-width="0" fill="#e8f4f8" style=""></path><path d="M-74.234375 -42 C-37.82380193012936 -42, -1.4132288602587266 -42, 74.234375 -42 M-74.234375 -42 C-37.52877527119297 -42, -0.8231755423859397 -42, 74.234375 -42 M74.234375 -42 C74.234375 -23.16329058434695, 74.234375 -4.326581168693899, 74.234375 42 M74.234375 -42 C74.234375 -10.862451017507183, 74.234375 20.275097964985633, 74.234375 42 M74.234375 42 C29.095464143139203 42, -16.043446713721593 42, -74.234375 42 M74.234375 42 C36.098129813952355 42, -2.038115372095291 42, -74.234375 42 M-74.234375 42 C-74.234375 20.417760116539913, -74.234375 -1.1644797669201736, -74.234375 -42 M-74.234375 42 C-74.234375 15.793548645139122, -74.234375 -10.412902709721756, -74.234375 -42" stroke="#355c7d" stroke-width="1.3" fill="none" stroke-dasharray="0 0" style=""></path></g><g class="annotation-group text" transform="translate(0, -18)"></g><g class="label-group text" transform="translate(-62.234375, -18)"><g class="label" style="font-weight: bolder" transform="translate(0,-12)"><foreignObject width="124.46875" height="24">
<div xmlns="http://www.w3.org/1999/xhtml" data-xmlns="http://www.w3.org/1999/xhtml" style="display: table-cell; white-space: nowrap; line-height: 1.5; max-width: 156px; text-align: center;"><span class="nodeLabel markdown-node-label" style="">ConcreteBuilder</span></div>
</foreignObject></g></g><g class="members-group text" transform="translate(-62.234375, 30)"></g><g class="methods-group text" transform="translate(-62.234375, 60)"></g><g class="divider" style=""><path d="M-74.234375 6 C-39.313615263025554 6, -4.3928555260511075 6, 74.234375 6 M-74.234375 6 C-34.65758116477037 6, 4.91921267045926 6, 74.234375 6" stroke="#355c7d" stroke-width="1.3" fill="none" stroke-dasharray="0 0" style=""></path></g><g class="divider" style=""><path d="M-74.234375 24 C-30.915806880402307 24, 12.402761239195385 24, 74.234375 24 M-74.234375 24 C-26.578360421957726 24, 21.07765415608455 24, 74.234375 24" stroke="#355c7d" stroke-width="1.3" fill="none" stroke-dasharray="0 0" style=""></path></g></g><g class="node default" id="classId-Product-3" transform="translate(88.48828125, 638)"><g class="basic label-container"><path d="M-42.2265625 -42 L42.2265625 -42 L42.2265625 42 L-42.2265625 42" stroke="none" stroke-width="0" fill="#e8f4f8" style=""></path><path d="M-42.2265625 -42 C-17.779398249837975 -42, 6.66776600032405 -42, 42.2265625 -42 M-42.2265625 -42 C-21.91990389854763 -42, -1.6132452970952613 -42, 42.2265625 -42 M42.2265625 -42 C42.2265625 -21.842718992040286, 42.2265625 -1.685437984080572, 42.2265625 42 M42.2265625 -42 C42.2265625 -16.87331519522661, 42.2265625 8.25336960954678, 42.2265625 42 M42.2265625 42 C20.665716936286074 42, -0.8951286274278516 42, -42.2265625 42 M42.2265625 42 C12.099581866030956 42, -18.027398767938088 42, -42.2265625 42 M-42.2265625 42 C-42.2265625 18.162955249824382, -42.2265625 -5.674089500351236, -42.2265625 -42 M-42.2265625 42 C-42.2265625 23.431381101461838, -42.2265625 4.862762202923676, -42.2265625 -42" stroke="#355c7d" stroke-width="1.3" fill="none" stroke-dasharray="0 0" style=""></path></g><g class="annotation-group text" transform="translate(0, -18)"></g><g class="label-group text" transform="translate(-30.2265625, -18)"><g class="label" style="font-weight: bolder" transform="translate(0,-12)"><foreignObject width="60.453125" height="24">
<div xmlns="http://www.w3.org/1999/xhtml" data-xmlns="http://www.w3.org/1999/xhtml" style="display: table-cell; white-space: nowrap; line-height: 1.5; max-width: 101px; text-align: center;"><span class="nodeLabel markdown-node-label" style="">Product</span></div>
</foreignObject></g></g><g class="members-group text" transform="translate(-30.2265625, 30)"></g><g class="methods-group text" transform="translate(-30.2265625, 60)"></g><g class="divider" style=""><path d="M-42.2265625 6 C-12.874823440243201 6, 16.476915619513598 6, 42.2265625 6 M-42.2265625 6 C-20.63117753202149 6, 0.9642074359570216 6, 42.2265625 6" stroke="#355c7d" stroke-width="1.3" fill="none" stroke-dasharray="0 0" style=""></path></g><g class="divider" style=""><path d="M-42.2265625 24 C-16.657328275134144 24, 8.911905949731711 24, 42.2265625 24 M-42.2265625 24 C-11.949727062757315 24, 18.32710837448537 24, 42.2265625 24" stroke="#355c7d" stroke-width="1.3" fill="none" stroke-dasharray="0 0" style=""></path></g></g></g></g></g>
</svg>