<?xml version="1.0" encoding="UTF-8"?>
<svg id="mermaid-figure-4"  xmlns="http://www.w3.org/2000/svg" xlink="http://www.w3.org/1999/xlink" class="classDiagram" viewBox="0 0 354.0625 458" role="graphics-document document" aria-roledescription="class"  preserveAspectRatio="xMidYMid meet" width="354.0625" height="458">
<style>#mermaid-figure-4{font-family:Helvetica;font-size:16px;fill:#1f2d3d;}@keyframes edge-animation-frame{from{stroke-dashoffset:0;}}@keyframes dash{to{stroke-dashoffset:0;}}#mermaid-figure-4 .edge-animation-slow{stroke-dasharray:9,5!important;stroke-dashoffset:900;animation:dash 50s linear infinite;stroke-linecap:round;}#mermaid-figure-4 .edge-animation-fast{stroke-dasharray:9,5!important;stroke-dashoffset:900;animation:dash 20s linear infinite;stroke-linecap:round;}#mermaid-figure-4 .error-icon{fill:#fff3cd;}#mermaid-figure-4 .error-text{fill:#000c32;stroke:#000c32;}#mermaid-figure-4 .edge-thickness-normal{stroke-width:1px;}#mermaid-figure-4 .edge-thickness-thick{stroke-width:3.5px;}#mermaid-figure-4 .edge-pattern-solid{stroke-dasharray:0;}#mermaid-figure-4 .edge-thickness-invisible{stroke-width:0;fill:none;}#mermaid-figure-4 .edge-pattern-dashed{stroke-dasharray:3;}#mermaid-figure-4 .edge-pattern-dotted{stroke-dasharray:2;}#mermaid-figure-4 .marker{fill:#355c7d;stroke:#355c7d;}#mermaid-figure-4 .marker.cross{stroke:#355c7d;}#mermaid-figure-4 svg{font-family:Helvetica;font-size:16px;}#mermaid-figure-4 p{margin:0;}#mermaid-figure-4 g.classGroup text{fill:#355c7d;stroke:none;font-family:Helvetica;font-size:10px;}#mermaid-figure-4 g.classGroup text .title{font-weight:bolder;}#mermaid-figure-4 .nodeLabel,#mermaid-figure-4 .edgeLabel{color:#1f2d3d;}#mermaid-figure-4 .edgeLabel .label rect{fill:#e8f4f8;}#mermaid-figure-4 .label text{fill:#1f2d3d;}#mermaid-figure-4 .labelBkg{background:#e8f4f8;}#mermaid-figure-4 .edgeLabel .label span{background:#e8f4f8;}#mermaid-figure-4 .classTitle{font-weight:bolder;}#mermaid-figure-4 .node rect,#mermaid-figure-4 .node circle,#mermaid-figure-4 .node ellipse,#mermaid-figure-4 .node polygon,#mermaid-figure-4 .node path{fill:#e8f4f8;stroke:#355c7d;stroke-width:1px;}#mermaid-figure-4 .divider{stroke:#355c7d;stroke-width:1;}#mermaid-figure-4 g.clickable{cursor:pointer;}#mermaid-figure-4 g.classGroup rect{fill:#e8f4f8;stroke:#355c7d;}#mermaid-figure-4 g.classGroup line{stroke:#355c7d;stroke-width:1;}#mermaid-figure-4 .classLabel .box{stroke:none;stroke-width:0;fill:#e8f4f8;opacity:0.5;}#mermaid-figure-4 .classLabel .label{fill:#355c7d;font-size:10px;}#mermaid-figure-4 .relation{stroke:#355c7d;stroke-width:1;fill:none;}#mermaid-figure-4 .dashed-line{stroke-dasharray:3;}#mermaid-figure-4 .dotted-line{stroke-dasharray:1 2;}#mermaid-figure-4 #compositionStart,#mermaid-figure-4 .composition{fill:#355c7d!important;stroke:#355c7d!important;stroke-width:1;}#mermaid-figure-4 #compositionEnd,#mermaid-figure-4 .composition{fill:#355c7d!important;stroke:#355c7d!important;stroke-width:1;}#mermaid-figure-4 #dependencyStart,#mermaid-figure-4 .dependency{fill:#355c7d!important;stroke:#355c7d!important;stroke-width:1;}#mermaid-figure-4 #dependencyStart,#mermaid-figure-4 .dependency{fill:#355c7d!important;stroke:#355c7d!important;stroke-width:1;}#mermaid-figure-4 #extensionStart,#mermaid-figure-4 .extension{fill:transparent!important;stroke:#355c7d!important;stroke-width:1;}#mermaid-figure-4 #extensionEnd,#mermaid-figure-4 .extension{fill:transparent!important;stroke:#355c7d!important;stroke-width:1;}#mermaid-figure-4 #aggregationStart,#mermaid-figure-4 .aggregation{fill:transparent!important;stroke:#355c7d!important;stroke-width:1;}#mermaid-figure-4 #aggregationEnd,#mermaid-figure-4 .aggregation{fill:transparent!important;stroke:#355c7d!important;stroke-width:1;}#mermaid-figure-4 #lollipopStart,#mermaid-figure-4 .lollipop{fill:#e8f4f8!important;stroke:#355c7d!important;stroke-width:1;}#mermaid-figure-4 #lollipopEnd,#mermaid-figure-4 .lollipop{fill:#e8f4f8!important;stroke:#355c7d!important;stroke-width:1;}#mermaid-figure-4 .edgeTerminals{font-size:11px;line-height:initial;}#mermaid-figure-4 .classTitleText{text-anchor:middle;font-size:18px;fill:#1f2d3d;}#mermaid-figure-4 .label-icon{display:inline-block;height:1em;overflow:visible;vertical-align:-0.125em;}#mermaid-figure-4 .node .label-icon path{fill:currentColor;stroke:revert;stroke-width:revert;}#mermaid-figure-4 :root{--mermaid-font-family:"trebuchet ms",verdana,arial,sans-serif;}</style>
<g><defs><marker id="mermaid-figure-4-mermaid-1789394572550_class-aggregationStart" class="marker aggregation class" refx="18" refy="7" markerwidth="190" markerheight="240" orient="auto"><path d="M 18,7 L9,13 L1,7 L9,1 Z"></path></marker></defs><defs><marker id="mermaid-figure-4-mermaid-1789394572550_class-aggregationEnd" class="marker aggregation class" refx="1" refy="7" markerwidth="20" markerheight="28" orient="auto"><path d="M 18,7 L9,13 L1,7 L9,1 Z"></path></marker></defs><defs><marker id="mermaid-figure-4-mermaid-1789394572550_class-extensionStart" class="marker extension class" refx="18" refy="7" markerwidth="190" markerheight="240" orient="auto"><path d="M 1,7 L18,13 V 1 Z"></path></marker></defs><defs><marker id="mermaid-figure-4-mermaid-1789394572550_class-extensionEnd" class="marker extension class" refx="1" refy="7" markerwidth="20" markerheight="28" orient="auto"><path d="M 1,1 V 13 L18,7 Z"></path></marker></defs><defs><marker id="mermaid-figure-4-mermaid-1789394572550_class-compositionStart" class="marker composition class" refx="18" refy="7" markerwidth="190" markerheight="240" orient="auto"><path d="M 18,7 L9,13 L1,7 L9,1 Z"></path></marker></defs><defs><marker id="mermaid-figure-4-mermaid-1789394572550_class-compositionEnd" class="marker composition class" refx="1" refy="7" markerwidth="20" markerheight="28" orient="auto"><path d="M 18,7 L9,13 L1,7 L9,1 Z"></path></marker></defs><defs><marker id="mermaid-figure-4-mermaid-1789394572550_class-dependencyStart" class="marker dependency class" refx="6" refy="7" markerwidth="190" markerheight="240" orient="auto"><path d="M 5,7 L9,13 L1,7 L9,1 Z"></path></marker></defs><defs><marker id="mermaid-figure-4-mermaid-1789394572550_class-dependencyEnd" class="marker dependency class" refx="13" refy="7" markerwidth="20" markerheight="28" orient="auto"><path d="M 18,7 L9,13 L14,7 L9,1 Z"></path></marker></defs><defs><marker id="mermaid-figure-4-mermaid-1789394572550_class-lollipopStart" class="marker lollipop class" refx="13" refy="7" markerwidth="190" markerheight="240" orient="auto"><circle stroke="black" fill="transparent" cx="7" cy="7" r="6"></circle></marker></defs><defs><marker id="mermaid-figure-4-mermaid-1789394572550_class-lollipopEnd" class="marker lollipop class" refx="1" refy="7" markerwidth="190" markerheight="240" orient="auto"><circle stroke="black" fill="transparent" cx="7" cy="7" r="6"></circle></marker></defs><g class="root"><g class="clusters"></g><g class="edgePaths"><path d="M177.031,92L177.031,98.167C177.031,104.333,177.031,116.667,177.031,128C177.031,139.333,177.031,149.667,177.031,154.833L177.031,160" id="id_Context_State_1" class="edge-thickness-normal edge-pattern-solid relation" style=";;;" data-edge="true" data-et="edge" data-id="id_Context_State_1" data-points="W3sieCI6MTc3LjAzMTI1LCJ5Ijo5Mn0seyJ4IjoxNzcuMDMxMjUsInkiOjEyOX0seyJ4IjoxNzcuMDMxMjUsInkiOjE2Nn1d" marker-end="url(#mermaid-figure-4-mermaid-1789394572550_class-dependencyEnd)"></path><path d="M99.203,321.222L96.005,324.518C92.807,327.815,86.412,334.407,83.214,341.87C80.016,349.333,80.016,357.667,80.016,361.833L80.016,366" id="id_State_ConcreteStateA_2" class="edge-thickness-normal edge-pattern-dashed relation" style=";;;" data-edge="true" data-et="edge" data-id="id_State_ConcreteStateA_2" data-points="W3sieCI6MTExLjIxNDg0Mzc1LCJ5IjozMDguODQxMDM3MjA0MDU4NjR9LHsieCI6ODAuMDE1NjI1LCJ5IjozNDF9LHsieCI6ODAuMDE1NjI1LCJ5IjozNjZ9XQ==" marker-start="url(#mermaid-figure-4-mermaid-1789394572550_class-extensionStart)"></path><path d="M254.859,321.222L258.057,324.518C261.255,327.815,267.651,334.407,270.849,341.87C274.047,349.333,274.047,357.667,274.047,361.833L274.047,366" id="id_State_ConcreteStateB_3" class="edge-thickness-normal edge-pattern-dashed relation" style=";;;" data-edge="true" data-et="edge" data-id="id_State_ConcreteStateB_3" data-points="W3sieCI6MjQyLjg0NzY1NjI1LCJ5IjozMDguODQxMDM3MjA0MDU4NjR9LHsieCI6Mjc0LjA0Njg3NSwieSI6MzQxfSx7IngiOjI3NC4wNDY4NzUsInkiOjM2Nn1d" marker-start="url(#mermaid-figure-4-mermaid-1789394572550_class-extensionStart)"></path></g><g class="edgeLabels"><g class="edgeLabel" transform="translate(177.03125, 129)"><g class="label" data-id="id_Context_State_1" transform="translate(-43.578125, -12)"><foreignObject width="87.15625" height="24">
<div xmlns="http://www.w3.org/1999/xhtml" class="labelBkg" data-xmlns="http://www.w3.org/1999/xhtml" style="display: table-cell; white-space: nowrap; line-height: 1.5; max-width: 200px; text-align: center;"><span class="edgeLabel">currentState</span></div>
</foreignObject></g></g><g class="edgeLabel"><g class="label" data-id="id_State_ConcreteStateA_2" transform="translate(0, 0)"><foreignObject width="0" height="0">
<div xmlns="http://www.w3.org/1999/xhtml" class="labelBkg" data-xmlns="http://www.w3.org/1999/xhtml" style="display: table-cell; white-space: nowrap; line-height: 1.5; max-width: 200px; text-align: center;"><span class="edgeLabel"></span></div>
</foreignObject></g></g><g class="edgeLabel"><g class="label" data-id="id_State_ConcreteStateB_3" transform="translate(0, 0)"><foreignObject width="0" height="0">
<div xmlns="http://www.w3.org/1999/xhtml" class="labelBkg" data-xmlns="http://www.w3.org/1999/xhtml" style="display: table-cell; white-space: nowrap; line-height: 1.5; max-width: 200px; text-align: center;"><span class="edgeLabel"></span></div>
</foreignObject></g></g></g><g class="nodes"><g class="node default" id="classId-Context-0" transform="translate(177.03125, 50)"><g class="basic label-container"><path d="M-41.78125 -42 L41.78125 -42 L41.78125 42 L-41.78125 42" stroke="none" stroke-width="0" fill="#e8f4f8" style=""></path><path d="M-41.78125 -42 C-23.657768235175535 -42, -5.53428647035107 -42, 41.78125 -42 M-41.78125 -42 C-24.827243784902866 -42, -7.873237569805731 -42, 41.78125 -42 M41.78125 -42 C41.78125 -20.603888775130788, 41.78125 0.7922224497384249, 41.78125 42 M41.78125 -42 C41.78125 -21.89932162045322, 41.78125 -1.7986432409064435, 41.78125 42 M41.78125 42 C8.874535059282849 42, -24.032179881434303 42, -41.78125 42 M41.78125 42 C21.842188941650527 42, 1.9031278833010532 42, -41.78125 42 M-41.78125 42 C-41.78125 15.019526802697257, -41.78125 -11.960946394605486, -41.78125 -42 M-41.78125 42 C-41.78125 16.88130663106044, -41.78125 -8.23738673787912, -41.78125 -42" stroke="#355c7d" stroke-width="1.3" fill="none" stroke-dasharray="0 0" style=""></path></g><g class="annotation-group text" transform="translate(0, -18)"></g><g class="label-group text" transform="translate(-29.78125, -18)"><g class="label" style="font-weight: bolder" transform="translate(0,-12)"><foreignObject width="59.5625" height="24">
<div xmlns="http://www.w3.org/1999/xhtml" data-xmlns="http://www.w3.org/1999/xhtml" style="display: table-cell; white-space: nowrap; line-height: 1.5; max-width: 101px; text-align: center;"><span class="nodeLabel markdown-node-label" style="">Context</span></div>
</foreignObject></g></g><g class="members-group text" transform="translate(-29.78125, 30)"></g><g class="methods-group text" transform="translate(-29.78125, 60)"></g><g class="divider" style=""><path d="M-41.78125 6 C-8.950351268307088 6, 23.880547463385824 6, 41.78125 6 M-41.78125 6 C-9.364180575606731 6, 23.052888848786537 6, 41.78125 6" stroke="#355c7d" stroke-width="1.3" fill="none" stroke-dasharray="0 0" style=""></path></g><g class="divider" style=""><path d="M-41.78125 24 C-10.660498157064758 24, 20.460253685870484 24, 41.78125 24 M-41.78125 24 C-14.845359131362244 24, 12.090531737275512 24, 41.78125 24" stroke="#355c7d" stroke-width="1.3" fill="none" stroke-dasharray="0 0" style=""></path></g></g><g class="node default" id="classId-State-1" transform="translate(177.03125, 241)"><g class="basic label-container"><path d="M-65.81640625 -75 L65.81640625 -75 L65.81640625 75 L-65.81640625 75" stroke="none" stroke-width="0" fill="#e8f4f8" style=""></path><path d="M-65.81640625 -75 C-39.19592566627263 -75, -12.575445082545258 -75, 65.81640625 -75 M-65.81640625 -75 C-16.545450646336647 -75, 32.725504957326706 -75, 65.81640625 -75 M65.81640625 -75 C65.81640625 -33.49566215651208, 65.81640625 8.008675686975835, 65.81640625 75 M65.81640625 -75 C65.81640625 -36.435144848284565, 65.81640625 2.129710303430869, 65.81640625 75 M65.81640625 75 C36.45740496916784 75, 7.098403688335672 75, -65.81640625 75 M65.81640625 75 C36.73796126876864 75, 7.659516287537286 75, -65.81640625 75 M-65.81640625 75 C-65.81640625 23.902302503823606, -65.81640625 -27.19539499235279, -65.81640625 -75 M-65.81640625 75 C-65.81640625 23.130280717362005, -65.81640625 -28.73943856527599, -65.81640625 -75" stroke="#355c7d" stroke-width="1.3" fill="none" stroke-dasharray="0 0" style=""></path></g><g class="annotation-group text" transform="translate(-39.5859375, -51)"><g class="label" style="" transform="translate(0,-12)"><foreignObject width="79.171875" height="24">
<div xmlns="http://www.w3.org/1999/xhtml" data-xmlns="http://www.w3.org/1999/xhtml" style="display: table-cell; white-space: nowrap; line-height: 1.5; max-width: 122px; text-align: center;"><span class="nodeLabel markdown-node-label" style="">«interface»</span></div>
</foreignObject></g></g><g class="label-group text" transform="translate(-19.5625, -27)"><g class="label" style="font-weight: bolder" transform="translate(0,-12)"><foreignObject width="39.125" height="24">
<div xmlns="http://www.w3.org/1999/xhtml" data-xmlns="http://www.w3.org/1999/xhtml" style="display: table-cell; white-space: nowrap; line-height: 1.5; max-width: 82px; text-align: center;"><span class="nodeLabel markdown-node-label" style="">State</span></div>
</foreignObject></g></g><g class="members-group text" transform="translate(-53.81640625, 21)"></g><g class="methods-group text" transform="translate(-53.81640625, 51)"><g class="label" style="" transform="translate(0,-12)"><foreignObject width="68.046875" height="24">
<div xmlns="http://www.w3.org/1999/xhtml" data-xmlns="http://www.w3.org/1999/xhtml" style="display: table-cell; white-space: nowrap; line-height: 1.5; max-width: 118px; text-align: center;"><span class="nodeLabel markdown-node-label" style="">+handle()</span></div>
</foreignObject></g></g><g class="divider" style=""><path d="M-65.81640625 -3 C-19.835413492261942 -3, 26.145579265476115 -3, 65.81640625 -3 M-65.81640625 -3 C-28.830634905496495 -3, 8.15513643900701 -3, 65.81640625 -3" stroke="#355c7d" stroke-width="1.3" fill="none" stroke-dasharray="0 0" style=""></path></g><g class="divider" style=""><path d="M-65.81640625 21 C-15.620973380820303 21, 34.574459488359395 21, 65.81640625 21 M-65.81640625 21 C-15.484022204489257 21, 34.848361841021486 21, 65.81640625 21" stroke="#355c7d" stroke-width="1.3" fill="none" stroke-dasharray="0 0" style=""></path></g></g><g class="node default" id="classId-ConcreteStateA-2" transform="translate(80.015625, 408)"><g class="basic label-container"><path d="M-72.015625 -42 L72.015625 -42 L72.015625 42 L-72.015625 42" stroke="none" stroke-width="0" fill="#e8f4f8" style=""></path><path d="M-72.015625 -42 C-20.002756601889708 -42, 32.010111796220585 -42, 72.015625 -42 M-72.015625 -42 C-26.440156053307135 -42, 19.13531289338573 -42, 72.015625 -42 M72.015625 -42 C72.015625 -14.194215175294456, 72.015625 13.611569649411088, 72.015625 42 M72.015625 -42 C72.015625 -15.27411668810868, 72.015625 11.451766623782639, 72.015625 42 M72.015625 42 C30.984689229724125 42, -10.04624654055175 42, -72.015625 42 M72.015625 42 C33.60292837247408 42, -4.809768255051836 42, -72.015625 42 M-72.015625 42 C-72.015625 20.359083017581977, -72.015625 -1.2818339648360464, -72.015625 -42 M-72.015625 42 C-72.015625 16.82175380982327, -72.015625 -8.356492380353458, -72.015625 -42" stroke="#355c7d" stroke-width="1.3" fill="none" stroke-dasharray="0 0" style=""></path></g><g class="annotation-group text" transform="translate(0, -18)"></g><g class="label-group text" transform="translate(-60.015625, -18)"><g class="label" style="font-weight: bolder" transform="translate(0,-12)"><foreignObject width="120.03125" height="24">
<div xmlns="http://www.w3.org/1999/xhtml" data-xmlns="http://www.w3.org/1999/xhtml" style="display: table-cell; white-space: nowrap; line-height: 1.5; max-width: 152px; text-align: center;"><span class="nodeLabel markdown-node-label" style="">ConcreteStateA</span></div>
</foreignObject></g></g><g class="members-group text" transform="translate(-60.015625, 30)"></g><g class="methods-group text" transform="translate(-60.015625, 60)"></g><g class="divider" style=""><path d="M-72.015625 6 C-34.39762802621496 6, 3.22036894757008 6, 72.015625 6 M-72.015625 6 C-29.759524104478444 6, 12.496576791043111 6, 72.015625 6" stroke="#355c7d" stroke-width="1.3" fill="none" stroke-dasharray="0 0" style=""></path></g><g class="divider" style=""><path d="M-72.015625 24 C-17.171616287357267 24, 37.672392425285466 24, 72.015625 24 M-72.015625 24 C-15.476172502530183 24, 41.063279994939634 24, 72.015625 24" stroke="#355c7d" stroke-width="1.3" fill="none" stroke-dasharray="0 0" style=""></path></g></g><g class="node default" id="classId-ConcreteStateB-3" transform="translate(274.046875, 408)"><g class="basic label-container"><path d="M-72.015625 -42 L72.015625 -42 L72.015625 42 L-72.015625 42" stroke="none" stroke-width="0" fill="#e8f4f8" style=""></path><path d="M-72.015625 -42 C-28.439349361130986 -42, 15.136926277738027 -42, 72.015625 -42 M-72.015625 -42 C-24.673453706292484 -42, 22.66871758741503 -42, 72.015625 -42 M72.015625 -42 C72.015625 -23.226196135630623, 72.015625 -4.452392271261246, 72.015625 42 M72.015625 -42 C72.015625 -11.03825259059542, 72.015625 19.92349481880916, 72.015625 42 M72.015625 42 C34.40850053219572 42, -3.198623935608566 42, -72.015625 42 M72.015625 42 C26.246133774979825 42, -19.52335745004035 42, -72.015625 42 M-72.015625 42 C-72.015625 23.67658756003888, -72.015625 5.353175120077758, -72.015625 -42 M-72.015625 42 C-72.015625 20.20487539680614, -72.015625 -1.5902492063877176, -72.015625 -42" stroke="#355c7d" stroke-width="1.3" fill="none" stroke-dasharray="0 0" style=""></path></g><g class="annotation-group text" transform="translate(0, -18)"></g><g class="label-group text" transform="translate(-60.015625, -18)"><g class="label" style="font-weight: bolder" transform="translate(0,-12)"><foreignObject width="120.03125" height="24">
<div xmlns="http://www.w3.org/1999/xhtml" data-xmlns="http://www.w3.org/1999/xhtml" style="display: table-cell; white-space: nowrap; line-height: 1.5; max-width: 150px; text-align: center;"><span class="nodeLabel markdown-node-label" style="">ConcreteStateB</span></div>
</foreignObject></g></g><g class="members-group text" transform="translate(-60.015625, 30)"></g><g class="methods-group text" transform="translate(-60.015625, 60)"></g><g class="divider" style=""><path d="M-72.015625 6 C-43.057436312543885 6, -14.099247625087763 6, 72.015625 6 M-72.015625 6 C-17.505609549457333 6, 37.004405901085335 6, 72.015625 6" stroke="#355c7d" stroke-width="1.3" fill="none" stroke-dasharray="0 0" style=""></path></g><g class="divider" style=""><path d="M-72.015625 24 C-22.493845564318335 24, 27.02793387136333 24, 72.015625 24 M-72.015625 24 C-36.250236449394265 24, -0.4848478987885301 24, 72.015625 24" stroke="#355c7d" stroke-width="1.3" fill="none" stroke-dasharray="0 0" style=""></path></g></g></g></g></g>
</svg>